SplineFontDB: 1.0
FontName: Loma-BoldOblique
FullName: Loma Bold Oblique
FamilyName: Loma
Weight: Bold
Copyright: Copyright (c) NECTEC, 2003. All rights reserved.\nModified under GNU General Public License by TLWG.
Version: 0.9.8: 2007-04-17
ItalicAngle: -12
UnderlinePosition: -170
UnderlineWidth: 10
Ascent: 1638
Descent: 410
NeedsXUIDChange: 1
FSType: 0
OS2Version: 0
OS2_WeightWidthSlopeOnly: 0
OS2_UseTypoMetrics: 0
CreationTime: 1153662534
ModificationTime: 1177225349
PfmFamily: 33
TTFWeight: 700
TTFWidth: 5
LineGap: 0
VLineGap: 0
Panose: 2 11 6 4 2 2 2 2 2 4
OS2TypoAscent: 0
OS2TypoAOffset: 1
OS2TypoDescent: 0
OS2TypoDOffset: 1
OS2TypoLinegap: 0
OS2WinAscent: 0
OS2WinAOffset: 1
OS2WinDescent: 0
OS2WinDOffset: 1
HheadAscent: 0
HheadAOffset: 1
HheadDescent: 0
HheadDOffset: 1
OS2Vendor: 'PfEd'
ScriptLang: 3
 1 latn 1 dflt 
 1 thai 4 KUY  PAL  THA  dflt 
 1 thai 1 PAL  
ContextSub: glyph 0 2 ' RQD' 0 0 0 1
 String: 15 uni0E0D uni0E10
 BString: 0 
 FString: 0 
 1
  SeqLookup: 0 'ndsc'
EndFPST
ChainSub: class 0 1 'ccmp' 7 7 1 5
  Class: 414 uni0E01 uni0E02 uni0E03 uni0E04 uni0E05 uni0E06 uni0E07 uni0E08 uni0E09 uni0E0A uni0E0B uni0E0C uni0E0D uni0E0E uni0E0F uni0E10 uni0E11 uni0E12 uni0E13 uni0E14 uni0E15 uni0E16 uni0E17 uni0E18 uni0E19 uni0E1A uni0E1B uni0E1C uni0E1D uni0E1E uni0E1F uni0E20 uni0E21 uni0E22 uni0E23 uni0E24 uni0E25 uni0E26 uni0E27 uni0E28 uni0E29 uni0E2A uni0E2B uni0E2C uni0E2D uni0E2E uni0E10.descless uni0E0D.descless dottedcircle
  Class: 7 uni0E33
  Class: 39 uni0E48 uni0E49 uni0E4A uni0E4B uni0E4C
  Class: 23 uni0E38 uni0E39 uni0E3A
  Class: 39 uni0E31 uni0E34 uni0E35 uni0E36 uni0E37
  Class: 7 uni0E4D

StartChar: .notdef
Encoding: 0 -1 0
Width: 1536
Flags: W
HStem: 0 32<295 1255> 1248 32<553 1513>
Fore
256 0 m 1
 528 1280 l 1
 1552 1280 l 1
 1280 0 l 1
 256 0 l 1
295 32 m 1
 1255 32 l 1
 1513 1248 l 1
 553 1248 l 1
 295 32 l 1
EndSplineSet
EndChar
StartChar: uni0E4D.high
Encoding: 271 63262 2
Width: 0
VWidth: 2561
Flags: HW
TeX: 0 0 0 0
HStem: 1719 104<95.7163 180.6> 1928 107<104.8 184.1>
VStem: -24 106<1822 1914.3> 193 105<1850.6 1911>
AnchorPoint: "AboveMark" 108 1740 mark 0
Fore
-24 1842 m 0
 -24 1932 62 2035 172 2035 c 0
 252 2035 298 1978 298 1911 c 0
 298 1813 208 1719 104 1719 c 0
 17 1719 -24 1786 -24 1842 c 0
82 1861 m 0
 82 1831 113 1823 126 1823 c 0
 168 1823 193 1859 193 1887 c 0
 193 1912 176 1928 149 1928 c 0
 115 1928 82 1902 82 1861 c 0
EndSplineSet
EndChar
StartChar: exclam
Encoding: 3 33 5
Width: 569
Flags: W
HStem: 0 194<218 400> 1430 20G<477 716>
VStem: 177 539<0 1450>
Fore
381 999 m 1
 477 1450 l 1
 716 1450 l 1
 620 999 l 1
 443 365 l 1
 291 365 l 1
 381 999 l 1
218 194 m 1
 441 194 l 1
 400 0 l 1
 177 0 l 1
 218 194 l 1
EndSplineSet
EndChar
StartChar: quotedbl
Encoding: 4 34 6
Width: 727
Flags: W
HStem: 1430 20G<414 644 697 927>
VStem: 357 570<947 1450>
Fore
357 947 m 1
 365 1217 l 1
 414 1450 l 1
 644 1450 l 1
 595 1217 l 1
 492 947 l 1
 357 947 l 1
638 947 m 1
 648 1217 l 1
 697 1450 l 1
 927 1450 l 1
 878 1217 l 1
 773 947 l 1
 638 947 l 1
EndSplineSet
EndChar
StartChar: numbersign
Encoding: 5 35 7
Width: 1139
Flags: W
HStem: -10 21G<55 295 514 761> 355 240<147 219 540 677 998 1188> 865 240<256 432 753 882 1212 1297> 1450 20G<677 917 1136 1376>
Fore
55 -10 m 1
 219 355 l 1
 96 355 l 1
 147 595 l 1
 309 595 l 1
 432 865 l 1
 205 865 l 1
 256 1105 l 1
 513 1105 l 1
 677 1470 l 1
 917 1470 l 1
 753 1105 l 1
 972 1105 l 1
 1136 1470 l 1
 1376 1470 l 1
 1212 1105 l 1
 1348 1105 l 1
 1297 865 l 1
 1122 864 l 1
 998 595 l 1
 1239 595 l 1
 1188 355 l 1
 917 355 l 1
 761 -10 l 1
 514 -10 l 1
 677 355 l 1
 459 355 l 1
 295 -10 l 1
 55 -10 l 1
540 595 m 1
 758 595 l 1
 882 865 l 1
 663 865 l 1
 540 595 l 1
EndSplineSet
EndChar
StartChar: dollar
Encoding: 6 36 8
Width: 1139
Flags: MW
VStem: 148 213<234.6 376.352> 314 218<900.3 1185> 919 219<297.2 562.4> 1030 208<1070.5 1226>
Fore
838 820 m 1x60
 898 808 1138 757 1138 504 c 0
 1138 274 965 -17 657 -35 c 1
 639 -118 l 1
 437 -118 l 1
 454 -37 l 1
 257 -12 148 91 148 276 c 0
 148 325 157 374 165 417 c 1
 374 417 l 1
 365 380 361 350 361 323 c 0xa0
 361 255 389 192 495 153 c 1
 594 621 l 1
 459 649 314 748 314 936 c 0
 314 1144 462 1400 766 1429 c 1
 778 1488 l 1
 980 1488 l 1
 968 1429 l 1
 1148 1408 1238 1312 1238 1140 c 0
 1238 1112 1236 1082 1231 1050 c 1
 1028 1050 l 1
 1029 1058 1030 1066 1030 1075 c 0
 1030 1121 1013 1208 927 1239 c 1
 838 820 l 1x60
726 1241 m 1
 638 1234 532 1140 532 990 c 0x60
 532 921 567 871 641 840 c 1
 726 1241 l 1
919 448 m 0
 919 536 878 572 791 599 c 1
 697 153 l 1
 850 188 919 332 919 448 c 0
EndSplineSet
EndChar
StartChar: percent
Encoding: 7 37 9
Width: 1821
Flags: HW
HStem: -53 177<1359.68 1597.63> 546 175<1306.88 1542.9> 717 169<573.24 808.28> 1317 174<523.8 757.8>
VStem: 340 191<879.603 1083.43> 801 193<1113.56 1327.83> 1124 192<116.107 326.072> 1590 191<333.799 563.642>
Fore
340 978 m 0xbf
 340 1175.21 456.069 1491 743 1491 c 0
 901.399 1491 994 1394.66 994 1227 c 0
 994 989.164 838.14 717 580 717 c 0
 427.557 717 340 814.205 340 978 c 0xbf
801 1205 m 0
 801 1299.49 747 1317 711 1317 c 0
 567 1317 531 1063.8 531 999 c 0
 531 907.156 583.8 886 619 886 c 0
 764.6 886 801 1134.66 801 1205 c 0
1487 1491 m 1
 1764 1491 l 1
 686 -10 l 1
 409 -10 l 1
 1487 1491 l 1
1365 -53 m 0
 1172.2 -53 1124 92.75 1124 210 c 0
 1124 416.139 1247.52 721 1529 721 c 0xdf
 1730.6 721 1781 569.364 1781 454 c 0
 1781 213.675 1622.2 -53 1365 -53 c 0
1590 432 m 0
 1590 533.263 1528.01 546 1497 546 c 0
 1350.75 546 1316 305.517 1316 237 c 0
 1316 144.005 1370.6 124 1407 124 c 0
 1553.64 124 1590 356.461 1590 432 c 0
EndSplineSet
EndChar
StartChar: ampersand
Encoding: 8 38 10
Width: 1366
Flags: HW
HStem: -22 207<400.9 702.5> 1286 205<818.1 994.9>
VStem: 165 244<264.8 522.2> 510 247<1077.2 1252.7> 989 246<1078.1 1246>
Fore
1235 1246 m 0
 1235 1076 1110 924 895 821 c 1
 1037 522 l 1
 1079 579 1117 648 1150 727 c 1
 1359 649 l 1
 1307 540 1244 442 1171 357 c 1
 1219 270 1279 195 1352 132 c 1
 1159 -67 l 1
 1097 -19 1037 50 978 140 c 1
 886 60 741 -22 571 -22 c 0
 330 -22 165 96 165 319 c 0
 165 552 348 756 588 852 c 1
 541 927 510 989 510 1081 c 0
 510 1308 713 1491 954 1491 c 0
 1118 1491 1235 1392 1235 1246 c 0
900 1286 m 0
 837 1286 757 1226 757 1137 c 0
 757 1091 777 1039 818 983 c 1
 908 1018 989 1106 989 1199 c 0
 989 1228 973 1284 900 1286 c 0
409 361 m 0
 409 287 442 185 579 185 c 0
 674 185 798 235 869 326 c 1
 673 671 l 1
 506 585 409 485 409 361 c 0
EndSplineSet
EndChar
StartChar: quotesingle
Encoding: 9 39 11
Width: 391
Flags: W
HStem: 1446 20G<373 636>
VStem: 308 328<947 1466>
Fore
308 947 m 1
 321 1221 l 1
 373 1466 l 1
 636 1466 l 1
 584 1221 l 1
 477 947 l 1
 308 947 l 1
EndSplineSet
EndChar
StartChar: parenleft
Encoding: 10 40 12
Width: 682
Flags: HW
VStem: 165 270<-7.3 886.4>
Fore
344 -431 m 1
 208 -194 165 53 165 254 c 0
 165 818 501 1229 753 1491 c 1
 973 1491 l 1
 686 1147 435 728 435 200 c 0
 435 -10 478 -221 564 -431 c 1
 344 -431 l 1
EndSplineSet
EndChar
StartChar: parenright
Encoding: 11 41 13
Width: 682
Flags: HW
VStem: 531.825 271.175<202.372 1112.12>
Fore
803 837 m 0
 803 285.438 472.145 -167.855 209 -431 c 1
 -13 -431 l 5
 274.003 -87.0264 531.825 360.715 531.825 888.525 c 0
 531.825 1093.59 486.703 1227.01 396 1491 c 1
 618 1491 l 1
 747.99 1248.16 803 1048.63 803 837 c 0
EndSplineSet
EndChar
StartChar: asterisk
Encoding: 12 42 14
Width: 797
Flags: W
HStem: 858 633<623 692>
VStem: 315 662<1176 1360>
Fore
315 1176 m 1
 395 1357 l 1
 551 1301 l 1
 562 1296 573 1290 583 1284 c 1
 587 1327 593 1365 600 1399 c 1
 623 1491 l 1
 800 1491 l 1
 775 1349 l 1
 769 1328 762 1305 754 1282 c 1
 798 1302 865 1326 955 1353 c 0
 967 1357 967 1357 977 1360 c 1
 972 1179 l 1
 888 1153 824 1137 777 1131 c 2
 753 1128 l 1
 778 1101 815 1048 864 967 c 2
 866 962 l 1
 692 858 l 1
 666 909 639 970 613 1041 c 1
 570 982 520 924 468 869 c 2
 460 862 l 1
 332 968 l 1
 425 1059 485 1115 512 1136 c 1
 350 1167 l 2
 339 1170 327 1173 315 1176 c 1
EndSplineSet
EndChar
StartChar: plus
Encoding: 13 43 15
Width: 1196
Flags: W
HStem: 611 226<292 613 891 1212>
VStem: 244 1016<611 837>
Fore
533 237 m 1
 613 611 l 1
 244 611 l 1
 292 837 l 1
 661 837 l 1
 739 1206 l 1
 969 1206 l 1
 891 837 l 1
 1260 837 l 1
 1212 611 l 1
 843 611 l 1
 763 237 l 1
 533 237 l 1
EndSplineSet
EndChar
StartChar: comma
Encoding: 14 44 16
Width: 569
Flags: HW
VStem: 67 401<-207 231>
Fore
117 -22 m 1
 171 231 l 1
 468 231 l 1
 414 -22 l 2
 375.222 -207.075 293.652 -260.921 204 -300 c 1
 67 -207 l 1
 194.308 -154.824 230.665 -53.9504 239 -22 c 1
 117 -22 l 1
EndSplineSet
EndChar
StartChar: hyphen
Encoding: 15 45 17
Width: 682
Flags: MW
HStem: 388 266<147 757 204 700>
Fore
147 388 m 1
 204 654 l 1
 757 654 l 1
 700 388 l 1
 147 388 l 1
EndSplineSet
EndChar
StartChar: period
Encoding: 16 46 18
Width: 569
Flags: W
HStem: 0 220<201 430>
VStem: 154 323<0 220>
Fore
154 0 m 1
 201 220 l 1
 477 220 l 1
 430 0 l 1
 154 0 l 1
EndSplineSet
EndChar
StartChar: slash
Encoding: 17 47 19
Width: 595
Flags: W
HStem: -10 21G<-112 128> 1450 20G<789 1028>
Fore
-112 -10 m 1
 789 1470 l 1
 1028 1470 l 1
 128 -10 l 1
 -112 -10 l 1
EndSplineSet
EndChar
StartChar: zero
Encoding: 18 48 20
Width: 1139
Flags: HW
HStem: -10 267<483.7 724.643> 1213 269<650.6 948.3>
VStem: 203 261<287.3 605.133> 969 267<865.226 1182.3>
Fore
561 -10 m 0
 346 -10 203 103 203 411 c 0
 203 587 260 899 363 1115 c 0
 479 1360 651 1482 878 1482 c 0
 1164 1482 1236 1278 1236 1062 c 0
 1236 839 1156 518 1065 337 c 0
 950 114 782 -1 561 -10 c 0
817 1213 m 0
 689 1213 574 1105 496 735 c 0
 475 634 464 550 464 481 c 0
 464 332 514 257 615 257 c 0
 766 268 876 400 954 821 c 0
 964 883 969 938 969 986 c 0
 969 1137 918 1213 817 1213 c 0
EndSplineSet
EndChar
StartChar: one
Encoding: 19 49 21
Width: 1139
Flags: HW
HStem: 0 21G<525 763> 1452 20G<838 1076>
VStem: 402 674<844 1472>
Fore
763 0 m 1
 525 0 l 1
 747 1045 l 1
 599.384 909.126 466.792 858.725 402 844 c 1
 458 1104 l 1
 655.352 1188.86 752.795 1291.68 838 1472 c 1
 1076 1472 l 1
 763 0 l 1
EndSplineSet
KernsSLIFO: 21 -152 0 0
EndChar
StartChar: two
Encoding: 20 50 22
Width: 1139
Flags: HW
HStem: 0 223<429 1031> 1273 209<649.2 945.869>
VStem: 1026.78 242.219<975.9 1250.03>
Fore
887 1482 m 0
 1192.68 1482 1269 1298 1269 1167 c 0
 1269 1020 1177.56 851.658 1023 705 c 0
 875.419 557.419 568.996 382.996 429 223 c 1
 1078 223 l 1
 1031 0 l 1
 62 0 l 1
 120.832 199.673 277.924 370.171 376 450 c 0
 587.239 629.256 1026.78 863.732 1026.78 1114.23 c 0
 1026.78 1218.69 921.207 1273 839 1273 c 0
 693 1273 586.722 1175.35 552 1039 c 1
 317 1039 l 1
 370.61 1292.26 584.85 1482 887 1482 c 0
EndSplineSet
EndChar
StartChar: three
Encoding: 21 51 23
Width: 1139
Flags: HW
HStem: -10 216<454 871.3> 668 215<628 821.146> 1070 21G<331 560> 1268 214<652.6 926.9>
VStem: 166 240<250.9 424.658> 905 251<351.5 627.1> 978 239<1075.14 1223.3>
Fore
1156 577 m 0xfc
 1156 228 859 -7 550 -10 c 0
 327 -10 166 127 166 332 c 0
 166 370 172 409 177 427 c 1
 407 427 l 1
 406 419 406 411 406 403 c 0
 406 286 487 206 597 206 c 0
 808 206 905 383 905 488 c 0xfc
 905 595 807 668 679 668 c 0
 646 668 613 663 580 654 c 1
 628 882 l 1
 704 883 l 2
 968 901 978 1115 978 1131 c 0
 978 1202 902 1268 819 1268 c 0
 691 1268 592 1181 560 1070 c 1
 331 1070 l 1
 380 1298 605 1482 860 1482 c 0
 1078 1482 1217 1360 1217 1185 c 0xfa
 1217 1060 1139 828 981 794 c 1
 1099 772 1156 705 1156 577 c 0xfc
EndSplineSet
EndChar
StartChar: four
Encoding: 22 52 24
Width: 1139
Flags: W
HStem: 0 21G<662 892> 327 225<438 732 1009 1140> 1452 20G<975 1205>
Fore
662 0 m 1
 732 327 l 1
 126 327 l 1
 173 552 l 1
 975 1472 l 1
 1205 1472 l 1
 1009 552 l 1
 1187 552 l 1
 1140 327 l 1
 962 327 l 1
 892 0 l 1
 662 0 l 1
779 552 m 1
 891 1077 l 1
 438 552 l 1
 779 552 l 1
EndSplineSet
EndChar
StartChar: five
Encoding: 23 53 25
Width: 1139
Flags: HW
HStem: -10 214<495 861.6> 777 230<714 845.4> 1244 228<737 1252>
VStem: 169 245<197.7 428.066> 934 246<349.8 784>
Fore
554 -10 m 0
 246 -10 169 182 169 346 c 0
 169 368 171 391 173 415 c 1
 418 415 l 1
 416 398 414 383 414 368 c 0
 414 237 519 204 599 204 c 0
 801 204 934 405 934 589 c 0
 934 739 816 777 718 777 c 0
 619 777 568 747 501 686 c 1
 267 708 l 1
 572 1472 l 1
 1301 1472 l 1
 1252 1244 l 1
 737 1244 l 1
 604 940 l 1
 686 987 735 1007 805 1007 c 0
 1070 1003 1180 830 1180 641 c 0
 1179 339 953 -10 554 -10 c 0
EndSplineSet
EndChar
StartChar: six
Encoding: 24 54 26
Width: 1139
Flags: HW
HStem: -10 210<436.9 897.1> 764 213<643.6 898.3> 1257 225<496.5 997>
VStem: 193 251<287.8 531.3> 931 231<369.8 722.1>
Fore
918 1482 m 0
 1134 1482 1263 1356 1263 1188 c 0
 1263 1161 1259 1133 1253 1103 c 1
 1042 1104 l 1
 1034 1204 967 1257 867 1257 c 0
 582 1257 515 911 497 858 c 1
 579 937 679 977 797 977 c 0
 1015 977 1162 825 1162 603 c 0
 1162 322 946 -10 584 -10 c 0
 322 -10 193 138 193 426 c 0
 193 507 204 599 226 701 c 0
 313 1109 503 1482 918 1482 c 0
741 764 m 0
 530 764 444 539 444 397 c 0
 444 313 481 200 628 200 c 0
 835 200 931 416 931 570 c 0
 931 687 862 764 741 764 c 0
EndSplineSet
EndChar
StartChar: seven
Encoding: 25 55 27
Width: 1139
Flags: HW
HStem: 0 21G<253 511> 1233 239<410 1017>
Fore
359 1233 m 1
 410 1472 l 1
 1359 1472 l 1
 1308 1233 l 1
 1162 1107 905 835 822 692 c 0
 609 328 543 145 511 0 c 1
 253 0 l 1
 306 243 426 502 611 776 c 0
 684 885 848 1067 1017 1233 c 1
 359 1233 l 1
EndSplineSet
EndChar
StartChar: eight
Encoding: 26 56 28
Width: 1139
Flags: HW
HStem: -10 209<450.1 876.5> 651 267<632 867.4> 1284 198<676.8 966.7>
VStem: 164 244<238.6 561.4> 368 231<942.3 1234.8> 910 241<324.9 629.1> 1000 233<1007.2 1252.9>
Fore
164 330 m 0xf4
 164 508 259 739 533 805 c 1
 423 849 368 923 368 1027 c 0
 368 1221 534 1482 878 1482 c 0
 1081 1482 1233 1383 1233 1186 c 0xea
 1233 1034 1157 892 944 805 c 1
 1102 749 1151 658 1151 536 c 0
 1151 196 832 -10 564 -10 c 0
 306 -10 164 133 164 330 c 0xf4
838 1284 m 0
 714 1284 599 1194 599 1058 c 0
 599 969 662 918 762 918 c 0
 917 918 1000 1039 1000 1145 c 0
 1000 1228 937 1284 838 1284 c 0
910 490 m 0xf4
 910 597 829 651 701 651 c 0
 520 651 408 529 408 379 c 0
 408 271 487 199 610 199 c 0
 815 199 910 363 910 490 c 0xf4
EndSplineSet
EndChar
StartChar: nine
Encoding: 27 57 29
Width: 1139
Flags: HW
HStem: -10 229<497.3 874.3> 495 227<590.1 822.4> 1257 225<593.8 990.3>
VStem: 208 223<214.1 373.131> 308 250<757.5 1100.7> 1019 259<942.4 1214>
Fore
553 -10 m 0xec
 346 -10 208 108 208 285 c 0
 208 312 211 340 217 369 c 1
 432 369 l 1
 431 362 431 355 431 348 c 0xf4
 431 245 524 219 613 219 c 0
 814 219 888 347 948 579 c 1
 865 511 787 495 669 495 c 0
 433 495 308 663 308 856 c 0
 308 1145 531 1482 887 1482 c 0
 1200 1482 1278 1268 1278 1049 c 0
 1278 967 1267 874 1245 771 c 0
 1158 363 968 -10 553 -10 c 0xec
737 722 m 0
 938 722 1019 936 1019 1071 c 0
 1019 1181 957 1257 846 1257 c 0
 652 1257 558 1056 558 907 c 0xec
 558 792 624 722 737 722 c 0
EndSplineSet
EndChar
StartChar: colon
Encoding: 28 58 30
Width: 569
Flags: W
HStem: 0 230<209 415> 832 230<386 592>
VStem: 160 481<0 1062>
Fore
337 832 m 1
 386 1062 l 1
 641 1062 l 1
 592 832 l 1
 337 832 l 1
160 0 m 1
 209 230 l 1
 464 230 l 1
 415 0 l 1
 160 0 l 1
EndSplineSet
EndChar
StartChar: semicolon
Encoding: 29 59 31
Width: 569
Flags: HW
HStem: -20 20G<157 259> 832 230<383 589>
VStem: 100 538<-213 1062>
Fore
334 832 m 1
 383 1062 l 1
 638 1062 l 1
 589 832 l 1
 334 832 l 1
157 0 m 1
 201 205 l 1
 456 205 l 1
 412 0 l 2
 377 -163 309 -262 207 -297 c 1
 100 -213 l 1
 184.256 -179.026 230.222 -111 259 0 c 1
 157 0 l 1
EndSplineSet
EndChar
StartChar: less
Encoding: 30 60 32
Width: 1196
Flags: W
HStem: 226 993<1131 1342>
Fore
248 641 m 1
 284 809 l 1
 1342 1219 l 1
 1293 990 l 1
 577 724 l 1
 1180 455 l 1
 1131 226 l 1
 248 641 l 1
EndSplineSet
EndChar
StartChar: equal
Encoding: 31 61 33
Width: 1196
Flags: W
HStem: 417 218<249 1171> 812 218<333 1255>
Fore
1255 812 m 1
 287 812 l 1
 333 1030 l 1
 1301 1030 l 1
 1255 812 l 1
1171 417 m 1
 203 417 l 1
 249 635 l 1
 1217 635 l 1
 1171 417 l 1
EndSplineSet
EndChar
StartChar: greater
Encoding: 32 62 34
Width: 1196
Flags: W
HStem: 226 993<160 371>
Fore
1219 641 m 1
 160 226 l 1
 209 455 l 1
 904 724 l 1
 322 990 l 1
 371 1219 l 1
 1255 809 l 1
 1219 641 l 1
EndSplineSet
EndChar
StartChar: question
Encoding: 33 63 35
Width: 1139
Flags: HW
HStem: 0 235<471 695> 1291 213<654.8 990.2>
VStem: 1050 226<991.7 1268.6>
Fore
885 1504 m 0
 1130 1504 1276 1372 1276 1181 c 0
 1276 1021 1202 908 1061 782 c 2
 939 676 l 2
 815 568 763 441 751 361 c 1
 509 361 l 1
 577 645 690 713 810 803 c 0
 967 925 1050 1025 1050 1136 c 0
 1050 1238 956 1291 842 1291 c 0
 698 1291 587 1166 546 1046 c 1
 312 1046 l 1
 381 1300 594 1504 885 1504 c 0
421 0 m 1
 471 235 l 1
 745 235 l 1
 695 0 l 1
 421 0 l 1
EndSplineSet
EndChar
StartChar: at
Encoding: 34 64 36
Width: 2079
Flags: HW
HStem: -431 200<345.6 1440.2> -33 252<1347 1725.1> -3 241<846.5 1025.9> 849 235<936.9 1276.2> 1279 214<629.2 1787.5>
VStem: 183 231<25.1 796> 584 248<273.3 628.2> 1904 223<473.5 1188.5>
Fore
1347 -33 m 0xdf
 1262 -33 1185 -9 1185 88 c 0
 1185 98 1185 109 1187 121 c 1
 1098 38 986 -3 853 -3 c 0xbf
 638 -3 584 189 584 321 c 0
 584 695 925 1084 1241 1084 c 0
 1421 1084 1466 986 1476 949 c 1
 1476 945 1477 941 1477 938 c 1
 1541 1079 l 1
 1755 1079 l 1
 1410 268 l 1
 1411 256 1422 219 1469 219 c 0
 1666 219 1904 556 1904 831 c 0
 1904 1106 1672 1279 1287 1279 c 0
 781 1279 414 682 414 302 c 0
 414 89 513 -231 1071 -231 c 0
 1355 -231 1524 -165 1752 19 c 1
 2009 19 l 1
 1829 -239 1470 -431 1031 -431 c 0
 333 -431 183 -32 183 235 c 0
 183 748 605 1493 1419 1493 c 0
 1854 1493 2127 1246 2127 886 c 0
 2127 431 1704 -33 1347 -33 c 0xdf
832 389 m 0
 832 300 872 238 957 238 c 0
 1120 238 1257 414 1310 583 c 2
 1325 643 l 2
 1330 667 1332 688 1332 708 c 0
 1332 821 1257 849 1193 849 c 0
 996 849 832 573 832 389 c 0
EndSplineSet
EndChar
StartChar: A
Encoding: 35 65 37
Width: 1366
Flags: W
HStem: 0 21G<-2 273 1079 1368> 433 240<648 970> 1430 20G<867 1076>
Fore
867 1450 m 1
 1076 1450 l 1
 1368 0 l 1
 1079 0 l 1
 970 433 l 1
 554 433 l 1
 273 0 l 1
 -2 0 l 1
 867 1450 l 1
976 673 m 1
 895 1109 l 1
 648 673 l 1
 976 673 l 1
EndSplineSet
KernsSLIFO: 93 -37 0 0 91 -37 0 0 90 -37 0 0 61 -152 0 0 59 -76 0 0 58 -152 0 0 56 -152 0 0
EndChar
StartChar: B
Encoding: 36 66 38
Width: 1366
Flags: HW
HStem: 0 220<431 988.7> 629 213<563 975.959> 1231 219<646 1134.3>
VStem: 1113 246<172.1 693.5> 1185 239<934.3 1260.4>
Fore
164 0 m 1xf0
 472 1450 l 1
 1008 1450 l 2
 1255 1450 1424 1370 1424 1154 c 0
 1424 985 1323 836 1185 772 c 1xe8
 1301 736 1359 656 1359 531 c 0
 1359 230 1145 0 709 0 c 2
 164 0 l 1xf0
1185 1107 m 0
 1185 1225 1080 1231 899 1231 c 2
 646 1231 l 1
 563 842 l 1
 840 842 l 2
 1120 842 1185 960 1185 1107 c 0
431 220 m 1
 756 220 l 2
 935 220 1113 245 1113 488 c 0xf0
 1113 650 895 629 817 629 c 2
 518 629 l 1
 431 220 l 1
EndSplineSet
EndChar
StartChar: C
Encoding: 37 67 39
Width: 1479
Flags: HW
HStem: -10 220<543.1 1073.7> 1257 220<544.8 1288.4>
VStem: 235 247<313 955.2> 1366 230<1025.15 1230.46>
Fore
833 210 m 0
 1034 210 1222 339 1270 480 c 1
 1500 480 l 1
 1310 75 1008 -10 789 -10 c 0
 346 -10 235 282 235 525 c 0
 235 998 569 1477 1108 1477 c 0
 1398 1477 1574 1327 1596 1050 c 1
 1366 1050 l 1
 1351 1188 1235 1257 1057 1257 c 0
 663 1257 482 873 482 599 c 0
 482 379 610 210 833 210 c 0
EndSplineSet
EndChar
StartChar: D
Encoding: 38 68 40
Width: 1479
Flags: HW
HStem: 0 213<435 1207.5> 1237 213<653 1169.6>
VStem: 1317 247<644.4 1251.2>
Fore
981 1450 m 2
 1412 1450 1564 1259 1564 972 c 0
 1564 720 1445 0 697 0 c 2
 168 0 l 1
 476 1450 l 1
 981 1450 l 2
1317 895 m 0
 1317 1169 1115 1237 933 1237 c 2
 653 1237 l 1
 435 213 l 1
 720 213 l 2
 1095 213 1317 550 1317 895 c 0
EndSplineSet
EndChar
StartChar: E
Encoding: 39 69 41
Width: 1366
Flags: W
HStem: 0 229<450 1222> 621 230<582 1153> 1218 232<660 1481>
Fore
162 0 m 1
 470 1450 l 1
 1530 1450 l 1
 1481 1218 l 1
 660 1218 l 1
 582 851 l 1
 1202 851 l 1
 1153 621 l 1
 533 621 l 1
 450 229 l 1
 1271 229 l 1
 1222 0 l 1
 162 0 l 1
EndSplineSet
EndChar
StartChar: F
Encoding: 40 70 42
Width: 1251
Flags: W
HStem: 0 21G<167 406> 621 230<587 1140> 1218 232<665 1417>
Fore
167 0 m 1
 475 1450 l 1
 1466 1450 l 1
 1417 1218 l 1
 665 1218 l 1
 587 851 l 1
 1189 851 l 1
 1140 621 l 1
 538 621 l 1
 406 0 l 1
 167 0 l 1
EndSplineSet
KernsSLIFO: 37 -113 0 0 18 -227 0 0 16 -227 0 0
EndChar
StartChar: G
Encoding: 41 71 43
Width: 1479
Flags: HW
HStem: -10 220<466.4 1117.7> 464 220<1050 1263> 1236 241<657.8 1246.7>
VStem: 235 246<399.1 1059.5>
Fore
481 598 m 0
 481 445 551 210 833 210 c 0
 1052 210 1222 301 1263 464 c 1
 1004 464 l 1
 1050 684 l 1
 1549 684 l 1
 1543 636 1532 591 1520 546 c 0
 1420 175 1177 -10 789 -10 c 0
 346 -10 235 288 235 528 c 0
 235 1011 580 1477 1108 1477 c 0
 1400 1477 1574 1328 1596 1050 c 1
 1338 1050 l 1
 1312 1177 1202 1236 1053 1236 c 0
 749 1236 481 953 481 598 c 0
EndSplineSet
EndChar
StartChar: H
Encoding: 42 72 44
Width: 1479
Flags: W
HStem: 0 21G<164 404 1074 1314> 619 244<587 1206> 1430 20G<472 712 1382 1622>
Fore
164 0 m 1
 472 1450 l 1
 712 1450 l 1
 587 863 l 1
 1257 863 l 1
 1382 1450 l 1
 1622 1450 l 1
 1314 0 l 1
 1074 0 l 1
 1206 619 l 1
 536 619 l 1
 404 0 l 1
 164 0 l 1
EndSplineSet
EndChar
StartChar: I
Encoding: 43 73 45
Width: 650
Flags: W
HStem: 0 210<70 250 490 625> 1250 200<333 471 711 891>
VStem: 25 908<0 1450>
Fore
670 210 m 1
 625 0 l 1
 25 0 l 1
 70 210 l 1
 250 210 l 1
 471 1250 l 1
 291 1250 l 1
 333 1450 l 1
 933 1450 l 1
 891 1250 l 1
 711 1250 l 1
 490 210 l 1
 670 210 l 1
EndSplineSet
EndChar
StartChar: J
Encoding: 44 74 46
Width: 1024
Flags: HW
HStem: -10 225<449 671.3> 1235 215<716 908>
VStem: 142 248<200.1 405.01>
Fore
390 373 m 0
 390 240 464 215 514 215 c 0
 635 215 716 338 745 471 c 2
 908 1235 l 1
 671 1235 l 1
 716 1450 l 1
 1173 1450 l 1
 962 456 l 2
 938 345 862 -10 461 -10 c 0
 203 -10 142 125 142 284 c 0
 142 344 150 401 161 455 c 1
 398 455 l 1
 393 425 390 398 390 373 c 0
EndSplineSet
EndChar
StartChar: K
Encoding: 45 75 47
Width: 1366
Flags: W
HStem: 0 21G<150 376> 1430 20G<458 684 1330 1624>
Fore
150 0 m 1
 458 1450 l 1
 684 1450 l 1
 551 825 l 1
 1330 1450 l 1
 1624 1450 l 1
 830 806 l 1
 1346 0 l 1
 1053 -1 l 1
 609 610 l 1
 482 499 l 1
 376 0 l 1
 150 0 l 1
EndSplineSet
EndChar
StartChar: L
Encoding: 46 76 48
Width: 1139
Flags: W
HStem: 0 219<427 1060> 1430 20G<458 688>
VStem: 150 957<0 219>
Fore
150 0 m 1
 458 1450 l 1
 688 1450 l 1
 427 219 l 1
 1107 219 l 1
 1060 0 l 1
 150 0 l 1
EndSplineSet
KernsSLIFO: 93 -76 0 0 61 -152 0 0 59 -152 0 0 58 -152 0 0 56 -152 0 0
EndChar
StartChar: M
Encoding: 47 77 49
Width: 1706
Flags: W
HStem: 0 21G<152 372 676 1026 1330 1550> 1430 20G<460 668 1648 1858>
Fore
152 0 m 1
 460 1450 l 1
 668 1450 l 1
 894 202 l 1
 1648 1450 l 1
 1858 1450 l 1
 1550 0 l 1
 1330 0 l 1
 1492 762 l 1
 1026 0 l 1
 676 0 l 1
 534 762 l 1
 372 0 l 1
 152 0 l 1
EndSplineSet
EndChar
StartChar: N
Encoding: 48 78 50
Width: 1479
Flags: W
HStem: 0 21G<156 395 1071 1311> 1430 20G<464 703 1379 1619>
Fore
156 0 m 1
 464 1450 l 1
 703 1450 l 1
 1171 471 l 1
 1379 1450 l 1
 1619 1450 l 1
 1311 0 l 1
 1071 0 l 1
 602 975 l 1
 395 0 l 1
 156 0 l 1
EndSplineSet
EndChar
StartChar: O
Encoding: 49 79 51
Width: 1593
Flags: HW
HStem: -10 230<470 1448.9> 1246 232<568.8 1373.5>
VStem: 235 249<358.9 922> 1426 249<619.1 1180.7>
Fore
798 -10 m 0
 443 -10 235 201 235 519 c 0
 235 829 432 1472 1115 1478 c 0
 1563 1478 1675 1174 1675 944 c 0
 1675 564 1424 -10 798 -10 c 0
1426 896 m 0
 1426 1115 1303 1246 1068 1246 c 0
 684 1246 484 900 484 563 c 0
 484 406 557 220 847 220 c 0
 1310 220 1426 683 1426 896 c 0
EndSplineSet
EndChar
StartChar: P
Encoding: 50 80 52
Width: 1366
Flags: HW
HStem: 0 21G<158 402> 580 212<570 1202.5> 1236 214<665 1175.2>
VStem: 1246 263<854.3 1243>
Fore
1019 1450 m 2
 1387 1450 1509 1329 1509 1147 c 0
 1509 900 1366 580 851 580 c 2
 525 580 l 1
 402 0 l 1
 158 0 l 1
 466 1450 l 1
 1019 1450 l 2
1246 1074 m 0
 1246 1204 1120 1236 936 1236 c 2
 665 1236 l 1
 570 792 l 1
 845 792 l 2
 1120 792 1246 905 1246 1074 c 0
EndSplineSet
KernsSLIFO: 37 -152 0 0 18 -264 0 0 16 -264 0 0
EndChar
StartChar: Q
Encoding: 51 81 53
Width: 1659
Flags: HW
HStem: -14 189<1378.69 1486.08> -10 174<770.548 973.5> 298 205<914.863 1043.3> 1251 227<389.4 1451.5>
VStem: 235 237<344.5 746.2> 1437 237<730.3 1109.9>
Fore
1001 503 m 0x3c
 1157 503 1232 419 1250 392 c 1
 1390 526 1437 769 1437 898 c 0
 1437 1061 1363 1251 1068 1251 c 0
 546 1251 472 706 472 572 c 0
 472 397 560 314 620 280 c 1
 684 416 845 503 1001 503 c 0x3c
1674 942 m 0
 1674 722 1583 355 1360 204 c 1
 1373 185 1396 175 1429 175 c 0
 1459 175 1524 188 1581 228 c 1
 1678 90 l 1
 1589 21 1495 -14 1396 -14 c 0xbc
 1295 -14 1215 22 1175 88 c 1
 1043 12 933 -10 798 -10 c 0x7c
 443 -10 235 201 235 519 c 0
 235 812 432 1478 1115 1478 c 0
 1480 1478 1674 1264 1674 942 c 0
1098 226 m 1
 1068 273 1028 297 977 298 c 0
 934 298 833 282 775 174 c 1
 797 167 825 164 856 164 c 0x7c
 976 164 1070 206 1098 226 c 1
EndSplineSet
EndChar
StartChar: R
Encoding: 52 82 54
Width: 1400
Flags: HW
HStem: 0 21G<158 384 1072 1387> 580 206<551 786> 1239 211<647 1241.2>
VStem: 1234 274<860.2 1203>
Fore
1508 1141 m 0
 1508 925 1375 654 1051 596 c 1
 1387 0 l 1
 1072 0 l 1
 786 580 l 1
 507 580 l 1
 384 0 l 1
 158 0 l 1
 466 1450 l 1
 1019 1450 l 2
 1385 1450 1508 1327 1508 1141 c 0
1234 1073 m 0
 1234 1173 1168 1239 924 1239 c 2
 647 1239 l 1
 551 786 l 1
 832 786 l 2
 1115 786 1234 905 1234 1073 c 0
EndSplineSet
KernsSLIFO: 61 -37 0 0 59 -37 0 0 58 -37 0 0 56 -37 0 0
EndChar
StartChar: S
Encoding: 53 83 55
Width: 1366
Flags: HW
HStem: -10 224<552.8 1015.6> 1250 221<759.9 1164.2>
VStem: 187 243<204.4 490.059> 366 246<928.4 1245.6> 1113 248<266 571.5> 1198 235<1019 1220>
Fore
715 -10 m 0xd8
 259 -10 187 225 187 382 c 0
 187 420 191 460 199 502 c 1
 432 502 l 1
 431 490 430 479 430 467 c 0
 430 265 599 214 753 214 c 0
 955 214 1113 308 1113 448 c 0xe8
 1113 543 1050 574 740 667 c 0
 498 740 366 791 366 984 c 0
 366 1275 645 1471 977 1471 c 0
 1268 1471 1433 1344 1433 1059 c 0
 1433 1046 1433 1033 1432 1019 c 1
 1198 1019 l 1
 1198 1025 l 0xd4
 1198 1175 1112 1250 938 1250 c 0
 801 1250 612 1200 612 1048 c 0
 612 956 686 933 1046 816 c 0
 1198 769 1361 717 1361 526 c 0
 1361 244 1096 -10 715 -10 c 0xd8
EndSplineSet
EndChar
StartChar: T
Encoding: 54 84 56
Width: 1251
Flags: W
HStem: 0 21G<508 748> 1231 219<356 770 1010 1472>
Fore
508 0 m 1
 770 1231 l 1
 310 1231 l 1
 356 1450 l 1
 1518 1450 l 1
 1472 1231 l 1
 1010 1231 l 1
 748 0 l 1
 508 0 l 1
EndSplineSet
KernsSLIFO: 93 -113 0 0 91 -113 0 0 89 -76 0 0 87 -227 0 0 86 -76 0 0 83 -227 0 0 77 -76 0 0 73 -227 0 0 71 -227 0 0 69 -227 0 0 51 -37 0 0 37 -152 0 0 31 -227 0 0 30 -227 0 0 18 -227 0 0 17 -113 0 0 16 -227 0 0
EndChar
StartChar: U
Encoding: 55 85 57
Width: 1479
Flags: HW
HStem: -10 250<572.2 1201.4> 1430 20G<469 719 1373 1622>
VStem: 259 262<275.4 498.023>
Fore
521 473 m 0
 521 321 622 240 788 240 c 0
 1106 240 1172 504 1186 568 c 2
 1373 1450 l 1
 1622 1450 l 1
 1435 567 l 2
 1353 182 1121 -10 739 -10 c 0
 391 -10 259 145 259 377 c 0
 259 434 266 497 282 567 c 2
 469 1450 l 1
 719 1450 l 1
 532 568 l 2
 525 534 521 502 521 473 c 0
EndSplineSet
EndChar
StartChar: V
Encoding: 56 86 58
Width: 1366
Flags: W
HStem: 0 21G<577 776> 1430 20G<317 652 1331 1658>
Fore
577 0 m 1
 317 1450 l 1
 652 1450 l 1
 777 471 l 1
 1331 1450 l 1
 1658 1450 l 1
 776 0 l 1
 577 0 l 1
EndSplineSet
KernsSLIFO: 93 -76 0 0 89 -76 0 0 86 -76 0 0 83 -113 0 0 77 -37 0 0 73 -113 0 0 69 -152 0 0 37 -152 0 0 31 -76 0 0 30 -76 0 0 18 -188 0 0 17 -113 0 0 16 -188 0 0
EndChar
StartChar: W
Encoding: 57 87 59
Width: 1933
Flags: W
HStem: 0 21G<366 618 1299 1566> 1430 20G<333 587 1130 1400 1934 2205>
VStem: 333 254<1291.11 1450>
Fore
366 0 m 1
 333 1450 l 1
 587 1450 l 1
 623 519 l 1
 1130 1450 l 1
 1400 1450 l 1
 1519 519 l 1
 1934 1450 l 1
 2205 1450 l 1
 1566 0 l 1
 1299 0 l 1
 1173 999 l 1
 618 0 l 1
 366 0 l 1
EndSplineSet
KernsSLIFO: 93 -18 0 0 89 -37 0 0 86 -37 0 0 83 -37 0 0 73 -37 0 0 69 -76 0 0 37 -76 0 0 31 -37 0 0 30 -37 0 0 18 -113 0 0 17 -37 0 0 16 -113 0 0
EndChar
StartChar: X
Encoding: 58 88 60
Width: 1366
Flags: W
HStem: 0 21G<9 319 1043 1353> 1430 20G<384 694 1311 1621>
Fore
9 0 m 1
 655 756 l 1
 384 1450 l 1
 694 1450 l 1
 888 972 l 1
 1311 1450 l 1
 1621 1450 l 1
 1029 756 l 1
 1353 0 l 1
 1043 0 l 1
 797 544 l 1
 319 0 l 1
 9 0 l 1
EndSplineSet
EndChar
StartChar: Y
Encoding: 59 89 61
Width: 1366
Flags: W
HStem: 0 21G<526 810> 1431 20G<314 634 1338 1658>
Fore
526 0 m 1
 658 621 l 1
 314 1451 l 1
 634 1451 l 1
 857 887 l 1
 1338 1451 l 1
 1658 1451 l 1
 942 621 l 1
 810 0 l 1
 526 0 l 1
EndSplineSet
KernsSLIFO: 90 -113 0 0 89 -113 0 0 85 -188 0 0 84 -152 0 0 83 -188 0 0 77 -76 0 0 73 -188 0 0 69 -152 0 0 37 -152 0 0 31 -133 0 0 30 -113 0 0 18 -264 0 0 17 -188 0 0 16 -264 0 0
EndChar
StartChar: Z
Encoding: 60 90 62
Width: 1251
Flags: W
HStem: 0 230<424 1200> 1220 230<353 1144>
Fore
41 0 m 1
 91 237 l 1
 1144 1220 l 1
 304 1220 l 1
 353 1450 l 1
 1521 1450 l 1
 1472 1220 l 1
 424 230 l 1
 1249 230 l 1
 1200 0 l 1
 41 0 l 1
EndSplineSet
EndChar
StartChar: bracketleft
Encoding: 61 91 63
Width: 569
Flags: W
HStem: -407 188<312 449> 1278 188<631 808>
VStem: 52 796<-407 1466>
Fore
52 -407 m 1
 451 1466 l 1
 848 1466 l 1
 808 1278 l 1
 631 1278 l 1
 312 -219 l 1
 489 -219 l 1
 449 -407 l 1
 52 -407 l 1
EndSplineSet
EndChar
StartChar: backslash
Encoding: 62 92 64
Width: 569
Flags: W
Fore
381 -25 m 1
 278 1491 l 1
 502 1491 l 1
 604 -25 l 1
 381 -25 l 1
EndSplineSet
EndChar
StartChar: bracketright
Encoding: 63 93 65
Width: 569
Flags: W
HStem: -407 188<-8 171> 1277 189<351 489>
VStem: -48 796<-407 1466>
Fore
349 -407 m 1
 -48 -407 l 1
 -8 -219 l 1
 171 -219 l 1
 489 1277 l 1
 310 1277 l 1
 351 1466 l 1
 748 1466 l 1
 349 -407 l 1
EndSplineSet
EndChar
StartChar: asciicircum
Encoding: 64 94 66
Width: 961
Flags: W
VStem: 201 853<690 690>
Fore
435 690 m 1
 201 690 l 1
 704 1491 l 1
 889 1491 l 1
 1054 690 l 1
 823 690 l 1
 736 1209 l 1
 435 690 l 1
EndSplineSet
EndChar
StartChar: underscore
Encoding: 65 95 67
Width: 1139
Flags: W
HStem: -427 190<-81 1071>
Fore
-122 -427 m 1
 -81 -237 l 1
 1112 -237 l 1
 1071 -427 l 1
 -122 -427 l 1
EndSplineSet
EndChar
StartChar: grave
Encoding: 66 96 68
Width: 682
Flags: W
HStem: 1454 20G<373 673>
VStem: 373 376<1194 1474>
Fore
749 1194 m 1
 545 1194 l 1
 373 1474 l 1
 673 1474 l 1
 749 1194 l 1
EndSplineSet
EndChar
StartChar: a
Encoding: 67 97 69
Width: 1139
Flags: HW
HStem: -24 179<432 617.9> 876 210<579.7 894.8>
VStem: 126 234<150.5 393.3> 928 239<742 861.6>
Fore
266 759 m 1
 387 1044 634 1086 815 1086 c 0
 1005 1086 1167 1037 1167 851 c 0
 1167 820 1158 765 1141 685 c 2
 1090 445 l 2
 1045 236 1033 146 1033 118 c 0
 1033 77 1039 38 1052 0 c 1
 814 0 l 1
 812 19 810 39 810 59 c 0
 810 71 810 83 812 96 c 1
 684 5 575 -24 432 -24 c 0
 179 -24 126 116 126 210 c 0
 126 351 209 506 430 573 c 0
 584 622 719 607 919 674 c 1
 922 696 928 717 928 742 c 0
 928 834 860 876 744 876 c 0
 617 876 518 816 473 729 c 1
 266 759 l 1
360 261 m 0
 360 176 454 155 520 155 c 0
 695 155 783 251 812 291 c 0
 844 329 864 416 879 487 c 1
 657 412 360 458 360 261 c 0
EndSplineSet
EndChar
StartChar: b
Encoding: 68 98 70
Width: 1139
Flags: HW
HStem: -10 208<466.7 960.7> 870 216<722.9 922.2> 1446 20G<446 670>
VStem: 975 214<433.9 860.3>
Fore
594 -10 m 0
 438 -10 370 74 363 84 c 1
 345 0 l 1
 134 0 l 1
 446 1466 l 1
 670 1466 l 1
 568 990 l 1
 660 1054 749 1086 836 1086 c 0
 1059 1086 1189 939 1189 708 c 0
 1189 389 978 -10 594 -10 c 0
774 870 m 0
 592 870 445 641 445 412 c 0
 445 286 503 198 624 198 c 0
 883 198 975 484 975 651 c 0
 975 812 888 870 774 870 c 0
EndSplineSet
EndChar
StartChar: c
Encoding: 69 99 71
Width: 1024
Flags: HW
HStem: -10 210<397.3 810.7> 879 207<417.4 890.6>
VStem: 175 230<290 615> 939 222<697.524 843.1>
Fore
604 200 m 0
 763 200 845 284 874 403 c 1
 1091 403 l 1
 1016 96 783 -10 561 -10 c 0
 299 -10 175 161 175 376 c 0
 175 607 321 1086 795 1086 c 0
 1083 1086 1161 908 1161 784 c 0
 1161 756 1157 727 1151 696 c 1
 936 696 l 1
 938 708 939 719 939 730 c 0
 939 817 860 879 758 879 c 0
 496 879 405 570 405 420 c 0
 405 320 445 200 604 200 c 0
EndSplineSet
EndChar
StartChar: d
Encoding: 70 100 72
Width: 1139
Flags: HW
HStem: -10 208<364.6 665.4> 870 216<361.5 862.1> 1446 20G<1077 1301>
VStem: 164 211<293 575.1>
Fore
164 372 m 0
 164 720 391 1086 749 1086 c 0
 836 1086 911 1054 975 990 c 1
 1077 1466 l 1
 1301 1466 l 1
 989 0 l 1
 778 0 l 1
 796 84 l 1
 724 28 633 -10 525 -10 c 0
 236 -10 164 206 164 372 c 0
583 198 m 0
 812 198 902 493 902 636 c 0
 902 727 865 870 719 870 c 0
 444 870 375 540 375 423 c 0
 375 323 415 198 583 198 c 0
EndSplineSet
EndChar
StartChar: e
Encoding: 71 101 73
Width: 1139
Flags: HW
HStem: -10 214<450.8 786.2> 485 190<461 959> 875 211<540.9 949.1>
VStem: 168 243<251.5 501.122> 961 226<665.83 838>
Fore
625 204 m 0
 749 204 833 252 878 333 c 1
 1119 333 l 1
 1033 124 839 -10 579 -10 c 0
 250 -10 168 184 168 361 c 0
 168 638 343 1086 802 1086 c 0
 1110 1086 1187 872 1187 700 c 0
 1187 614 1172 542 1156 485 c 1
 415 485 l 1
 412 464 411 445 411 427 c 0
 411 292 491 204 625 204 c 0
961 708 m 0
 961 808 905 875 758 875 c 0
 591 875 481 765 461 675 c 1
 959 675 l 1
 960 687 961 698 961 708 c 0
EndSplineSet
EndChar
StartChar: f
Encoding: 72 102 74
Width: 569
Flags: HW
HStem: 0 21G<153 380> 757 198<222 314 583 697> 1304 211<698.2 860.925>
VStem: 153 803<0 1488>
Fore
153 0 m 1
 314 757 l 1
 180 757 l 1
 222 955 l 1
 356 955 l 1
 403 1175 l 2
 471 1497 718 1515 784 1515 c 0
 851 1515 909 1506 956 1488 c 1
 911 1277 l 1
 850 1297 836 1304 793 1304 c 0
 703 1304 643 1239 618 1121 c 2
 583 955 l 1
 739 955 l 1
 697 757 l 1
 541 757 l 1
 380 0 l 1
 153 0 l 1
EndSplineSet
KernsSLIFO: 74 -37 0 0
EndChar
StartChar: g
Encoding: 73 103 75
Width: 1139
Flags: HW
HStem: -435 219<300.8 614.6> 0 247<440.9 658.9> 839 247<405.3 866.8>
VStem: 162 255<271.4 583.4>
Fore
72 -179 m 0
 72 -137 79 -106 86 -74 c 1
 299 -74 l 1
 298 -81 297 -88 297 -95 c 0
 297 -143 341 -216 475 -216 c 0
 632 -216 732 -139 776 16 c 2
 790 75 l 1
 716 25 628 0 525 0 c 0
 234 0 162 218 162 378 c 0
 162 716 391 1086 757 1086 c 0
 898 1086 993 1049 1043 974 c 1
 1062 1062 l 1
 1228 1062 l 1
 1033 144 l 2
 979 -107 892 -274 770 -356 c 0
 690 -412 572 -435 430 -435 c 0
 121 -435 72 -281 72 -179 c 0
716 839 m 0
 477 839 417 548 417 430 c 0
 417 308 476 247 593 247 c 0
 738 247 830 345 872 541 c 0
 881 584 886 622 886 656 c 0
 886 771 832 839 716 839 c 0
EndSplineSet
EndChar
StartChar: h
Encoding: 74 104 76
Width: 1139
Flags: HW
HStem: 0 21G<135 365 770 1000> 832 263<696.5 918.6> 1446 20G<447 677>
VStem: 135 1008<0 673>
Fore
135 0 m 1
 447 1466 l 1
 677 1466 l 1
 579 1008 l 1
 643 1066 728 1095 833 1095 c 0
 1083 1095 1200 940 1143 673 c 2
 1000 0 l 1
 770 0 l 1
 903 624 l 2
 935 775 885 832 773 832 c 0
 625 832 510 677 478 532 c 2
 365 0 l 1
 135 0 l 1
EndSplineSet
EndChar
StartChar: i
Encoding: 75 105 77
Width: 455
Flags: W
HStem: 0 21G<106 346> 1042 20G<332 572> 1218 248<423 601>
VStem: 106 548<0 1466>
Fore
370 1218 m 1
 423 1466 l 1
 654 1466 l 1
 601 1218 l 1
 370 1218 l 1
106 0 m 1
 332 1062 l 1
 572 1062 l 1
 346 0 l 1
 106 0 l 1
EndSplineSet
EndChar
StartChar: j
Encoding: 76 106 78
Width: 455
Flags: HW
HStem: -428 215<-139.552 30> 1042 20G<338 566> 1220 246<424 599>
VStem: -182 834<-412 1466>
Fore
371 1220 m 1
 424 1466 l 1
 652 1466 l 1
 599 1220 l 1
 371 1220 l 1
-182 -412 m 1
 -138 -205 l 1
 -104 -210 -83 -213 -74 -213 c 0
 6 -213 73 -182 108 -20 c 2
 338 1062 l 1
 566 1062 l 1
 328 -58 l 2
 257 -390 88 -428 -26 -428 c 0
 -83 -428 -135 -423 -182 -412 c 1
EndSplineSet
EndChar
StartChar: k
Encoding: 77 107 79
Width: 1024
Flags: W
HStem: 0 21G<136 356 740 1016> 1042 20G<922 1201> 1446 20G<448 668>
Fore
136 0 m 1
 448 1466 l 1
 668 1466 l 1
 501 684 l 1
 922 1062 l 1
 1201 1062 l 1
 727 636 l 1
 1016 0 l 1
 740 0 l 1
 546 484 l 1
 439 390 l 1
 356 0 l 1
 136 0 l 1
EndSplineSet
EndChar
StartChar: l
Encoding: 78 108 80
Width: 455
Flags: W
HStem: 0 21G<104 340> 1446 20G<416 652>
VStem: 104 548<0 1466>
Fore
104 0 m 1
 416 1466 l 1
 652 1466 l 1
 340 0 l 1
 104 0 l 1
EndSplineSet
EndChar
StartChar: m
Encoding: 79 109 81
Width: 1706
Flags: HW
HStem: 0 21G<135 362 742 986 1356 1574> 842 244<699.5 853.2 1331.4 1486.4>
Fore
1120 948 m 1
 1205 1051 1365 1086 1477 1086 c 0
 1655 1086 1743 1007 1743 849 c 0
 1743 801 1736 765 1729 729 c 2
 1574 0 l 1
 1356 0 l 1
 1498 669 l 2
 1501 688 1503 705 1503 721 c 0
 1503 800 1463 842 1385 842 c 0
 1239 842 1150 767 1117 617 c 2
 986 0 l 1
 742 0 l 1
 889 690 l 2
 892 704 893 718 893 730 c 0
 893 810 831 842 757 842 c 0
 590 842 516 714 479 551 c 2
 362 0 l 1
 135 0 l 1
 361 1062 l 1
 569 1062 l 1
 551 978 l 1
 634 1050 734 1086 849 1086 c 0
 1053 1086 1110 987 1120 948 c 1
EndSplineSet
EndChar
StartChar: n
Encoding: 80 110 82
Width: 1139
Flags: HW
HStem: 0 21G<135 368 776 1000> 828 267<703 934.312>
VStem: 135 1008<0 673>
Fore
583 1012 m 1
 661.522 1072.89 733 1095 833 1095 c 0
 1083.18 1095 1199.91 940.218 1143 673 c 2
 1000 0 l 1
 776 0 l 1
 909 624 l 2
 937.501 758.191 896.855 828 772 828 c 0
 597.4 828 512.551 682.994 481 532 c 2
 368 0 l 1
 135 0 l 1
 361 1064 l 1
 594 1064 l 1
 583 1012 l 1
EndSplineSet
EndChar
StartChar: o
Encoding: 81 111 83
Width: 1139
Flags: HW
HStem: -11 217<399.4 740.8> 864 222<393.8 919>
VStem: 162 245<278.1 575.8> 948 249<588.561 822.2>
Fore
162 364 m 0
 162 581 289 1086 797 1086 c 0
 1117 1086 1197 872 1197 702 c 0
 1197 654 1191 602 1179 546 c 0
 1067 20 700 -11 564 -11 c 0
 242 -11 162 185 162 364 c 0
750 864 m 0
 476 864 407 538 407 412 c 0
 407 309 448 206 610 206 c 0
 882 206 948 519 948 648 c 0
 948 782 880 864 750 864 c 0
EndSplineSet
EndChar
StartChar: p
Encoding: 82 112 84
Width: 1139
Flags: HW
HStem: -10 216<475.9 950.2> 878 208<688.2 973.1>
VStem: 962 211<455.4 786.9>
Fore
1173 704 m 0
 1173 357 949 -10 589 -10 c 0
 502 -10 427 22 362 86 c 1
 261 -390 l 1
 37 -390 l 1
 349 1076 l 1
 560 1076 l 1
 542 992 l 1
 615 1048 717 1086 813 1086 c 0
 1101 1086 1173 872 1173 704 c 0
756 878 m 0
 530 878 435 590 435 441 c 0
 435 347 472 206 620 206 c 0
 874 206 962 501 962 653 c 0
 962 756 923 878 756 878 c 0
EndSplineSet
EndChar
StartChar: q
Encoding: 83 113 85
Width: 1139
Flags: HW
HStem: -10 216<387.7 648.1> 878 208<409 903>
VStem: 181 215<294 639.8>
Fore
777 1086 m 0
 880 1086 957 1052 1008 992 c 1
 1026 1076 l 1
 1237 1076 l 1
 925 -390 l 1
 701 -390 l 1
 802 86 l 1
 711 22 622 -10 535 -10 c 0
 252 -10 181 206 181 368 c 0
 181 698 400 1086 777 1086 c 0
597 206 m 0
 779 206 925 434 925 664 c 0
 925 792 867 878 747 878 c 0
 487 878 396 590 396 424 c 0
 396 324 436 206 597 206 c 0
EndSplineSet
EndChar
StartChar: r
Encoding: 84 114 86
Width: 682
Flags: HW
HStem: 0 21G<133 380> 828 249<614 809>
VStem: 133 796<0 1028>
Fore
563 947 m 1
 593 986 659 1077 809 1077 c 0
 870 1077 897 1052 929 1028 c 1
 816 789 l 1
 793 804 781 828 741 828 c 0
 556 828 511 619 483 484 c 2
 380 0 l 1
 133 0 l 1
 359 1062 l 1
 588 1062 l 1
 563 947 l 1
EndSplineSet
KernsSLIFO: 18 -113 0 0 16 -113 0 0
EndChar
StartChar: s
Encoding: 85 115 87
Width: 1024
Flags: HW
HStem: -11 212<349.7 651.3> 875 211<547.8 863.7>
VStem: 249 244<663.1 863.3> 779 244<195.1 427.8>
Fore
515 -11 m 0
 189 -11 134 169 134 289 c 0
 134 311 136 334 139 358 c 1
 367 358 l 1
 367 353 366 348 366 343 c 0
 366 286 398 201 559 201 c 0
 630 201 779 229 779 342 c 0
 779 408 738 420 617 443 c 0
 366 491 249 546 249 700 c 0
 249 928 449 1086 715 1086 c 0
 1026 1086 1075 938 1075 839 c 0
 1075 816 1072 791 1067 764 c 1
 841 764 l 1
 842 769 842 775 842 780 c 0
 842 818 822 875 683 875 c 0
 579 875 493 839 493 758 c 0
 493 685 546 676 656 654 c 0
 903 607 1023 552 1023 399 c 0
 1023 189 829 -11 515 -11 c 0
EndSplineSet
EndChar
StartChar: t
Encoding: 86 116 88
Width: 569
Flags: HW
HStem: -13 204<408 525.292> 892 196<249 330 603 687>
VStem: 183 545<148 1088>
Fore
515 191 m 0
 516 191 534 194 570 199 c 1
 554 2 l 1
 504 -8 455 -13 408 -13 c 0
 319 -13 266 -1 242 17 c 0
 201 47 183 88 183 148 c 0
 183 187 191 241 206 311 c 2
 330 892 l 1
 208 892 l 1
 249 1088 l 1
 371 1088 l 1
 445 1433 l 1
 677 1433 l 1
 603 1088 l 1
 728 1088 l 1
 687 892 l 1
 562 892 l 1
 436 301 l 2
 412 190 484 191 515 191 c 0
EndSplineSet
EndChar
StartChar: u
Encoding: 87 117 89
Width: 1139
Flags: HW
HStem: -10 253<489.8 642.951> 1065 20G<335 561 957 1200>
VStem: 177 243<236.7 394>
Fore
420 394 m 0
 420 273 512 243 586 243 c 0
 718 243 794 316 823 456 c 2
 957 1085 l 1
 1200 1085 l 1
 969 0 l 1
 789 0 l 1
 803 64 l 1
 728 -2 576 -10 535 -10 c 0
 224 -10 177 169 177 288 c 0
 177 326 182 367 192 412 c 2
 335 1085 l 1
 561 1085 l 1
 428 461 l 2
 423 437 420 415 420 394 c 0
EndSplineSet
EndChar
StartChar: v
Encoding: 88 118 90
Width: 1024
Flags: W
HStem: 0 21G<429 599> 1042 20G<252 494 986 1226>
Fore
429 0 m 1
 252 1062 l 1
 494 1062 l 1
 597 360 l 1
 986 1062 l 1
 1226 1062 l 1
 599 0 l 1
 429 0 l 1
EndSplineSet
KernsSLIFO: 18 -152 0 0 16 -152 0 0
EndChar
StartChar: w
Encoding: 89 119 91
Width: 1479
Flags: W
HStem: 0 21G<296 544 956 1200> 1042 20G<232 482 874 1058 1462 1689>
Fore
296 0 m 1
 232 1062 l 1
 482 1062 l 1
 501 364 l 1
 874 1062 l 1
 1058 1062 l 1
 1146 364 l 1
 1462 1062 l 1
 1689 1062 l 1
 1200 0 l 1
 956 0 l 1
 947 149 922 374 884 676 c 1
 544 0 l 1
 296 0 l 1
EndSplineSet
KernsSLIFO: 18 -113 0 0 16 -113 0 0
EndChar
StartChar: x
Encoding: 90 120 92
Width: 1024
Flags: W
HStem: 0 21G<15 284 732 1009> 1042 20G<270 550 926 1207>
Fore
15 0 m 1
 463 552 l 1
 270 1062 l 1
 550 1062 l 1
 657 744 l 1
 926 1062 l 1
 1207 1062 l 1
 776 562 l 1
 1009 0 l 1
 732 0 l 1
 583 369 l 1
 284 0 l 1
 15 0 l 1
EndSplineSet
EndChar
StartChar: y
Encoding: 91 121 93
Width: 1024
Flags: HW
HStem: -422 216<81.1007 355.9> 1042 20G<259 518 970 1232>
Fore
40 -409 m 1
 66 -192 l 1
 98 -201 133 -206 170 -206 c 0
 313 -206 423 -117 408 0 c 2
 259 1062 l 1
 518 1062 l 1
 604 372 l 1
 970 1062 l 1
 1232 1062 l 1
 624 0 l 1
 555 -217 396 -422 149 -422 c 0
 109 -422 68 -421 40 -409 c 1
EndSplineSet
KernsSLIFO: 18 -152 0 0 16 -152 0 0
EndChar
StartChar: z
Encoding: 92 122 94
Width: 1024
Flags: W
HStem: 0 212<389 980> 864 198<286 848>
Fore
40 0 m 1
 85 212 l 1
 848 864 l 1
 244 864 l 1
 286 1062 l 1
 1174 1062 l 1
 1132 864 l 1
 389 212 l 1
 1025 212 l 1
 980 0 l 1
 40 0 l 1
EndSplineSet
EndChar
StartChar: braceleft
Encoding: 93 123 95
Width: 684
Flags: HW
HStem: 449 163<152 250.8> 1280 211<797.378 953>
VStem: 233 235<-222 -46.5> 310 219<131 413.1>
Fore
310 288 m 0xd0
 310 417 228 448 152 449 c 1
 187 612 l 1
 540 619 419 1196 630 1401 c 0
 731 1496 817 1491 953 1491 c 1
 908 1280 l 1
 879 1280 833 1281 821 1273 c 0
 677 1201 719 867 581 676 c 0
 537 617 501 566 421 530 c 1
 492 495 529 384 529 287 c 0xd0
 529 167 468 -30 468 -117 c 0
 468 -158 472 -212 560 -212 c 2
 591 -212 l 1
 544 -431 l 1
 488 -431 l 2
 324 -431 233 -382 233 -222 c 0xe0
 233 -87 310 163 310 288 c 0xd0
EndSplineSet
EndChar
StartChar: bar
Encoding: 94 124 96
Width: 532
Flags: W
VStem: 48 659<-431 1491>
Fore
48 -431 m 1
 457 1491 l 1
 707 1491 l 1
 298 -431 l 1
 48 -431 l 1
EndSplineSet
EndChar
StartChar: braceright
Encoding: 95 125 97
Width: 684
Flags: HW
HStem: -431 219<-45 108.211> 449 163<588.3 756> 1280 211<319 426.556>
VStem: 379 219<681.2 926.9> 442 234<1133.2 1284>
Fore
598 767 m 0xf0
 598 701 627 615 756 612 c 1
 721 449 l 1
 514 445 475 253 432 63 c 0
 385 -153 357 -358 138 -420 c 0
 104 -430 16 -432 -45 -431 c 1
 2 -212 l 1
 64 -215 77 -220 128 -174 c 0
 223 -89 199 254 363 426 c 0
 400 465 431 511 488 530 c 1
 379 588 379 742 379 763 c 0xf0
 379 905 442 1104 442 1185 c 0
 443 1232 431 1260 404 1273 c 0
 389 1280 350 1281 319 1280 c 1
 364 1491 l 1
 532 1491 602 1483 649 1401 c 0
 667 1369 676 1331 676 1284 c 0xe8
 676 1168 598 890 598 767 c 0xf0
EndSplineSet
EndChar
StartChar: asciitilde
Encoding: 96 126 98
Width: 1196
Flags: HW
HStem: 531 237<838.473 1102.52> 665 237<407.5 701.009>
Fore
946 531 m 0x80
 747.866 531 652.083 665 489 665 c 0
 415.903 665 349.084 648.185 199 529 c 1
 253 782 l 1
 341 862 442 902 557 902 c 0x40
 750.666 902 879.21 768 1015 768 c 0
 1124.52 768 1243.64 853.273 1302 905 c 1
 1247 645 l 1
 1156.23 573.811 1066.4 531 946 531 c 0x80
EndSplineSet
EndChar
StartChar: exclamdown
Encoding: 98 161 100
Width: 680
Flags: W
HStem: 0 21G<228 452> 1059 20G<485 651> 1278 211<554 714>
VStem: 228 530<0 1489>
Fore
714 1278 m 1
 510 1278 l 1
 554 1489 l 1
 758 1489 l 1
 714 1278 l 1
452 0 m 1
 228 0 l 1
 485 1079 l 1
 651 1079 l 1
 452 0 l 1
EndSplineSet
EndChar
StartChar: cent
Encoding: 99 162 101
Width: 1118
Flags: HW
HStem: 1455 20G<871 985>
VStem: 213 194<215.8 605.8>
Fore
701 141 m 1
 841 153 977 248 1025 281 c 1
 1035 281 l 1
 993 83 l 1
 811 7 728 4 671 1 c 1
 594 -361 l 1
 480 -361 l 1
 557 2 l 1
 338 29 213 156 213 388 c 0
 213 698 401 1070 794 1115 c 1
 871 1475 l 1
 985 1475 l 1
 908 1116 l 1
 1024 1112 1124 1078 1195 1037 c 1
 1153 837 l 1
 1143 837 l 1
 1062 918 986 961 879 977 c 1
 701 141 l 1
763 971 m 1
 484 922 407 559 407 403 c 0
 407 259 475 166 588 146 c 1
 763 971 l 1
EndSplineSet
EndChar
StartChar: sterling
Encoding: 100 163 102
Width: 1118
Flags: HW
HStem: 0 171<297 1031> 613 138<290 421 643 977> 1351 167<772.2 1098.61>
Fore
1260 1264 m 1
 1163 1341 1060 1351 1014 1351 c 0
 828 1351 741 1215 707 1052 c 2
 643 751 l 1
 1007 751 l 1
 977 613 l 1
 613 613 l 1
 600 552 l 2
 565 383 440 256 300 182 c 1
 297 171 l 1
 1067 171 l 1
 1031 0 l 1
 89 0 l 1
 133 207 l 1
 282 248 366 355 421 613 c 1
 260 613 l 1
 290 751 l 1
 451 751 l 1
 519 1071 l 2
 571 1318 763 1518 1031 1518 c 0
 1096 1518 1155 1518 1313 1470 c 1
 1270 1264 l 1
 1260 1264 l 1
EndSplineSet
EndChar
StartChar: currency
Encoding: 101 164 103
Width: 1118
Flags: HW
HStem: 326 138<544.5 726.5> 858 138<692.781 865.5>
VStem: 359 144<546.391 734.1> 897 147<602.9 777.582>
Fore
1044 729 m 0
 1044 632 994 541 946 486 c 1
 1115 272 l 1
 986 166 l 1
 817 378 l 1
 752 343 704 326 629 326 c 0
 564 326 503 351 466 379 c 1
 205 164 l 1
 123 273 l 1
 380 486 l 1
 366 520 359 564 359 595 c 0
 359 702 411 781 455 835 c 1
 288 1051 l 1
 418 1157 l 1
 587 944 l 1
 652 981 721 996 772 996 c 0
 846 996 904 967 937 945 c 1
 1194 1157 l 1
 1281 1052 l 1
 1021 836 l 1
 1038 796 1044 761 1044 729 c 0
659 464 m 0
 776 464 897 576 897 705 c 0
 897 788 837 858 742 858 c 0
 625 858 503 745 503 619 c 0
 503 536 562 464 659 464 c 0
EndSplineSet
EndChar
StartChar: yen
Encoding: 102 165 104
Width: 1118
Flags: W
HStem: 0 21G<465 653> 440 138<248 559 774 1087>
Fore
1375 1489 m 1
 795 678 l 1
 774 578 l 1
 1116 578 l 1
 1087 440 l 1
 747 440 l 1
 653 0 l 1
 465 0 l 1
 559 440 l 1
 219 440 l 1
 248 578 l 1
 590 578 l 1
 607 657 l 1
 372 1489 l 1
 582 1489 l 1
 741 850 l 1
 1174 1489 l 1
 1375 1489 l 1
EndSplineSet
EndChar
StartChar: brokenbar
Encoding: 103 166 105
Width: 783
Flags: W
VStem: 225 581<-392 1556>
Fore
636 758 m 1
 469 758 l 1
 639 1556 l 1
 806 1556 l 1
 636 758 l 1
392 -392 m 1
 225 -392 l 1
 394 406 l 1
 561 406 l 1
 392 -392 l 1
EndSplineSet
EndChar
StartChar: section
Encoding: 104 167 106
Width: 1118
Flags: HW
HStem: -385 165<287.8 666.1> 1355 164<736.4 1035.72>
VStem: 223 202<418 676.7> 384 200<910.8 1304.7> 774 201<-156.6 67> 934 201<462.9 756.9>
Fore
734 315 m 1xe4
 802 351 934 456 934 610 c 0
 934 723 844 751 716 788 c 2
 624 819 l 1
 509 758 425 641 425 522 c 0
 425 442 469 402 570 369 c 2
 734 315 l 1xe4
975 67 m 0xc8
 975 -105 828 -385 408 -385 c 0
 286 -385 187 -361 102 -327 c 1
 144 -133 l 1
 154 -133 l 1
 214 -169 328 -220 462 -220 c 0
 619 -220 774 -151 774 14 c 0
 774 51 766 111 627 154 c 2
 501 192 l 2
 349 238 223 297 223 455 c 0xe8
 223 642 342 761 502 865 c 1
 460 891 384 948 384 1072 c 0
 384 1251 534 1519 951 1519 c 0
 1012 1519 1114 1517 1257 1462 c 1
 1216 1268 l 1
 1206 1268 l 1
 1123 1314 1029 1355 895 1355 c 0
 773 1355 584 1309 584 1124 c 0
 584 897 1135 1010 1135 680 c 0xd4
 1135 513 1020 373 856 270 c 1
 923 230 975 173 975 67 c 0xc8
EndSplineSet
EndChar
StartChar: dieresis
Encoding: 105 168 107
Width: 1118
Flags: W
HStem: 1304 195<572 731 985 1144>
VStem: 530 656<1304 1499>
Fore
1144 1304 m 1
 943 1304 l 1
 985 1499 l 1
 1186 1499 l 1
 1144 1304 l 1
731 1304 m 1
 530 1304 l 1
 572 1499 l 1
 773 1499 l 1
 731 1304 l 1
EndSplineSet
EndChar
StartChar: copyright
Encoding: 106 169 108
Width: 1902
Flags: HW
HStem: -210 110<661.9 1216.7> 180 147<833.7 1143.5> 996 147<827.5 1331.9> 1409 110<981.9 1520.1>
VStem: 204 120<307.3 610.2> 654 188<406.2 719.5> 1859 117<702 1002.4>
Fore
1976 845 m 0
 1976 735 1952 355 1571 44 c 0
 1367 -126 1145 -210 906 -210 c 0
 667 -210 481 -126 349 44 c 0
 252 166 204 306 204 465 c 0
 204 577 228 953 609 1266 c 0
 813 1435 1035 1519 1274 1519 c 0
 1513 1519 1699 1435 1831 1266 c 0
 1928 1144 1976 1004 1976 845 c 0
931 -100 m 0
 1415 -100 1859 342 1859 823 c 0
 1859 961 1817 1083 1735 1188 c 0
 1619 1336 1458 1409 1251 1409 c 0
 1044 1409 853 1336 675 1188 c 0
 343 916 324 582 324 488 c 0
 324 349 365 227 448 121 c 0
 563 -26 724 -100 931 -100 c 0
1056 327 m 0
 1194 327 1329 418 1350 434 c 1
 1366 434 l 1
 1328 255 l 1
 1179 194 1115 180 1020 180 c 0
 795 180 654 294 654 513 c 0
 654 762 812 1143 1225 1143 c 0
 1335 1143 1430 1110 1501 1070 c 1
 1463 889 l 1
 1447 889 l 1
 1397 941 1301 996 1198 996 c 0
 913 996 842 679 842 544 c 0
 842 438 885 327 1056 327 c 0
EndSplineSet
EndChar
StartChar: ordfeminine
Encoding: 107 170 109
Width: 1010
Flags: HW
HStem: 541 155<497.2 631.034> 1365 154<664.75 934.5>
VStem: 284 178<700.1 882.7> 970 169<1200.63 1369.7>
Fore
806 1519 m 0
 1052 1519 1139 1428 1139 1290 c 0
 1139 1261 1135 1229 1128 1194 c 2
 994 566 l 1
 828 566 l 1
 848 657 l 1
 788 618 l 2
 652 533 538 541 519 541 c 0
 362 541 284 646 284 767 c 0
 284 856 323 1029 516 1112 c 0
 596 1147 711 1172 960 1184 c 1
 964 1204 970 1227 970 1254 c 0
 970 1343 897 1365 772 1365 c 0
 714 1365 655 1360 481 1304 c 1
 466 1304 l 1
 502 1474 l 1
 531 1483 684 1519 806 1519 c 0
462 808 m 0
 462 725 523 696 609 696 c 0
 652 696 736 701 878 802 c 1
 930 1045 l 1
 696 1028 462 1020 462 808 c 0
EndSplineSet
EndChar
StartChar: guillemotleft
Encoding: 108 171 110
Width: 1174
Flags: W
HStem: 162 980<647 856>
Fore
1084 191 m 1
 685 610 l 1
 703 695 l 1
 1280 1113 l 1
 1240 925 l 1
 865 652 l 1
 1124 379 l 1
 1084 191 l 1
647 162 m 1
 232 608 l 1
 251 697 l 1
 856 1142 l 1
 814 946 l 1
 421 652 l 1
 689 358 l 1
 647 162 l 1
EndSplineSet
EndChar
StartChar: logicalnot
Encoding: 109 172 111
Width: 1490
Flags: W
HStem: 602 160<319 1280>
Fore
1335 57 m 1
 1164 57 l 1
 1280 602 l 1
 285 602 l 1
 319 762 l 1
 1485 762 l 1
 1335 57 l 1
EndSplineSet
EndChar
StartChar: registered
Encoding: 111 174 113
Width: 1902
Flags: HW
HStem: -210 110<661.9 1216.7> 570 126<963 1059> 1005 125<1029 1266.2> 1409 110<981.9 1520.1>
VStem: 204 120<307.3 610.2> 1309 187<834.5 1012.6> 1859 117<702 1002.4>
Fore
1976 845 m 0
 1976 735 1952 355 1571 44 c 0
 1367 -126 1145 -210 906 -210 c 0
 667 -210 481 -126 349 44 c 0
 252 166 204 306 204 465 c 0
 204 577 228 953 609 1266 c 0
 813 1435 1035 1519 1274 1519 c 0
 1513 1519 1699 1435 1831 1266 c 0
 1928 1144 1976 1004 1976 845 c 0
931 -100 m 0
 1415 -100 1859 342 1859 823 c 0
 1859 961 1817 1083 1735 1188 c 0
 1619 1336 1458 1409 1251 1409 c 0
 1044 1409 853 1336 675 1188 c 0
 343 916 324 582 324 488 c 0
 324 349 365 227 448 121 c 0
 563 -26 724 -100 931 -100 c 0
1496 946 m 0
 1496 814 1420 685 1233 615 c 1
 1494 215 l 1
 1267 215 l 1
 1059 570 l 1
 936 570 l 1
 861 215 l 1
 696 215 l 1
 890 1130 l 1
 1169 1130 l 2
 1326 1130 1496 1110 1496 946 c 0
1061 696 m 2
 1286 696 1309 851 1309 906 c 0
 1309 988 1238 1005 1144 1005 c 2
 1029 1005 l 1
 963 696 l 1
 1061 696 l 2
EndSplineSet
EndChar
StartChar: macron
Encoding: 112 175 114
Width: 1118
Flags: W
HStem: 1659 130<364 1487>
Fore
1487 1659 m 1
 337 1659 l 1
 364 1789 l 1
 1514 1789 l 1
 1487 1659 l 1
EndSplineSet
EndChar
StartChar: degree
Encoding: 113 176 115
Width: 964
Flags: HW
HStem: 755 152<526.8 873.9> 1363 152<569.2 944.9>
VStem: 332 161<959.5 1263.7> 953 161<1003.1 1287.8>
Fore
1114 1222 m 0
 1114 982 899 755 642 755 c 0
 434 755 332 903 332 1048 c 0
 332 1286 546 1515 804 1515 c 0
 1010 1515 1114 1370 1114 1222 c 0
675 907 m 0
 828 907 953 1046 953 1189 c 0
 953 1265 905 1363 772 1363 c 0
 616 1363 493 1222 493 1083 c 0
 493 988 561 907 675 907 c 0
EndSplineSet
EndChar
StartChar: plusminus
Encoding: 114 177 116
Width: 1490
Flags: W
HStem: 159 158<229 729 895 1362> 739 158<353 819 1019 1485>
Fore
1362 159 m 1
 196 159 l 1
 229 317 l 1
 729 317 l 1
 819 739 l 1
 319 739 l 1
 353 897 l 1
 853 897 l 1
 960 1402 l 1
 1126 1402 l 1
 1019 897 l 1
 1519 897 l 1
 1485 739 l 1
 985 739 l 1
 895 317 l 1
 1395 317 l 1
 1362 159 l 1
EndSplineSet
EndChar
StartChar: uni00B2
Encoding: 115 178 117
Width: 1010
Flags: HW
HStem: 566 144<524 986> 1371 148<664.9 849.4>
VStem: 884 191<1206.8 1362.5>
Fore
804 1519 m 0
 1028 1519 1075 1391 1075 1305 c 0
 1075 1087 865 931 666 802 c 2
 524 710 l 1
 1017 710 l 1
 986 566 l 1
 305 566 l 1
 338 718 l 1
 509 832 l 2
 654 927 775 1035 817 1088 c 0
 867 1151 884 1234 884 1265 c 0
 884 1340 826 1371 748 1371 c 0
 638 1371 516 1305 478 1279 c 1
 463 1279 l 1
 501 1458 l 1
 584 1490 697 1519 804 1519 c 0
EndSplineSet
EndChar
StartChar: uni00B3
Encoding: 116 179 118
Width: 1010
Flags: HW
HStem: 542 139<452.5 792.8> 968 139<569 849> 1380 139<668.1 900.2>
VStem: 845 174<721 944.6> 910 181<1190 1357.7>
Fore
1019 881 m 0xf0
 1019 751 909 542 589 542 c 0
 484 542 388 562 312 600 c 1
 349 775 l 1
 366 775 l 1
 397 740 489 681 616 681 c 0
 752 681 845 754 845 864 c 0xf0
 845 926 810 968 680 968 c 2
 540 968 l 1
 569 1107 l 1
 694 1107 l 2
 860 1107 910 1211 910 1281 c 0
 910 1340 869 1380 765 1380 c 0
 670 1380 546 1326 489 1283 c 1
 472 1283 l 1
 509 1458 l 1
 596 1491 702 1519 815 1519 c 0
 1038 1519 1091 1400 1091 1325 c 0xe8
 1091 1219 1015 1102 864 1055 c 1
 863 1047 l 1
 933 1032 1019 981 1019 881 c 0xf0
EndSplineSet
EndChar
StartChar: acute
Encoding: 117 180 119
Width: 1118
Flags: W
HStem: 1302 374<875 1227>
VStem: 726 501<1302 1676>
Fore
1227 1676 m 1
 875 1302 l 1
 726 1302 l 1
 984 1676 l 1
 1227 1676 l 1
EndSplineSet
EndChar
StartChar: mu
Encoding: 118 181 120
Width: 1163
Flags: HW
HStem: -17 181<520.268 675.4>
Fore
382 275 m 1
 452 165 575 164 613 164 c 0
 727 164 813 200 897 275 c 1
 1076 1117 l 1
 1264 1117 l 1
 1027 0 l 1
 855 0 l 1
 880 116 l 1
 874 116 l 1
 734 -4 652 -17 574 -17 c 0
 470 -17 421 12 348 115 c 1
 236 -412 l 1
 48 -412 l 1
 373 1117 l 1
 561 1117 l 1
 382 275 l 1
EndSplineSet
EndChar
StartChar: paragraph
Encoding: 119 182 121
Width: 1118
Flags: HW
HStem: 1359 130<944 1131>
Fore
267 934 m 0
 267 1132 389 1489 876 1489 c 2
 1298 1489 l 1
 905 -363 l 1
 765 -363 l 1
 1131 1359 l 1
 944 1359 l 1
 578 -363 l 1
 438 -363 l 1
 641 593 l 1
 402 598 267 734 267 934 c 0
EndSplineSet
EndChar
StartChar: periodcentered
Encoding: 120 183 122
Width: 724
Flags: W
VStem: 420 299<832 1117>
Fore
659 832 m 1
 420 832 l 1
 480 1117 l 1
 719 1117 l 1
 659 832 l 1
EndSplineSet
EndChar
StartChar: cedilla
Encoding: 121 184 123
Width: 1118
Flags: HW
HStem: -423 150<311.171 623.8>
VStem: 204 567<-399 20>
Fore
382 -273 m 0
 568 -273 585 -167 614 20 c 1
 771 20 l 1
 747 -272 584 -423 376 -423 c 0
 359 -423 269 -420 204 -399 c 1
 238 -239 l 1
 247 -239 l 1
 284 -256 328 -273 382 -273 c 0
EndSplineSet
EndChar
StartChar: uni0E01
Encoding: 122 3585 124
Width: 1240
Flags: HW
HStem: 0 21G<188 408 862 1082> 929 220<683.2 987.4>
VStem: 1013 228<708.244 905.4>
Fore
868 1149 m 0
 1106 1149 1241 1028 1241 811 c 0
 1241 769 1235 723 1225 673 c 2
 1082 0 l 1
 862 0 l 1
 1002 657 l 2
 1009 692 1013 724 1013 752 c 0
 1013 870 949 929 821 929 c 0
 715 929 630 896 567 831 c 1
 633 795 673 739 687 663 c 1
 556 552 519 523 485 363 c 2
 408 0 l 1
 188 0 l 1
 265 363 l 2
 299 524 328 560 459 671 c 1
 423 726 366 767 286 792 c 1
 336 912 552 1149 868 1149 c 0
EndSplineSet
EndChar
StartChar: uni0E02
Encoding: 123 3586 125
Width: 1400
Flags: HW
HStem: 0 210<802 1042> 531 129<420 527.1> 953 196<608.4 817.7>
VStem: 249 173<676.433 781.7> 550 135<704.6 808.6> 831 223<760.391 915.6>
Fore
466 660 m 0
 513 660 550 719 550 767 c 0
 550 799 534 828 502 828 c 0
 455 828 422 767 422 718 c 0
 422 687 435 660 466 660 c 0
249 705 m 0
 249 929 453 1149 720 1149 c 0
 1005 1149 1054 954 1054 837 c 0
 1054 809 1051 786 1048 771 c 1
 945 688 889 623 879 575 c 2
 802 210 l 1
 1042 210 l 1
 1239 1139 l 1
 1459 1139 l 1
 1217 0 l 1
 537 0 l 1
 659 575 l 2
 669 622 717 682 828 771 c 1
 830 784 831 796 831 809 c 0
 831 891 791 953 702 953 c 0
 630 953 603 922 602 922 c 1
 602 921 602 920 601 920 c 1
 659 913 685 865 685 803 c 0
 685 672 578 531 420 531 c 0
 304 531 249 599 249 705 c 0
EndSplineSet
EndChar
StartChar: uni0E03
Encoding: 124 3587 126
Width: 1450
Flags: HMW
HStem: 0 210<855 1095 855 1270> 821 220<694 740> 929 220<557 604>
VStem: 216 168<603.022 708.7> 512 135<630.6 734.6> 896 211<763.987 869.673>
Fore
429 586 m 0
 476 586 512 645 512 693 c 0
 512 725 496 754 464 754 c 0
 417 754 384 694 384 645 c 0
 384 614 397 586 429 586 c 0
647 724 m 0
 647 595 538 457 383 457 c 0
 250 457 216 553 216 637 c 0
 216 798 354 1054 604 1149 c 1
 740 1041 l 1
 907 1149 l 1
 1034 1114 1107 966 1107 835 c 0
 1107 813 1105 791 1101 771 c 1
 998 688 942 623 932 575 c 2
 855 210 l 1
 1095 210 l 1
 1292 1139 l 1
 1512 1139 l 1
 1270 0 l 1
 590 0 l 1
 712 575 l 2
 723 628 780 691 895 771 c 1
 896 779 896 787 896 796 c 0
 896 846 880 901 860 929 c 1
 694 821 l 1
 557 929 l 1
 528 897 509 869 507 862 c 1
 618 862 647 789 647 724 c 0
EndSplineSet
EndChar
StartChar: uni0E04
Encoding: 125 3588 127
Width: 1370
Flags: HW
HStem: 0 21G<251 491 980 1200> 305 111<771.8 874.5> 574 142<791.5 894.2> 929 220<749.4 1023.7>
VStem: 905.045 124.923<449.937 555.463> 1128.43 228.792<694.925 926.942>
Fore
816 416 m 0
 861 416 905.045 464.306 905.045 512.203 c 0
 905.045 545.48 884 574 850 574 c 0
 805 574 761.386 525.693 761.386 477.796 c 0
 761.386 444.52 782 416 816 416 c 0
1029.97 549.445 m 0
 1029.97 436.744 905 305 772 305 c 0
 727 305 692 325 690 338 c 1
 653 304 505 52 491 0 c 1
 251 0 l 1
 274 108 l 2
 298 221 273 491 314 680 c 0
 381 996 628 1149 925 1149 c 0
 1152 1149 1357.22 1047.36 1357.22 795.304 c 0
 1357.22 759.032 1353 720 1344 677 c 2
 1200 0 l 1
 980 0 l 1
 1121 664 l 2
 1126 687 1128.43 708.99 1128.43 728.777 c 0
 1128.43 881.212 991 929 882 929 c 0
 780 929 576 880 527 647 c 0
 510 567 510 434 503 384 c 1
 608 592 730 716 872 716 c 0
 965 716 1029.97 635.522 1029.97 549.445 c 0
EndSplineSet
EndChar
StartChar: uni0E05
Encoding: 126 3589 128
Width: 1370
Flags: HMW
HStem: 0 21G<238 478 967 1187> 305 111<758.8 861.5> 574 142<778.5 881.2> 795 238<846 897> 909 240<706 757>
VStem: 892.045 124.371<449.937 555.463> 1121.6 227.255<744.127 886.293>
Fore
803 416 m 0
 848 416 892.045 464.306 892.045 512.203 c 0
 892.045 545.48 871 574 837 574 c 0
 792 574 748.386 525.693 748.386 477.796 c 0
 748.386 444.52 769 416 803 416 c 0
1016.42 545.304 m 0
 1016.42 436.006 883 305 759 305 c 0
 712 305 679 326 677 338 c 1
 634 299 486 37 478 0 c 1
 238 0 l 1
 261 108 l 2
 282 209 265 518 305 706 c 0
 365 988 574 1129 757 1149 c 1
 897 1033 l 1
 1094 1149 l 1
 1305 1099 1348.85 947.436 1348.85 825.15 c 0
 1348.85 762.001 1337 707 1331 677 c 2
 1187 0 l 1
 967 0 l 1
 1108 664 l 2
 1115 696 1121.6 728.023 1121.6 760.231 c 0
 1121.6 811.499 1105 862 1043 909 c 1
 846 795 l 1
 706 909 l 1
 487 824 512 596 490 384 c 1
 595 592 713 716 858 716 c 0
 963 716 1016.42 622.855 1016.42 545.304 c 0
EndSplineSet
EndChar
StartChar: uni0E06
Encoding: 127 3590 129
Width: 1520
Flags: HMW
HStem: -13 263<1113.5 1172 1113.5 1194> -10 166<580.5 604 580.5 656> -10 21G<522 656> 457 129<373 478.8> 821 220<684 730> 929 220<547 594> 1119 20G<1381 1601>
VStem: 206 169<600.936 706.4> 411 154<156.962 258.2> 502 135<629.3 734.77> 886 211<763.988 869.673>
Fore
419 586 m 0x31b0
 465 586 502 644 502 693 c 0
 502 725 487 754 454 754 c 0
 406 754 375 692 375 644 c 0
 375 613 387 586 419 586 c 0x31b0
637 724 m 0
 637 596 528 457 373 457 c 0
 241 457 206 553 206 636 c 0
 206 790 336 1051 594 1149 c 1
 730 1041 l 1
 897 1149 l 1
 1023 1114 1097 965 1097 835 c 0
 1097 813 1095 791 1091 771 c 1
 987 689 933 624 922 575 c 2
 891 430 l 1
 987 315 1087 250 1140 250 c 0
 1204 250 1209 329 1219 377 c 2
 1381 1139 l 1
 1601 1139 l 1
 1405 218 l 2
 1362 14 1228 -13 1160 -13 c 0
 1031 -13 841 156 834 164 c 1
 810 62 714 -10 598 -10 c 0
 446 -10 411 87 411 173 c 0x31d0
 411 343 534 484 688 507 c 1
 702 575 l 2
 713 628 768 691 885 771 c 1
 886 779 886 788 886 796 c 0
 886 846 870 901 850 929 c 1
 684 821 l 1
 547 929 l 1
 518 897 499 869 497 862 c 1
 608 862 637 788 637 724 c 0
662 317 m 1
 604 317 565 242 565 188 c 0
 565 167 573 156 588 156 c 0
 620 156 633 179 642 222 c 2
 662 317 l 1
EndSplineSet
EndChar
StartChar: uni0E07
Encoding: 128 3591 130
Width: 1000
Flags: HW
HStem: -10 220<550.08 667.8> 1026 123<791.5 895>
VStem: 284.556 229.499<194.512 483.259> 298 224<505.378 640> 628.836 122.928<874.564 997.57> 879.163 174.495<923.752 1016.67>
Fore
628.836 876.361 m 0xec
 628.836 978.86 714 1149 895 1149 c 0
 964 1148 1053.66 1118.73 1053.66 977.99 c 0
 1053.66 950.209 1050 918 1042 881 c 2
 913 272 l 2
 865 46 684 -10 551 -10 c 0
 307 -10 284.556 173.462 284.556 256.222 c 0xec
 284.556 262.005 285 267 285 272 c 2
 298 719 l 1
 522 640 l 1xdc
 514 312 l 2
 514 308 514.055 304.989 514.055 301.664 c 0
 514.055 219.24 567 210 595 210 c 0
 651 210 686 244 701 312 c 2
 796 759 l 1
 788 754 771 752 745 752 c 0
 703 752 628.836 782.407 628.836 876.361 c 0xec
802 857 m 0
 867 857 879.163 958.253 879.163 980.026 c 0
 879.163 1006.99 869 1026 837 1026 c 0
 802 1026 751.764 979.673 751.764 920.013 c 0
 751.764 885.052 771 857 802 857 c 0
EndSplineSet
EndChar
StartChar: uni0E08
Encoding: 129 3592 131
Width: 1200
Flags: MW
HStem: -10 220<777 813 777 837.5> -10 21G<667.5 837.5> 344 113<435 537> 625 124<454.2 614> 929 220<557.1 867.8>
VStem: 339.568 118.564<463.849 562.265> 962.834 233.959<748.974 939.065>
Fore
339.568 480.449 m 0
 339.568 583.203 423 749 614 749 c 0
 703 749 805.541 713.689 805.541 583.805 c 0
 805.541 563.842 803 542 798 517 c 2
 748 283 l 2
 746 273 744.938 263.882 744.938 255.904 c 0
 744.938 225.134 761 210 793 210 c 0
 833 210 858 233 867 279 c 2
 956 695 l 2
 961 718 962.834 738.615 962.834 757.405 c 0
 962.834 897.143 839 929 743 929 c 0
 600 929 472 851 407 775 c 1
 301 929 l 1
 394 1046 592 1149 788 1149 c 0
 1028 1149 1196.79 1053.47 1196.79 841.931 c 0
 1196.79 810.532 1193 777 1185 740 c 2
 1087 279 l 2
 1046 85 932 -10 743 -10 c 0
 592 -10 516.798 56.0013 516.798 185.827 c 0
 516.798 215.003 521 247 528 283 c 2
 547 373 l 1
 524 351 486 344 462 344 c 0
 408 344 339.568 389.483 339.568 480.449 c 0
540 625 m 0
 474 625 458.131 540.885 458.131 508.365 c 0
 458.131 474.122 474 457 504 457 c 0
 570 457 585.855 541.115 585.855 573.635 c 0
 585.855 607.878 570 625 540 625 c 0
EndSplineSet
EndChar
StartChar: uni0E09
Encoding: 130 3593 132
Width: 1395
Flags: HW
HStem: -10 166<1091 1219.7> 365 111<354 409.588> 644 122<344.5 488> 934 215<612.9 986.6>
VStem: 232.412 114.758<482.849 581.265> 1050.54 227.118<729.869 918.043> 1218.32 157.989<218.163 315.006>
Fore
429 644 m 0xf8
 364 644 347.17 559.885 347.17 527.365 c 0
 347.17 493.122 363 476 393 476 c 0
 459 476 474.893 560.116 474.893 592.636 c 0
 474.893 626.879 459 644 429 644 c 0xf8
232.412 499.496 m 0
 232.412 659.398 370 766 488 766 c 0
 618 766 695.003 707.705 695.003 600.624 c 0
 695.003 583.05 693 564 689 544 c 2
 653 377 l 2
 644 330 637.666 300.514 637.666 281.949 c 0
 637.666 258.842 648 253 675 253 c 0
 754 253 966 415 984 430 c 1
 1045 714 l 2
 1049 732 1050.54 749.593 1050.54 765.538 c 0
 1050.54 882.849 950 934 828 934 c 0
 645 934 517 818 489 788 c 1
 380 942 l 1
 472 1055 672 1149 869 1149 c 0
 1127 1149 1277.66 1039.92 1277.66 828.663 c 0xfc
 1277.66 793.009 1273 754 1265 713 c 2
 1221 507 l 1
 1351 487 1376.31 388.141 1376.31 315.006 c 0xfa
 1376.31 195.705 1301 -10 1091 -10 c 0
 986 -10 925.287 45.5284 925.287 128.139 c 0
 925.287 139.597 926 152 929 164 c 1
 828 104 669 -13 547 -13 c 0
 489 -13 391.251 6.74562 391.251 140.047 c 0
 391.251 162.623 394 188 400 218 c 2
 438 393 l 1
 414 374 387 365 354 365 c 0
 269 365 232.412 426.35 232.412 499.496 c 0
1169 156 m 0
 1208 156 1218.32 224.753 1218.32 246.718 c 0xfa
 1218.32 286.788 1199 317 1163 317 c 1
 1143 222 l 2
 1140 208 1138.94 197.347 1138.94 188.6 c 0
 1138.94 162.206 1151 156 1169 156 c 0
EndSplineSet
EndChar
StartChar: uni0E0A
Encoding: 131 3594 133
Width: 1390
Flags: HW
HStem: 0 210<795.637 1035.64> 531 129<414.867 520.33> 953 196<601.966 811.889>
VStem: 243.313 172.983<676.366 780.256> 543.561 135.529<703.94 808.775>
Fore
460.287 660 m 0
 506.474 660 543.561 718.43 543.561 766.731 c 0
 543.561 799.028 528.455 828 495.997 828 c 0
 448.176 828 416.296 765.829 416.296 717.74 c 0
 416.296 686.891 429.016 660 460.287 660 c 0
1030.83 719 m 1
 959.113 678 879.81 606 866.844 545 c 2
 795.637 210 l 1
 1035.64 210 l 1
 1107.06 546 l 2
 1112.93 567.991 1115.55 586.504 1115.55 602.372 c 0
 1115.55 665.875 1073.63 686.997 1030.83 719 c 1
243.313 705.605 m 0
 243.313 930.054 448.306 1149 714.228 1149 c 0
 928.228 1149 1012.46 1056 1037.4 924 c 1
 1171.23 942 1302.81 1020 1333.2 1163 c 2
 1338.52 1188 l 1
 1573.52 1188 l 1
 1568.42 1164 l 2
 1535.68 1010 1391.86 865 1259.36 825 c 1
 1322.62 781.131 1349.8 732.173 1349.8 674.572 c 0
 1349.8 659.957 1348.05 644.786 1344.7 629 c 2
 1211 0 l 1
 531 0 l 1
 653.22 575 l 2
 663.21 622 710.964 682 821.881 771 c 1
 823.649 784.259 824.551 797.173 824.551 809.604 c 0
 824.551 891.871 785.045 953 695.566 953 c 0
 623.566 953 596.978 922 595.978 922 c 1
 595.765 921 595.552 920 594.552 920 c 1
 652.489 912.962 679.09 864.949 679.09 802.745 c 0
 679.09 669.026 569.03 531 414.867 531 c 0
 281.91 531 243.313 615.079 243.313 705.605 c 0
EndSplineSet
EndChar
StartChar: uni0E0B
Encoding: 132 3595 134
Width: 1450
Flags: HMW
HStem: 0 210<868 1108> 457 129<383 488.8> 821 220<694 740> 929 220<557 604>
VStem: 216.451 168.115<600.876 706.256> 511.832 134.711<629.941 734.775> 1187.55 234.257<594.438 703.372>
Fore
429 586 m 0
 475 586 511.832 644.431 511.832 692.731 c 0
 511.832 725.028 497 754 464 754 c 0
 416 754 384.566 691.83 384.566 643.741 c 0
 384.566 612.892 397 586 429 586 c 0
646.543 723.771 m 0
 646.543 595.727 538 457 383 457 c 0
 251 457 216.451 552.556 216.451 636.433 c 0
 216.451 789.59 346 1051 604 1149 c 1
 740 1041 l 1
 907 1149 l 1
 993 1119 1085 1027 1109 924 c 1
 1243 942 1375 1020 1405 1163 c 2
 1411 1188 l 1
 1646 1188 l 1
 1640 1164 l 2
 1608 1013 1469 868 1331 825 c 1
 1395 781 1421.8 732.173 1421.8 674.572 c 0
 1421.8 659.957 1420 645 1417 629 c 2
 1283 0 l 1
 603 0 l 1
 725 575 l 2
 735 622 783 682 894 771 c 1
 895 781 895.778 790.292 895.778 799.864 c 0
 895.778 854.942 876 907 860 929 c 1
 694 821 l 1
 557 929 l 1
 528 897 509 869 507 862 c 1
 618 862 646.543 788.365 646.543 723.771 c 0
1103 719 m 1
 1031 678 952 606 939 545 c 2
 868 210 l 1
 1108 210 l 1
 1179 546 l 2
 1185 568 1187.55 586.504 1187.55 602.372 c 0
 1187.55 665.875 1146 687 1103 719 c 1
EndSplineSet
EndChar
StartChar: uni0E0C
Encoding: 133 3596 135
Width: 1750
Flags: HMW
HStem: -10 166<860.5 884 860.5 936> -10 120<427 539.1> 929 220<681.2 985.4>
VStem: 231.107 202.588<127 233.181> 559.201 130.12<156.82 263> 690.936 153.749<156.797 258.202> 1010.95 227.005<702.481 905.302>
Fore
515 280 m 0
 467 280 433.696 218.457 433.696 169.376 c 0
 433.696 137.951 447 110 478 110 c 0
 525 110 559.201 171.544 559.201 220.625 c 0
 559.201 252.05 546 280 515 280 c 0
689.322 255.309 m 0
 689.322 137.345 591 -10 427 -10 c 0
 271 -10 231.107 66.4856 231.107 160.784 c 0
 231.107 206.241 240 256 250 303 c 2
 264 366 l 2
 297 523 327 560 457 671 c 1
 421 726 364 767 284 792 c 1
 334 912 550 1149 866 1149 c 0
 1100 1149 1237.96 1032.57 1237.96 812.632 c 0
 1237.96 769.954 1233 723 1222 673 c 2
 1170 430 l 1
 1438 299 l 1
 1616 1139 l 1
 1835 1139 l 1
 1593 0 l 1
 1374 0 l 1
 1114 164 l 1
 1090 62 994 -10 878 -10 c 0
 725 -10 690.936 90.4081 690.936 174.716 c 0
 690.936 343.238 815 485 968 507 c 1
 1000 657 l 2
 1007 692 1010.95 724.427 1010.95 752.958 c 0
 1010.95 870.146 947 929 819 929 c 0
 713 929 628 896 565 831 c 1
 631 795 671 739 685 663 c 1
 544 542 519 534 483 363 c 1
 504 382 529 391 560 391 c 0
 561 391 562.43 391.057 563.607 391.057 c 0
 615.976 391.057 689.322 352.98 689.322 255.309 c 0
942 317 m 1
 884 317 844.684 241.976 844.684 187.888 c 0
 844.684 166.629 853 156 868 156 c 0
 900 156 913 179 922 222 c 2
 942 317 l 1
EndSplineSet
EndChar
StartChar: uni0E0D
Encoding: 134 3597 136
Width: 1745
Flags: HMW
HStem: -417 180<1002.2 1125> -130 108<1015.1 1091.8>
VStem: 880.978 112.786<-243.085 -149.395> 1101.38 121.171<-212.675 -138.607>
Fore
880.978 -243.085 m 0
 880.978 -141.573 959 -22 1089 -22 c 0
 1176 -22 1222.55 -68.238 1222.55 -138.607 c 0
 1222.55 -219.679 1179 -254 1165 -265 c 1
 1331 -235 1411 -118 1437 -34 c 1
 1604 -48 l 1
 1553 -250 1353 -417 1125 -417 c 0
 931 -417 880.978 -324.31 880.978 -243.085 c 0
1036 -237 m 0
 1072 -237 1101.38 -203.123 1101.38 -171.283 c 0
 1101.38 -147.214 1084 -130 1058 -130 c 0
 1025 -130 993.765 -159.991 993.765 -195.312 c 0
 993.765 -219.306 1010 -237 1036 -237 c 0
EndSplineSet
Refer: 256 63247 S 1 0 0 1 0 0 2
Substitution: 0 65534 'nds0' uni0E0D.descless
Substitution: 0 65534 'ndsc' uni0E0D.descless
EndChar
StartChar: uni0E0E
Encoding: 135 3598 137
Width: 1375
Flags: HW
HStem: -430 157<395.5 529.4> -132 142<417.1 616.433> -10 120<265.7 367.1> 280 111<280.6 383.3> 929 220<827.2 1131.4>
VStem: 136 126<127.022 232.7> 1157 228<702.531 905.1>
AnchorPoint: "BelowBase" 1129.71 -453 basechar 0
Fore
206 -288 m 0xbe
 206 -192 326 10 591 10 c 0xde
 640 10 689 3 735 -12 c 1
 850 142 l 1
 975 88 l 1
 864 -67 l 1
 900 -82 945 -117 973 -155 c 1
 1146 657 l 2
 1153 692 1157 724 1157 753 c 0
 1157 870 1093 929 965 929 c 0
 859 929 774 896 711 831 c 1
 777 795 817 739 831 663 c 1
 702 550 666 536 632 376 c 2
 616 303 l 2
 583 148 528 -10 307 -10 c 0
 181 -10 136 73 136 154 c 0
 136 274 227 391 350 391 c 0
 377 391 396 381 409 363 c 1
 414 384 l 2
 443 523 478 565 603 671 c 1
 567 726 510 767 430 792 c 1
 480 912 696 1149 1012 1149 c 0
 1250 1149 1385 1028 1385 811 c 0
 1385 769 1380 723 1369 673 c 2
 1139 -410 l 1
 919 -410 l 1
 877 -322 826 -259 765 -220 c 1
 686 -329 572 -430 401 -430 c 0
 269 -430 206 -367 206 -288 c 0xbe
343 280 m 0
 295 280 262 218 262 169 c 0
 262 138 275 110 306 110 c 0xbe
 353 110 387 172 387 221 c 0
 387 252 374 280 343 280 c 0
551 -132 m 0xde
 448 -132 398 -207 398 -241 c 0
 398 -252 406 -273 441 -273 c 0
 509 -273 595 -207 628 -154 c 1
 614 -138 587 -132 551 -132 c 0xde
EndSplineSet
EndChar
StartChar: uni0E0F
Encoding: 136 3599 138
Width: 1375
Flags: HMW
HStem: -429 136<302.2 430.9> -245 235<841 891> -152 153<318.6 520.718> -10 120<265.7 367.1> 280 111<280.6 383.3> 929 220<826.2 1129.1>
VStem: 135 127<127.022 232.7> 1155 229<701.96 904.4>
AnchorPoint: "BelowBase" 1128.71 -453 basechar 0
Fore
343 280 m 0x9f
 295 280 262 218 262 169 c 0
 262 138 275 110 306 110 c 0
 353 110 387 172 387 221 c 0
 387 252 374 280 343 280 c 0x9f
136 -278 m 0
 136 -125 301 1 482 1 c 0xaf
 541 1 585 -11 623 -32 c 1
 741 119 l 1
 859 73 l 1
 741 -90 l 1
 748 -97 754 -108 758 -122 c 1
 815 -48 869 -10 891 -10 c 0
 921 -10 954 -27 992 -61 c 1
 1145 657 l 2
 1152 692 1155 723 1155 751 c 0
 1155 869 1091 929 964 929 c 0
 858 929 773 896 710 831 c 1
 776 795 816 739 830 663 c 1
 701 550 665 536 631 376 c 2
 615 303 l 2
 582 148 527 -10 306 -10 c 0
 178 -10 135 72 135 154 c 0
 135 299 245 391 349 391 c 0
 376 391 395 381 408 363 c 1
 413 384 l 2
 442 523 477 565 602 671 c 1
 566 726 509 767 429 792 c 1
 479 912 695 1149 1011 1149 c 0
 1249 1149 1384 1028 1384 811 c 0
 1384 769 1379 722 1368 673 c 2
 1138 -410 l 1
 921 -410 l 1
 921 -401 l 0
 921 -286 886 -245 841 -245 c 0
 787 -245 704 -368 682 -403 c 1
 643 -294 624 -286 615 -276 c 1
 534 -368 454 -429 319 -429 c 0
 171 -429 136 -347 136 -278 c 0
446 -152 m 0
 348 -152 296 -212 296 -252 c 0
 296 -271 313 -293 349 -293 c 0
 412 -293 491 -243 531 -173 c 1
 519 -159 491 -152 446 -152 c 0
EndSplineSet
EndChar
StartChar: uni0E10
Encoding: 137 3600 139
Width: 1130
Flags: HMW
HStem: -541 106<114 234.4> -450 168<583.5 588> -346 112<140.7 274.653> -106 72<657.3 739>
VStem: -23 131<-440 -364.1> 558 87<-189 -127.4>
Fore
-23 -440 m 0
 -23 -367 50 -235 230 -234 c 0
 284 -234 316 -243 347 -258 c 1
 368 -236 389 -217 407 -192 c 1
 517 -239 l 1
 460 -306 l 1
 466 -309 477 -319 493 -336 c 1
 524 -300 562 -282 605 -282 c 0
 637 -282 662 -294 679 -319 c 1
 689 -273 l 1
 661 -276 l 2
 602 -275 558 -240 558 -189 c 0
 558 -110 649 -34 739 -34 c 0
 867 -34 897 -87 897 -149 c 0
 897 -173 893 -199 888 -223 c 2
 822 -530 l 1
 639 -530 l 1
 630 -479 607 -450 569 -450 c 0
 527 -450 482 -493 448 -529 c 1
 432 -495 405 -458 368 -418 c 1
 304 -483 214 -541 114 -541 c 0
 49 -541 -23 -511 -23 -440 c 0
687 -205 m 0
 722 -205 745 -173 745 -144 c 0
 745 -122 731 -106 708 -106 c 0
 669 -106 645 -137 645 -169 c 0
 645 -192 662 -205 687 -205 c 0
220 -346 m 0
 159 -346 108 -374 108 -407 c 0
 108 -424 128 -435 146 -435 c 0
 214 -435 277 -360 277 -360 c 1
 266 -351 247 -346 220 -346 c 0
EndSplineSet
Refer: 241 63232 N 1 0 0 1 0 0 2
Substitution: 0 65534 'nds0' uni0E10.descless
Substitution: 0 65534 'ndsc' uni0E10.descless
EndChar
StartChar: uni0E11
Encoding: 138 3601 140
Width: 1700
Flags: HMW
HStem: 0 21G<645 919 1323 1543> 457 129<438 543.8> 778 371<1457 1591> 821 220<749 795> 929 220<612 659>
VStem: 271.451 168.115<600.876 706.256> 566.832 134.711<629.941 734.775> 951.534 209.955<763.136 871.109>
Fore
484 586 m 0
 530 586 566.832 644.431 566.832 692.731 c 0
 566.832 725.028 552 754 519 754 c 0
 471 754 439.566 691.83 439.566 643.741 c 0
 439.566 612.892 452 586 484 586 c 0
701.543 723.771 m 0
 701.543 595.727 593 457 438 457 c 0
 306 457 271.451 552.556 271.451 636.433 c 0
 271.451 789.59 401 1051 659 1149 c 1
 795 1041 l 1
 962 1149 l 1
 1083 1113 1161.49 984.524 1161.49 838.689 c 0
 1161.49 816.43 1160 794 1156 771 c 1
 1053 688 997 623 987 575 c 2
 952 410 l 1
 1354 1003 l 2
 1431 1122 1530 1149 1591 1149 c 0
 1716 1141 1746.7 1063.58 1746.7 990.168 c 0
 1746.7 966.477 1743 943 1739 923 c 2
 1543 0 l 1
 1323 0 l 1
 1466 672 l 2
 1473 707 1479.1 733.225 1479.1 751.102 c 0
 1479.1 768.828 1473 778 1457 778 c 0
 1427 778 1410 740 1353 656 c 2
 919 0 l 1
 645 0 l 1
 767 575 l 2
 778 628 835 691 950 771 c 1
 951 780 951.534 789.493 951.534 799.043 c 0
 951.534 848.42 937 901 915 929 c 1
 749 821 l 1
 612 929 l 1
 583 897 564 869 562 862 c 1
 673 862 701.543 788.365 701.543 723.771 c 0
EndSplineSet
EndChar
StartChar: uni0E12
Encoding: 139 3602 141
Width: 1850
Flags: HMW
HStem: -10 166<954.5 978 954.5 1039> 0 21G<224 464 1468 1687> 624 120<625.9 757> 793 240<832 883> 909 240<692 743> 1119 20G<1710 1929>
VStem: 506.578 99.4497<472 578.09> 731.509 178.9<501.719 607.301> 813.47 125.215<156.797 261.656> 1107.76 227.093<744.615 886.293>
Fore
910.409 591.871 m 0x6380
 910.409 417.285 760 128 464 0 c 1
 224 0 l 1
 247 108 l 2
 271 223 251 512 292 706 c 0
 367 1060 643 1138 743 1149 c 1
 883 1033 l 1
 1080 1149 l 1
 1291 1099 1334.85 947.436 1334.85 825.15 c 0
 1334.85 762.001 1323 707 1317 677 c 2
 1264 430 l 1
 1532 299 l 1
 1710 1139 l 1
 1929 1139 l 1
 1687 0 l 1
 1468 0 l 1
 1208 164 l 1
 1187 65 1088 -10 990 -10 c 0
 872 -10 813.47 65.2545 813.47 173.354 c 0x6340
 813.47 351.515 939 467 1061 507 c 1
 1094 664 l 2
 1101 697 1107.76 728.779 1107.76 760.45 c 0
 1107.76 811.33 1090 861 1029 909 c 1
 832 793 l 1
 692 909 l 1
 557 855 479.734 732.267 479.734 461.5 c 0
 479.734 396.285 484 321 493 234 c 1
 551 256 611 318 629 349 c 1
 559 349 506.578 398.07 506.578 487.592 c 0
 506.578 625.972 607 744 757 744 c 0
 832 744 910.409 710.747 910.409 591.871 c 0x6380
1036 317 m 1
 979 317 938.684 244.633 938.684 187.888 c 0
 938.684 166.629 947 156 962 156 c 0
 994 156 1007 179 1016 222 c 2
 1036 317 l 1
651 455 m 0
 698 455 731.509 516.394 731.509 565.311 c 0x6380
 731.509 596.555 718 624 687 624 c 0
 640 624 606.028 563.387 606.028 514.376 c 0
 606.028 482.951 619 455 651 455 c 0
EndSplineSet
EndChar
StartChar: uni0E13
Encoding: 140 3603 142
Width: 1900
Flags: HMW
HStem: -10 120<440 554.7> -10 166<1584 1716> 280 111<505 603> 929 220<694.2 998.4>
VStem: 246 201<129.889 232.8> 572 130<157.3 262.978> 1024 227<702.643 905.1> 1714 165<210.615 309>
Fore
702 255 m 0x5f
 702 138 608 -10 440 -10 c 0x9f
 293 -10 246 56 246 164 c 0
 246 205 252 252 263 303 c 2
 277 366 l 2
 310 523 340 560 470 671 c 1
 434 726 377 767 297 792 c 1
 347 912 563 1149 879 1149 c 0
 1111 1149 1251 1033 1251 812 c 0
 1251 770 1246 723 1235 673 c 2
 1152 281 l 1
 1478 430 l 1
 1629 1139 l 1
 1848 1139 l 1
 1714 507 l 1
 1822 487 1879 411 1879 309 c 0
 1879 152 1768 -10 1584 -10 c 0
 1481 -10 1418 44 1418 126 c 0
 1418 138 1419 151 1422 164 c 1
 1092 0 l 1
 873 0 l 1
 1013 657 l 2
 1020 692 1024 724 1024 753 c 0
 1024 870 960 929 832 929 c 0
 726 929 641 896 578 831 c 1
 644 795 684 739 698 663 c 1
 555 538 532 532 496 363 c 1
 518 383 543 391 577 391 c 0
 629 391 702 353 702 255 c 0x5f
1664 156 m 0x5f
 1704 156 1714 227 1714 248 c 0
 1714 287 1694 317 1658 317 c 1
 1638 222 l 2
 1635 208 1634 197 1634 189 c 0
 1634 162 1646 156 1664 156 c 0x5f
491 110 m 0x9f
 540 110 572 172 572 221 c 0
 572 252 559 280 528 280 c 0
 482 280 447 219 447 173 c 0
 447 140 463 110 491 110 c 0x9f
EndSplineSet
EndChar
StartChar: uni0E14
Encoding: 141 3604 143
Width: 1330
Flags: HW
HStem: 0 21G<222 462 951 1171> 624 120<636.9 755> 929 220<660.6 1001.2>
VStem: 504.433 112.382<471 577.179> 742.321 166.279<500.819 607> 1098.92 229.252<691.802 915.663>
Fore
698 624 m 0
 651 624 616.815 562.455 616.815 513.375 c 0
 616.815 481.95 630 454 662 454 c 0
 709 454 742.321 515.543 742.321 564.623 c 0
 742.321 596.049 729 624 698 624 c 0
504.433 486.495 m 0
 504.433 626.112 600 744 755 744 c 0
 831 744 908.6 710.78 908.6 592.641 c 0
 908.6 427.093 768 135 462 0 c 1
 222 0 l 1
 245 108 l 2
 269 221 244 491 285 680 c 0
 351 991 600 1149 896 1149 c 0
 1149 1149 1328.17 1031.28 1328.17 795.176 c 0
 1328.17 758.622 1324 719 1315 677 c 2
 1171 0 l 1
 951 0 l 1
 1092 664 l 2
 1097 686 1098.92 705.987 1098.92 724.755 c 0
 1098.92 871.607 967 929 853 929 c 0
 705 929 534 838 489 627 c 0
 481 587 477.106 530.205 477.106 466.966 c 0
 477.106 392.265 482 309 491 234 c 1
 549 256 609 318 627 349 c 1
 555 349 504.433 397.669 504.433 486.495 c 0
EndSplineSet
EndChar
StartChar: uni0E15
Encoding: 142 3605 144
Width: 1330
Flags: HMW
HStem: 0 21G<222 462 951 1171> 624 120<636.9 755> 793 240<830 881> 909 240<690 741>
VStem: 504.433 112.382<471 577.179> 742.321 166.279<500.819 607> 1105.76 227.093<744.615 886.293>
Fore
698 624 m 0
 651 624 616.815 562.455 616.815 513.375 c 0
 616.815 481.95 630 454 662 454 c 0
 709 454 742.321 515.543 742.321 564.623 c 0
 742.321 596.049 729 624 698 624 c 0
504.433 486.495 m 0
 504.433 627.385 605 744 755 744 c 0
 831 744 908.6 710.78 908.6 592.641 c 0
 908.6 427.093 768 135 462 0 c 1
 222 0 l 1
 245 108 l 2
 269 223 249 512 290 706 c 0
 365 1060 641 1138 741 1149 c 1
 881 1033 l 1
 1078 1149 l 1
 1289 1099 1332.85 947.436 1332.85 825.15 c 0
 1332.85 762.001 1321 707 1315 677 c 2
 1171 0 l 1
 951 0 l 1
 1092 664 l 2
 1099 697 1105.76 728.779 1105.76 760.45 c 0
 1105.76 811.33 1088 861 1027 909 c 1
 830 793 l 1
 690 909 l 1
 555 855 477.734 732.267 477.734 461.5 c 0
 477.734 396.285 482 321 491 234 c 1
 549 256 609 318 627 349 c 1
 555 349 504.433 397.669 504.433 486.495 c 0
EndSplineSet
EndChar
StartChar: uni0E16
Encoding: 143 3606 145
Width: 1240
Flags: HMW
HStem: -10 120<429 543.7> 280 111<494 592> 929 220<683.2 987.4>
VStem: 235 201<129.889 232.8> 561 130<157.3 262.978> 1013 228<702.531 905.1>
Fore
691 255 m 0
 691 138 597 -10 429 -10 c 0
 282 -10 235 56 235 164 c 0
 235 205 241 252 252 303 c 2
 266 366 l 2
 299 523 329 560 459 671 c 1
 421 726 366 767 286 792 c 1
 336 912 552 1149 868 1149 c 0
 1106 1149 1241 1028 1241 811 c 0
 1241 769 1236 723 1225 673 c 2
 1082 0 l 1
 862 0 l 1
 1002 657 l 2
 1009 692 1013 724 1013 753 c 0
 1013 870 949 929 821 929 c 0
 715 929 630 896 567 831 c 1
 633 795 671 739 687 663 c 1
 544 538 521 532 485 363 c 1
 507 383 532 391 566 391 c 0
 618 391 691 353 691 255 c 0
480 110 m 0
 529 110 561 172 561 221 c 0
 561 252 548 280 517 280 c 0
 471 280 436 219 436 173 c 0
 436 140 452 110 480 110 c 0
EndSplineSet
EndChar
StartChar: uni0E17
Encoding: 144 3607 146
Width: 1350
Flags: HMW
HStem: 0 21G<318 592 996 1216> 752 105<405.5 500> 778 371<1130 1264> 1025 124<450.6 578>
VStem: 311.659 121.51<873.367 977.257> 560.434 176.224<900.941 1005.78>
Fore
477 857 m 0
 523 857 560.434 915.431 560.434 963.731 c 0
 560.434 996.028 545 1025 513 1025 c 0
 465 1025 433.169 962.83 433.169 914.742 c 0
 433.169 883.892 446 857 477 857 c 0
311.659 874.953 m 0
 311.659 979.848 398 1149 578 1149 c 0
 647 1148 736.658 1118.73 736.658 977.99 c 0
 736.658 950.209 733 918 725 881 c 2
 625 410 l 1
 1027 1003 l 2
 1104 1122 1203 1149 1264 1149 c 0
 1385 1149 1418.26 1060.08 1418.26 981.342 c 0
 1418.26 960.581 1416 941 1412 923 c 2
 1216 0 l 1
 996 0 l 1
 1136 659 l 2
 1144 695 1149.61 725.213 1149.61 746.443 c 0
 1149.61 766.313 1144 778 1130 778 c 0
 1119 778 1104 770 1093 755 c 2
 592 0 l 1
 318 0 l 1
 479 759 l 1
 471 754 454 752 428 752 c 0
 383 752 311.659 782.103 311.659 874.953 c 0
EndSplineSet
EndChar
StartChar: uni0E18
Encoding: 145 3608 147
Width: 1250
Flags: HW
HStem: 0 210<515 849> 856 208<1019.4 1256.38> 941 208<718.1 1021>
Fore
665 892 m 1xa0
 963 833 1151 775 1151 621 c 0
 1151 606 1149 590 1146 573 c 2
 1024 0 l 1
 250 0 l 1
 388 650 l 1
 608 650 l 1
 515 210 l 1
 849 210 l 1
 916 529 l 2
 918 536 919 542 919 549 c 0
 919 572 908 590 887 603 c 2
 815 636 l 2
 716 671 548 707 313 742 c 1
 410 976 576 1149 868 1149 c 0xa0
 1067 1149 1071 1064 1243 1064 c 0
 1268 1064 1294 1067 1320 1072 c 1
 1236 862 l 1
 1216 857 1190 856 1164 856 c 0xc0
 1018 856 973 941 813 941 c 0
 740 941 691 925 665 892 c 1xa0
EndSplineSet
EndChar
StartChar: uni0E19
Encoding: 146 3609 148
Width: 1400
Flags: HW
HStem: -10 166<1117 1249> 748 109<439.7 497.043> 1025 124<453.6 575>
VStem: 319.821 116.348<873.367 977.257> 1246.69 156.37<219.871 318.931>
Fore
480 857 m 0
 526 857 563.434 915.431 563.434 963.731 c 0
 563.434 996.028 548 1025 516 1025 c 0
 468 1025 436.169 962.83 436.169 914.742 c 0
 436.169 883.892 449 857 480 857 c 0
319.821 882.495 m 0
 319.821 1042.4 458 1149 575 1149 c 0
 705 1149 782.412 1090.71 782.412 983.624 c 0
 782.412 966.05 780 947 776 927 c 2
 639 281 l 1
 1010 430 l 1
 1161 1139 l 1
 1381 1139 l 1
 1247 507 l 1
 1377 487 1403.06 392.461 1403.06 318.931 c 0
 1403.06 189.871 1324 -10 1117 -10 c 0
 1011 -10 950.875 47.7466 950.875 127.474 c 0
 950.875 139.211 952 151 955 164 c 1
 579 0 l 1
 360 0 l 1
 525 776 l 1
 502 757 474 748 441 748 c 0
 357 748 319.821 809.35 319.821 882.495 c 0
1197 156 m 0
 1237 156 1246.69 226.725 1246.69 247.648 c 0
 1246.69 287.254 1227 317 1191 317 c 1
 1171 222 l 2
 1168 208 1166.94 197.347 1166.94 188.6 c 0
 1166.94 162.206 1179 156 1197 156 c 0
EndSplineSet
EndChar
StartChar: uni0E1A
Encoding: 147 3610 149
Width: 1300
Flags: HMW
HStem: 0 210<592 978> 749 109<411.7 488.185> 1026 125<425.6 556>
VStem: 289.457 118.924<872.876 978.256> 535.647 211.128<968.997 980.879>
Fore
452 858 m 0
 499 858 535.647 916.43 535.647 964.731 c 0
 535.647 997.028 521 1026 488 1026 c 0
 440 1026 408.382 963.829 408.382 915.74 c 0
 408.382 884.891 421 858 452 858 c 0
289.457 883.805 m 0
 289.457 986.011 370 1151 556 1151 c 0
 693 1151 746.776 1091.22 746.776 984.33 c 0
 746.776 953.664 742 919 734 881 c 2
 592 210 l 1
 978 210 l 1
 1175 1139 l 1
 1395 1139 l 1
 1153 0 l 1
 327 0 l 1
 488 759 l 1
 473 754 454 749 432 749 c 0
 344 749 289.457 801.381 289.457 883.805 c 0
EndSplineSet
EndChar
StartChar: uni0E1B
Encoding: 148 3611 150
Width: 1300
Flags: HMW
HStem: 0 210<592 978> 749 109<411.7 488.185> 1026 125<425.6 556>
VStem: 289.457 118.924<872.876 978.256> 535.647 211.128<968.997 980.879>
AnchorPoint: "AboveBase" 1121.81 1227 basechar 0
Fore
452 858 m 0
 499 858 535.647 916.43 535.647 964.731 c 0
 535.647 997.028 521 1026 488 1026 c 0
 440 1026 408.382 963.829 408.382 915.74 c 0
 408.382 884.891 421 858 452 858 c 0
289.457 883.805 m 0
 289.457 986.011 370 1151 556 1151 c 0
 693 1151 746.776 1091.22 746.776 984.33 c 0
 746.776 953.664 742 919 734 881 c 2
 592 210 l 1
 978 210 l 1
 1248 1480 l 1
 1468 1480 l 1
 1153 0 l 1
 327 0 l 1
 488 759 l 1
 473 754 454 749 432 749 c 0
 344 749 289.457 801.381 289.457 883.805 c 0
EndSplineSet
EndChar
StartChar: uni0E1C
Encoding: 149 3612 151
Width: 1200
Flags: HW
HStem: 0 21G<133 353 823 1043> 749 111<548.7 648.8> 1028 123<562.6 666.6>
VStem: 672.072 116.041<903.941 1008.78>
Fore
589 860 m 0
 635 860 672.072 918.431 672.072 966.731 c 0
 672.072 999.028 657 1028 625 1028 c 0
 577 1028 544.807 965.83 544.807 917.742 c 0
 544.807 886.892 558 860 589 860 c 0
788.113 994.744 m 0
 788.113 861.536 700 749 567 749 c 0
 534 749 519 757 514 759 c 1
 423 330 l 1
 725 698 l 1
 767 698 l 1
 896 330 l 1
 1065 1139 l 1
 1285 1139 l 1
 1043 0 l 1
 823 0 l 1
 675 354 l 1
 353 0 l 1
 133 0 l 1
 310 835 l 2
 351 1026 409 1151 601 1151 c 0
 703 1151 788.113 1110.65 788.113 994.744 c 0
EndSplineSet
EndChar
StartChar: uni0E1D
Encoding: 150 3613 152
Width: 1200
Flags: HW
HStem: 0 21G<133 353 823 1043> 749 111<548.7 648.8> 1028 123<562.6 666.6>
VStem: 672.072 116.041<903.941 1008.78>
AnchorPoint: "AboveBase" 1011.81 1227 basechar 0
Fore
589 860 m 0
 635 860 672.072 918.431 672.072 966.731 c 0
 672.072 999.028 657 1028 625 1028 c 0
 577 1028 544.807 965.83 544.807 917.742 c 0
 544.807 886.892 558 860 589 860 c 0
788.113 994.744 m 0
 788.113 861.536 700 749 567 749 c 0
 534 749 519 757 514 759 c 1
 423 330 l 1
 725 698 l 1
 767 698 l 1
 896 330 l 1
 1141 1480 l 1
 1358 1480 l 1
 1043 0 l 1
 823 0 l 1
 675 354 l 1
 353 0 l 1
 133 0 l 1
 310 835 l 2
 351 1026 409 1151 601 1151 c 0
 703 1151 788.113 1110.65 788.113 994.744 c 0
EndSplineSet
EndChar
StartChar: uni0E1E
Encoding: 151 3614 153
Width: 1350
Flags: HMW
HStem: 0 21G<297 517 987 1207> 749 111<382.7 457.142> 1028 123<396.6 526>
VStem: 259.402 119.406<876.367 980.257> 506.072 213.472<976.019 982.879>
Fore
423 860 m 0
 469 860 506.072 918.431 506.072 966.731 c 0
 506.072 999.028 491 1028 459 1028 c 0
 411 1028 378.807 965.83 378.807 917.742 c 0
 378.807 886.892 392 860 423 860 c 0
259.402 883.361 m 0
 259.402 984.211 339 1151 526 1151 c 0
 673 1151 719.544 1081.16 719.544 988.604 c 0
 719.544 963.433 716 937 710 909 c 2
 623 500 l 1
 942 1039 l 1
 999 1039 l 1
 1093 500 l 1
 1229 1139 l 1
 1449 1139 l 1
 1207 0 l 1
 987 0 l 1
 883 600 l 1
 517 0 l 1
 297 0 l 1
 458 759 l 1
 443 754 424 750 402 749 c 0
 314 749 259.402 801.193 259.402 883.361 c 0
EndSplineSet
EndChar
StartChar: uni0E1F
Encoding: 152 3615 154
Width: 1350
Flags: HMW
HStem: 0 21G<297 517 987 1207> 749 111<382.7 457.142> 1028 123<396.6 526>
VStem: 259 120<876.433 979.1> 506 214<976 983>
AnchorPoint: "AboveBase" 1226.81 1227 basechar 0
Fore
423 860 m 0
 465 860 506 913 506 967 c 0
 506 999 491 1028 459 1028 c 0
 411 1028 379 965 379 918 c 0
 379 887 392 860 423 860 c 0
259 883 m 0
 259 995 347 1151 526 1151 c 0
 673 1151 720 1081 720 989 c 0
 720 963 716 937 710 909 c 2
 623 500 l 1
 942 1039 l 1
 999 1039 l 1
 1093 500 l 1
 1302 1480 l 1
 1522 1480 l 1
 1207 0 l 1
 987 0 l 1
 883 600 l 1
 517 0 l 1
 297 0 l 1
 458 759 l 1
 443 754 424 750 402 749 c 0
 314 749 259 801 259 883 c 0
EndSplineSet
EndChar
StartChar: uni0E20
Encoding: 153 3616 155
Width: 1350
Flags: HW
HStem: -10 120<251.7 353.1> 280 111<266.6 369.3> 929 220<813.2 1117.4>
VStem: 122 126<127.022 232.7> 1143 228<702.531 905.1>
Fore
329 280 m 0
 281 280 248 218 248 169 c 0
 248 138 261 110 292 110 c 0
 339 110 373 172 373 221 c 0
 373 252 360 280 329 280 c 0
122 154 m 0
 122 274 213 391 336 391 c 0
 363 391 382 381 395 363 c 1
 400 384 l 2
 429 523 464 565 589 671 c 1
 553 726 496 767 416 792 c 1
 466 912 682 1149 998 1149 c 0
 1236 1149 1371 1028 1371 811 c 0
 1371 769 1366 723 1355 673 c 2
 1212 0 l 1
 992 0 l 1
 1132 657 l 2
 1139 692 1143 724 1143 753 c 0
 1143 870 1079 929 951 929 c 0
 845 929 760 896 697 831 c 1
 763 795 803 739 817 663 c 1
 689 551 652 536 618 376 c 2
 602 303 l 2
 569 148 514 -10 293 -10 c 0
 167 -10 122 73 122 154 c 0
EndSplineSet
EndChar
StartChar: uni0E21
Encoding: 154 3617 156
Width: 1350
Flags: HMW
HStem: -10 166<374.5 394 374.5 449.5> 0 21G<934 1153> 748 110<455 511.043> 1028 121<470.6 589>
VStem: 204.264 154.42<156.797 261.656> 333.18 118.508<875 981.181> 577.194 219.219<974.837 984.337>
Fore
533 1028 m 0x74
 485 1028 451.688 966.456 451.688 917.376 c 0
 451.688 885.951 465 858 496 858 c 0
 543 858 577.194 919.544 577.194 968.625 c 0
 577.194 1000.05 564 1028 533 1028 c 0x74
333.18 879.323 m 0
 333.18 1029.63 460 1149 589 1149 c 0
 719 1149 796.412 1090.71 796.412 983.624 c 0
 796.412 966.05 794 947 790 927 c 2
 684 430 l 1
 994 281 l 1
 1176 1139 l 1
 1395 1139 l 1
 1153 0 l 1
 934 0 l 1
 628 164 l 1
 606 63 507 -10 392 -10 c 0
 291 -10 204.264 41.1945 204.264 168.687 c 0x78
 204.264 299.614 286 473 482 507 c 1
 539 776 l 1
 516 757 488 748 455 748 c 0
 388 748 333.18 792.773 333.18 879.323 c 0
456 317 m 1
 399 317 358.684 244.633 358.684 187.888 c 0
 358.684 166.629 367 156 382 156 c 0
 406 156 424 167 436 222 c 2
 456 317 l 1
EndSplineSet
EndChar
StartChar: uni0E22
Encoding: 155 3618 157
Width: 1200
Flags: HW
HStem: 0 210<484 852> 495 131<636.226 729> 752 106<587.999 684.1> 1028 121<601.2 700.3>
VStem: 704 136<905.3 1010.98>
Fore
660 1028 m 0
 612 1028 579 966 579 917 c 0
 579 886 592 858 623 858 c 0
 670 858 704 920 704 969 c 0
 704 1000 691 1028 660 1028 c 0
572 743 m 0
 572 698 608 626 710 626 c 0
 731 626 757 628 757 628 c 1
 729 495 l 1
 657 494 l 2
 578 485 531 432 513 347 c 2
 484 210 l 1
 852 210 l 1
 1049 1139 l 1
 1269 1139 l 1
 1027 0 l 1
 201 0 l 1
 288 410 l 2
 298 457 356 520 429 562 c 1
 371 597 344 635 344 708 c 0
 344 740 350 781 361 831 c 0
 388 960 405 1024 493 1093 c 0
 552 1138 609 1149 635 1149 c 0
 799 1149 840 1062 840 985 c 0
 840 860 741 752 615 752 c 0
 602 752 588 753 574 756 c 1
 573 752 572 747 572 743 c 0
EndSplineSet
EndChar
StartChar: uni0E23
Encoding: 156 3619 158
Width: 1100
Flags: HW
HStem: -10 120<646.7 748.1> 280 121<661.6 764.3> 856 208<969.7 1205.32> 941 208<667.1 967.4>
VStem: 524 119<127.022 232.7> 839 233<549 701.1>
Fore
724 280 m 0xcc
 676 280 643 218 643 169 c 0
 643 138 656 110 687 110 c 0
 734 110 768 172 768 221 c 0
 768 252 755 280 724 280 c 0xcc
839 549 m 0
 839 666 550 689 262 742 c 1
 359 976 525 1149 817 1149 c 0xdc
 1016 1149 1021 1064 1192 1064 c 0
 1217 1064 1243 1067 1269 1072 c 1
 1185 862 l 1
 1164 857 1139 856 1113 856 c 0xec
 968 856 920 941 762 941 c 0xdc
 689 941 640 925 614 892 c 1
 874 840 1072 806 1072 633 c 0
 1072 615 1069 595 1065 573 c 2
 1007 303 l 2
 967 114 914 -10 736 -10 c 0
 561 -10 524 74 524 147 c 0
 524 286 629 401 755 401 c 0
 775 401 798 400 808 393 c 1
 836 529 l 2
 838 536 839 543 839 549 c 0
EndSplineSet
EndChar
StartChar: uni0E24
Encoding: 157 3620 159
Width: 1240
Flags: HMW
HStem: -10 120<429 543.7> 280 111<494 592> 929 220<683.2 987.4>
VStem: 235 201<129.889 232.8> 561 130<157.3 262.978> 1013 228<702.531 905.1>
Fore
691 255 m 0
 691 138 597 -10 429 -10 c 0
 282 -10 235 56 235 164 c 0
 235 205 241 252 252 303 c 2
 266 366 l 2
 299 523 329 560 459 671 c 1
 421 726 366 767 286 792 c 1
 337 912 552 1149 868 1149 c 0
 1106 1149 1241 1028 1241 811 c 0
 1241 769 1236 723 1225 673 c 2
 1001 -380 l 1
 781 -380 l 1
 1002 657 l 2
 1009 692 1013 724 1013 753 c 0
 1013 870 949 929 821 929 c 0
 715 929 631 896 567 831 c 1
 633 795 671 739 687 663 c 1
 544 538 521 532 485 363 c 1
 507 383 532 391 566 391 c 0
 618 391 691 353 691 255 c 0
480 110 m 0
 529 110 561 172 561 221 c 0
 561 252 548 280 517 280 c 0
 471 280 436 219 436 173 c 0
 436 140 452 110 480 110 c 0
EndSplineSet
EndChar
StartChar: uni0E25
Encoding: 158 3621 160
Width: 1250
Flags: HW
HStem: -10.007 120.007<432.845 555.7> 280 111<512.202 569.3> 520 220<460 843.5> 929 220<606.9 899.6>
VStem: 573.201 120.331<157.847 263> 989.73 228.253<728.597 933.525>
Fore
492 110 m 0
 541 110 573.201 172.334 573.201 220.625 c 0
 573.201 252.05 560 280 529 280 c 0
 483 280 448.158 218.65 448.158 173.137 c 0
 448.158 140.216 464 110 492 110 c 0
432.845 -10.007 m 0
 274.698 -10.007 234.942 70.6634 234.942 162.359 c 0
 234.942 209.268 245 259 254 303 c 2
 283 438 l 2
 325 634 509 740 723 740 c 0
 874 740 953 694 972 658 c 1
 984 714 l 2
 988 733 989.73 750.681 989.73 766.744 c 0
 989.73 895.037 869 929 767 929 c 0
 631 929 505 865 431 775 c 1
 323 929 l 1
 437 1071 654 1149 811 1149 c 0
 1033 1149 1217.98 1065.4 1217.98 830.877 c 0
 1217.98 795.164 1214 756 1205 713 c 2
 1053 0 l 1
 833 0 l 1
 889 263 l 2
 897 300 900.345 331.188 900.345 358.314 c 0
 900.345 496.256 806 520 681 520 c 0
 511 520 491 383 487 363 c 1
 508 382 533 391 564 391 c 0
 620 391 693.532 355.127 693.532 256.891 c 0
 693.532 149.236 607.72 -10.007 432.845 -10.007 c 0
EndSplineSet
EndChar
StartChar: uni0E26
Encoding: 159 3622 161
Width: 1350
Flags: HW
HStem: -10 120<251.7 353.1> 280 111<266.6 369.3> 929 220<813.2 1117.4>
VStem: 122 126<127.022 232.7> 1143 228<702.531 905.1>
Fore
329 280 m 0
 281 280 248 218 248 169 c 0
 248 138 261 110 292 110 c 0
 339 110 373 172 373 221 c 0
 373 252 360 280 329 280 c 0
122 154 m 0
 122 274 213 391 336 391 c 0
 363 391 382 381 395 363 c 1
 400 384 l 2
 429 523 464 565 589 671 c 1
 553 726 496 767 416 792 c 1
 468 912 682 1149 998 1149 c 0
 1236 1149 1371 1028 1371 811 c 0
 1371 769 1366 723 1355 673 c 2
 1131 -380 l 1
 911 -380 l 1
 1132 657 l 2
 1139 692 1143 724 1143 753 c 0
 1143 870 1079 929 951 929 c 0
 845 929 762 896 697 831 c 1
 763 795 803 739 817 663 c 1
 689 551 652 536 618 376 c 2
 602 303 l 2
 569 148 514 -10 293 -10 c 0
 167 -10 122 73 122 154 c 0
EndSplineSet
EndChar
StartChar: uni0E27
Encoding: 160 3623 162
Width: 1150
Flags: HW
HStem: -11 121<736.7 838.1> 280 115<751.6 854.3> 929 220<500.5 876.7>
VStem: 618.401 114.295<127 233.181> 971.37 225.464<729.295 933.745>
Fore
814 280 m 0
 766 280 732.695 218.456 732.695 169.376 c 0
 732.695 137.951 746 110 777 110 c 0
 824 110 858.201 171.544 858.201 220.625 c 0
 858.201 252.05 845 280 814 280 c 0
618.401 156.497 m 0
 618.401 292.131 725 395 820 395 c 0
 882 395 892 379 894 377 c 1
 966 714 l 2
 970 732 971.37 748.429 971.37 763.641 c 0
 971.37 894.491 838 929 709 929 c 0
 530 929 412 825 373 775 c 1
 265 929 l 1
 429 1078 559 1149 754 1149 c 0
 978 1149 1196.83 1079.52 1196.83 828.629 c 0
 1196.83 793.978 1193 756 1184 714 c 2
 1096 303 l 2
 1063 148 1022 -11 801 -11 c 0
 685 -11 618.401 52.4342 618.401 156.497 c 0
EndSplineSet
EndChar
StartChar: uni0E28
Encoding: 161 3624 163
Width: 1300
Flags: HW
HStem: 0 21G<186 419 954 1134> 313 104<699.5 802.2> 575 144<720.8 822.2> 969 180<636.1 1033.9>
VStem: 833.257 132.195<450.938 559.079> 1107.86 183.052<698.8 873.739>
Fore
745 417 m 0
 789 417 833.257 465.307 833.257 513.204 c 0
 833.257 546.48 812 575 778 575 c 0
 734 575 689.599 526.694 689.599 478.797 c 0
 689.599 445.52 710 417 745 417 c 0
830 969 m 0
 481 957 408.766 700.438 408.766 515.146 c 0
 408.766 447.27 418.172 387.119 418.172 318.574 c 2
 418 316 l 1
 489 488 640 719 807 719 c 0
 892 719 965.452 654.471 965.452 559.079 c 0
 965.452 441.973 837 313 733 313 c 0
 661 313 629 361 625 369 c 1
 524 232 428 19 419 0 c 1
 186 0 l 1
 209 108 l 2
 240 252 206 485 247 676 c 0
 327 1052 688 1149 861 1149 c 0
 994 1149 1081 1119 1164 1061 c 1
 1219 1094 1271 1148 1322 1224 c 1
 1540 1224 l 1
 1479 1108 1387 1012 1268 937 c 1
 1283 902 1290.92 858.424 1290.92 807.373 c 0
 1290.92 761.446 1285 709 1272 651 c 2
 1134 0 l 1
 954 0 l 1
 1103 702 l 2
 1106 716 1107.86 731.323 1107.86 746.886 c 0
 1107.86 848.636 1038 969 830 969 c 0
EndSplineSet
EndChar
StartChar: uni0E29
Encoding: 162 3625 164
Width: 1350
Flags: HMW
HStem: 0 210<561 947> 697 87<853.1 928.5> 749 109<380.7 457.185> 1026 125<394.6 525>
VStem: 258.457 118.924<872.876 978.256> 504.647 211.128<968.997 980.879> 734.177 106.147<582.481 677.341> 931.731 95.7423<630.724 692.019>
Fore
421 858 m 0xbb
 468 858 504.647 916.43 504.647 964.731 c 0
 504.647 997.028 490 1026 457 1026 c 0
 409 1026 377.382 963.829 377.382 915.74 c 0
 377.382 884.891 390 858 421 858 c 0xbb
258.457 883.805 m 0
 258.457 986.011 339 1151 525 1151 c 0
 662 1151 715.776 1091.22 715.776 984.33 c 0
 715.776 953.664 711 919 703 881 c 2
 561 210 l 1
 947 210 l 1
 991 421 l 1
 978 418 954 417 929 417 c 0
 831 417 734.177 474.74 734.177 582.481 c 0
 734.177 698.07 823 784 912 784 c 0xdb
 976 784 1027.47 760.335 1027.47 692.019 c 0
 1027.47 621.807 994 594 969 575 c 1
 971 568 982 564 1003 564 c 0
 1005 564 1006.94 563.608 1008.82 563.608 c 0
 1013.94 563.608 1018 565 1022 566 c 1
 1144 1139 l 1
 1364 1139 l 1
 1258 642 l 1
 1290 668 1312 711 1325 771 c 1
 1458 771 l 1
 1423 606 1359 528 1220 463 c 1
 1122 0 l 1
 296 0 l 1
 457 759 l 1
 442 754 423 749 401 749 c 0
 313 749 258.457 801.381 258.457 883.805 c 0
896 697 m 0
 863 697 840.324 668.87 840.324 640.632 c 0
 840.324 620.066 854 607 877 607 c 0
 920 607 931.731 647.106 931.731 653.713 c 0
 931.731 663.722 921 697 896 697 c 0
EndSplineSet
EndChar
StartChar: uni0E2A
Encoding: 163 3626 165
Width: 1250
Flags: HW
HStem: -10.007 120.007<432.845 555.7> 280 111<512.202 569.3> 520 220<460 843.5> 929 220<606.9 899.6>
VStem: 573.201 120.331<157.847 263> 988.955 231.706<746.461 879.694>
Fore
492 110 m 0
 541 110 573.201 172.334 573.201 220.625 c 0
 573.201 252.05 560 280 529 280 c 0
 483 280 448.158 218.65 448.158 173.137 c 0
 448.158 140.216 464 110 492 110 c 0
432.845 -10.007 m 0
 274.698 -10.007 234.942 70.6634 234.942 162.359 c 0
 234.942 209.268 245 259 254 303 c 2
 283 438 l 2
 325 634 509 740 723 740 c 0
 874 740 953 694 972 658 c 1
 984 714 l 2
 987 732 988.955 748.794 988.955 764.145 c 0
 988.955 894.579 869 929 767 929 c 0
 631 929 505 865 431 775 c 1
 323 929 l 1
 437 1071 654 1149 811 1149 c 0
 946 1149 1045 1119 1105 1059 c 1
 1164 1094 1215 1144 1259 1209 c 1
 1527 1209 l 1
 1500 1112 1326 980 1214 915 c 1
 1219 895 1220.66 872.357 1220.66 847.9 c 0
 1220.66 808.489 1215 764 1205 713 c 2
 1053 0 l 1
 833 0 l 1
 889 263 l 2
 897 300 900.69 331.782 900.69 359.08 c 0
 900.69 496.344 806 520 681 520 c 0
 511 520 491 383 487 363 c 1
 508 382 533 391 564 391 c 0
 620 391 693.532 355.127 693.532 256.891 c 0
 693.532 149.236 607.72 -10.007 432.845 -10.007 c 0
EndSplineSet
EndChar
StartChar: uni0E2B
Encoding: 164 3627 166
Width: 1350
Flags: HMW
HStem: 0 21G<332 606 978 1198> 745 112<412.7 488.197> 1012 137<1103.7 1244.1> 1025 124<426.6 567>
VStem: 291.285 117.885<873.367 977.257> 536.434 217.36<960.391 979.879> 962.164 145.558<872.822 958.438> 1095.31 235.739<560.193 667.847> 1252.61 147.689<944.286 1040.89>
Fore
453 857 m 0xda
 499 857 536.434 915.431 536.434 963.731 c 0
 536.434 996.028 521 1025 489 1025 c 0
 441 1025 409.169 962.83 409.169 914.742 c 0
 409.169 883.892 422 857 453 857 c 0xda
291.285 879.308 m 0
 291.285 1021.02 402 1149 567 1149 c 0xda
 690 1149 753.795 1064.44 753.795 968.147 c 0
 753.795 952.634 752 937 749 921 c 2
 635 385 l 1
 731 510 l 2
 852 654 944 732 1004 776 c 1
 976 813 962.164 854.734 962.164 898.977 c 0
 962.164 1045.14 1098 1149 1223 1149 c 0xea
 1331 1149 1400.3 1088.49 1400.3 993.297 c 0
 1400.3 961.763 1388 832 1269 764 c 1
 1307 741 1331.05 693.246 1331.05 642.448 c 0
 1331.05 631.706 1330 621 1328 610 c 2
 1198 0 l 1
 978 0 l 1
 1092 538 l 2
 1094 547 1095.31 556.102 1095.31 564.284 c 0
 1095.31 580.66 1091 595 1084 606 c 1
 955 532 740 245 606 0 c 1
 332 0 l 1
 493 759 l 1
 476 750 449 745 413 745 c 0
 333 745 291.285 801.825 291.285 879.308 c 0
1196 1012 m 0xea
 1125 1012 1107.72 944.073 1107.72 915.353 c 0
 1107.72 882.637 1127 862 1164 862 c 0
 1235 862 1252.61 929.926 1252.61 958.646 c 0
 1252.61 991.362 1233 1012 1196 1012 c 0xea
EndSplineSet
EndChar
StartChar: uni0E2C
Encoding: 165 3628 167
Width: 1400
Flags: HMW
HStem: 0 21G<311 531 1001 1221> 749 111<396.7 471.142> 1028 123<410.6 540> 1428 129<1266.6 1356>
VStem: 273 120<876.433 980.4> 520 214<976 983> 1111 125<1300.6 1405.9> 1368 146<1333.8 1417>
AnchorPoint: "AboveBase" 1052.81 1227 basechar 0
Fore
437 860 m 0
 483 860 520 918 520 967 c 0
 520 999 505 1028 473 1028 c 0
 425 1028 393 966 393 918 c 0
 393 887 406 860 437 860 c 0
273 883 m 0
 273 984 353 1151 540 1151 c 0
 687 1151 734 1081 734 989 c 0
 734 963 730 937 724 909 c 2
 637 500 l 1
 956 1039 l 1
 1013 1039 l 1
 1107 500 l 1
 1247 1158 l 1
 1162 1173 1111 1230 1111 1311 c 0
 1111 1398 1175 1557 1356 1557 c 0
 1453 1557 1514 1499 1514 1411 c 0
 1514 1387 1511 1358 1504 1325 c 2
 1499 1301 l 1
 1595 1308 1648 1375 1675 1487 c 1
 1809 1487 l 1
 1765 1230 1551 1154 1466 1154 c 1
 1221 0 l 1
 1001 0 l 1
 897 600 l 1
 531 0 l 1
 311 0 l 1
 472 759 l 1
 457 754 438 750 416 749 c 0
 328 749 273 801 273 883 c 0
1316 1428 m 0
 1278 1428 1236 1393 1236 1350 c 0
 1236 1312 1273 1302 1289 1302 c 0
 1334 1302 1368 1344 1368 1378 c 0
 1368 1408 1342 1428 1316 1428 c 0
EndSplineSet
EndChar
StartChar: uni0E2D
Encoding: 166 3629 168
Width: 1230
Flags: HW
HStem: 0 210<488 875> 354 101<527.556 623.4> 625 123<534.6 638.6> 929 220<580.4 895>
VStem: 641.548 114.572<503.91 607.827> 987.73 231.901<747.351 933.396>
Fore
561 455 m 0
 609 455 641.548 518.04 641.548 565.138 c 0
 641.548 596.761 629 625 597 625 c 0
 549 625 516.534 560.629 516.534 517.716 c 0
 516.534 484.959 532 455 561 455 c 0
756.12 582.854 m 0
 756.12 442.804 642 354 553 354 c 0
 540 354 528 355 519 358 c 1
 488 210 l 1
 875 210 l 1
 982 715 l 2
 986 734 987.73 750.616 987.73 766.271 c 0
 987.73 894.829 865 929 765 929 c 0
 623 929 508 871 428 775 c 1
 315 936 l 1
 447 1078 612 1149 809 1149 c 0
 1034 1149 1219.63 1047.06 1219.63 837.638 c 0
 1219.63 810.56 1217 782 1210 751 c 2
 1050 0 l 1
 223 0 l 1
 315 434 l 2
 353 612 414 748 590 748 c 0
 721 748 756.12 661.182 756.12 582.854 c 0
EndSplineSet
EndChar
StartChar: uni0E2E
Encoding: 167 3630 169
Width: 1250
Flags: HMW
HStem: 0 210<495 882> 354 101<534.556 630.4> 625 123<541.6 645.6> 746 148<701.687 862.3> 972 177<730.075 893>
VStem: 648.548 114.572<503.91 607.827>
Fore
568 455 m 0
 616 455 648.548 518.04 648.548 565.138 c 0
 648.548 596.761 636 625 604 625 c 0
 556 625 523.534 560.629 523.534 517.716 c 0
 523.534 484.959 539 455 568 455 c 0
763.12 582.854 m 0
 763.12 442.804 649 354 560 354 c 0
 547 354 535 355 526 358 c 1
 495 210 l 1
 882 210 l 1
 995 741 l 2
 1001 770 1005 793 1005 808 c 1
 923 767 832 746 731 746 c 0
 571 746 398.006 801.386 398.006 916.988 c 0
 398.006 1056.53 632 1149 829 1149 c 0
 946 1149 1045 1121 1124 1064 c 1
 1159 1099 1183 1131 1196 1158 c 1
 1309 1116 l 1
 1275 1061 1239 1014 1201 975 c 1
 1221 934 1230.71 891.18 1230.71 847.884 c 0
 1230.71 827.462 1228 807 1224 786 c 2
 1057 0 l 1
 230 0 l 1
 322 434 l 2
 360 612 421 748 597 748 c 0
 728 748 763.12 661.182 763.12 582.854 c 0
802 972 m 0
 757 972 672.664 954.68 672.664 928.7 c 0
 672.664 901.408 744 894 772 894 c 0
 874 894 929 930 935 935 c 1
 915 957 872 972 802 972 c 0
EndSplineSet
EndChar
StartChar: uni0E2F
Encoding: 168 3631 170
Width: 1150
Flags: HMW
HStem: 0 21G<805 1025> 665 192<628 752.8> 1023 124<486.5 591>
VStem: 318.353 143.053<872.586 999.746> 601.002 157.607<949.184 1055.69>
Fore
758.609 1008.26 m 0
 758.609 968.316 735 892 697 860 c 1
 731 857 l 2
 905 857 1026 1032 1049 1149 c 1
 1269 1149 l 1
 1025 0 l 1
 805 0 l 1
 970 776 l 1
 880 687 724 665 628 665 c 0
 391 665 318.353 765.21 318.353 872.586 c 0
 318.353 1009.03 420 1147 591 1147 c 0
 669 1147 758.609 1103.13 758.609 1008.26 c 0
517 889 m 0
 563 889 601.002 926.103 601.002 972.266 c 0
 601.002 1003.15 580 1023 545 1023 c 0
 500 1023 461.406 985.897 461.406 939.734 c 0
 461.406 908.854 483 889 517 889 c 0
EndSplineSet
EndChar
StartChar: uni0E30
Encoding: 169 3632 171
Width: 1100
Flags: HW
HStem: 79 154<509 702.7> 388 110<350.1 476.2> 603 154<620 813.7> 912 110<460.8 586.9>
VStem: 233.715 121.92<273.591 350.652> 345.095 121.92<797.591 874.652> 483.801 129.251<314.963 382.409> 595.181 129.251<838.964 906.409>
Fore
613.053 367.248 m 0xfa
 613.053 327.899 589 263 561 233 c 1
 670 233 823 334 858 480 c 1
 1024 480 l 1
 973 241 748 79 509 79 c 0
 304 79 233.715 187.217 233.715 277.253 c 0
 233.715 346.425 286 498 472 498 c 0
 575 498 613.053 426.651 613.053 367.248 c 0xfa
407 268 m 0
 470 268 483.801 319.881 483.801 346.065 c 0
 483.801 374.022 466 388 432 388 c 0
 369 388 355.636 336.088 355.636 309.934 c 0
 355.636 281.978 374 268 407 268 c 0
724.432 891.249 m 0xf5
 724.432 851.9 700 787 672 757 c 1
 781 757 934 858 969 1004 c 1
 1135 1004 l 1
 1085 765 859 603 620 603 c 0
 415 603 345.095 711.217 345.095 801.253 c 0
 345.095 870.425 397 1022 583 1022 c 0
 687 1022 724.432 950.652 724.432 891.249 c 0xf5
518 792 m 0
 582 792 595.181 843.881 595.181 870.065 c 0
 595.181 898.022 577 912 544 912 c 0
 480 912 467.016 860.088 467.016 833.934 c 0
 467.016 805.978 485 792 518 792 c 0
EndSplineSet
EndChar
StartChar: uni0E31
Encoding: 170 3633 172
Width: 0
Flags: HW
HStem: 1233 154<-151 42.7> 1542 110<-310.2 -184.1>
VStem: -425.994 121.921<1427.59 1504.67> -175.909 129.252<1468.96 1536.41>
AnchorPoint: "AboveBase" 80.8066 1227 mark 0
AnchorPoint: "AboveMark" 107.849 1740 basemark 0
Fore
-47 1521 m 0
 -47 1482 -71 1417 -99 1387 c 1
 10 1387 163 1488 198 1634 c 1
 364 1634 l 1
 314 1395 88 1233 -151 1233 c 0
 -356 1233 -426 1341 -426 1431 c 0
 -426 1500 -374 1652 -188 1652 c 0
 -84 1652 -47 1581 -47 1521 c 0
-253 1422 m 0
 -189 1422 -176 1474 -176 1500 c 0
 -176 1528 -194 1542 -227 1542 c 0
 -291 1542 -304 1490 -304 1464 c 0
 -304 1436 -286 1422 -253 1422 c 0
EndSplineSet
EndChar
StartChar: uni0E32
Encoding: 171 3634 173
Width: 1150
Flags: HW
HStem: 0 21G<736 956> 929 220<562.3 874.3>
VStem: 897.461 230.18<761.844 903.619>
Fore
300 846 m 1
 393 999 584 1149 766 1149 c 0
 990 1149 1127.64 1047.47 1127.64 855.778 c 0
 1127.64 823.982 1124 790 1116 753 c 2
 956 0 l 1
 736 0 l 1
 891 729 l 2
 895 749 897.461 768.542 897.461 786.198 c 0
 897.461 876.522 841 929 730 929 c 0
 601 929 506 810 480 764 c 1
 300 846 l 1
EndSplineSet
EndChar
StartChar: uni0E34
Encoding: 173 3636 175
Width: 0
Flags: HW
HStem: 1331 110<-898 -579.5> 1520 159<-489.4 -258.2>
VStem: -898 979<1228 1331>
AnchorPoint: "AboveBase" 80.8066 1227 mark 0
AnchorPoint: "AboveMark" 62.8486 1740 basemark 0
Fore
81 1228 m 1
 -132 1277 -653 1331 -898 1331 c 1
 -764 1549 -562 1679 -318 1679 c 0
 -272 1679 -153 1673 -41 1575 c 0
 42 1502 81 1397 81 1246 c 0
 81 1228 l 1
-139 1392 m 1
 -170 1481 -247 1520 -388 1520 c 0
 -466 1520 -536 1490 -588 1441 c 1
 -431 1441 -226 1414 -139 1392 c 1
EndSplineSet
EndChar
StartChar: uni0E35
Encoding: 174 3637 176
Width: 0
Flags: HW
HStem: 1323 106<-844 -539.8> 1499 143<-451.4 -194>
AnchorPoint: "AboveBase" 80.8066 1227 mark 0
AnchorPoint: "AboveMark" 90.8486 1740 basemark 0
Fore
-310 1642 m 0
 -208 1642 -110 1620 -41 1546 c 1
 -1 1735 l 1
 181 1735 l 1
 80 1260 l 1
 80 1255 80 1244 80 1228 c 1
 -114 1272 -610 1323 -844 1323 c 1
 -765 1476 -558 1642 -310 1642 c 0
-134 1387 m 1
 -161 1455 -233 1499 -363 1499 c 0
 -431 1499 -496 1470 -540 1429 c 1
 -398 1429 -213 1405 -134 1387 c 1
EndSplineSet
EndChar
StartChar: uni0E36
Encoding: 175 3638 177
Width: 0
Flags: HW
HStem: 1321 116<77.7871 154.639> 1323 96<-843.788 -537.382> 1500 140<-444.365 -186.965> 1559 122<86.1806 173.348>
VStem: 186.747 121.434<1454.42 1547.52>
AnchorPoint: "AboveBase" 170.807 1227 mark 0
AnchorPoint: "AboveMark" 172.849 1740 basemark 0
Fore
308.181 1538.31 m 0x18
 308.181 1430.59 208.283 1321 77.7871 1321 c 1x98
 79.9784 1306.68 81 1257 80 1228 c 5
 -114 1272 -609.788 1323 -843.788 1323 c 1
 -770.754 1469 -562.407 1640 -287.407 1640 c 0x68
 -143.407 1640 -75.9727 1595 -49.9863 1562 c 1
 -9.04492 1637 76.3076 1681 151.308 1681 c 0
 247.366 1681 308.181 1619.23 308.181 1538.31 c 0x18
107.443 1437 m 0
 143.748 1437 186.747 1467.32 186.747 1510.33 c 0
 186.747 1538.93 164.123 1559 133.376 1559 c 0
 97.0719 1559 54.0734 1528.68 54.0734 1485.67 c 0
 54.0734 1457.07 76.6962 1437 107.443 1437 c 0
-139.522 1376 m 1
 -161.769 1436 -221.165 1500 -335.165 1500 c 0
 -419.165 1500 -515.068 1444 -537.382 1419 c 1x68
 -405.382 1419 -214.483 1395 -139.522 1376 c 1
EndSplineSet
EndChar
StartChar: uni0E37
Encoding: 176 3639 178
Width: 0
Flags: HW
HStem: 1323 91<-825 -558.5> 1506 128<-480.3 -237.585>
VStem: -825 1003<1323 1722>
AnchorPoint: "AboveBase" 80.8066 1227 mark 0
AnchorPoint: "AboveMark" -11.1514 1740 basemark 0
Fore
-825 1323 m 1
 -737 1482 -541 1634 -301 1634 c 0
 -279 1634 -262 1632 -235 1625 c 1
 -214 1723 l 1
 -38 1723 l 1
 -67 1587 l 1
 -52 1583 -39 1571 -28 1551 c 1
 8 1722 l 1
 178 1722 l 1
 85 1285 l 1
 75 1228 l 1
 -123 1273 -620 1323 -825 1323 c 1
-109 1370 m 1
 -139 1487 -256 1506 -297 1506 c 0
 -438 1506 -491 1482 -560 1414 c 1
 -356 1406 -142 1380 -109 1370 c 1
EndSplineSet
EndChar
StartChar: uni0E38
Encoding: 177 3640 179
Width: 0
Flags: HW
HStem: -176 91<-461.4 -370>
VStem: -579.908 91.8348<-291.879 -193.892> -388.254 171.339<-274.231 -180.122>
AnchorPoint: "BelowBase" -179.067 -85 mark 0
Fore
-579.908 -276.047 m 0
 -579.908 -196.613 -523 -85 -370 -85 c 4
 -251 -85 -216.914 -147.203 -216.914 -225.662 c 0
 -216.914 -253.418 -221 -283 -228 -313 c 2
 -275 -534 l 1
 -475 -534 l 1
 -440 -370 l 1
 -453 -375 -465 -378 -477 -378 c 0
 -514 -376 -579.908 -356.118 -579.908 -276.047 c 0
-425 -176 m 0
 -453 -176 -488.073 -207.529 -488.073 -252.988 c 0
 -488.073 -282.904 -468 -296 -451 -296 c 0
 -423 -296 -388.254 -264.486 -388.254 -219.014 c 0
 -388.254 -189.097 -408 -176 -425 -176 c 0
EndSplineSet
EndChar
StartChar: uni0E39
Encoding: 178 3641 180
Width: 0
Flags: HW
HStem: -504 129<-505 -389> -351 73<-698.032 -652.652> -158 83<-683.1 -619>
VStem: -798.236 87.9892<-273.879 -175.892> -610.428 135.766<-258.851 -162.122>
AnchorPoint: "BelowBase" -179.067 -85 mark 0
Fore
-648 -158 m 4
 -675 -158 -710.247 -189.529 -710.247 -234.988 c 0
 -710.247 -264.904 -690 -278 -673 -278 c 4
 -645 -278 -610.428 -246.486 -610.428 -201.014 c 0
 -610.428 -171.097 -631 -158 -648 -158 c 4
-798.236 -254.214 m 0
 -798.236 -174.918 -717 -75 -619 -75 c 4
 -505 -75 -474.662 -129.682 -474.662 -198.246 c 0
 -474.662 -227.369 -480 -259 -487 -290 c 6
 -505 -375 l 5
 -389 -375 l 5
 -330 -98 l 5
 -181 -98 l 5
 -267 -504 l 5
 -681 -504 l 5
 -645 -335 l 5
 -657 -345 -677 -351 -698 -351 c 4
 -749 -351 -798.236 -315.586 -798.236 -254.214 c 0
EndSplineSet
EndChar
StartChar: uni0E3A
Encoding: 179 3642 181
Width: 0
Flags: HW
AnchorPoint: "BelowBase" -171.816 -65 mark 0
Fore
-424.332 -221.818 m 0
 -424.332 -148.812 -352 -60 -259 -60 c 4
 -185 -60 -149.788 -115.17 -149.788 -169.505 c 0
 -149.788 -247.219 -231 -330 -316 -330 c 0
 -377 -330 -424.332 -283.806 -424.332 -221.818 c 0
EndSplineSet
EndChar
StartChar: uni0E3F
Encoding: 180 3647 182
Width: 1250
Flags: HW
HStem: 0 190<408 541> 689 227<563 687 897 997.5> 1291 198<642 815 1018 1087.8>
VStem: 1057 253<337.1 693.3> 1130 254<980.7 1295.3>
Fore
1310 571 m 0xf0
 1310 267 1051 2 707 2 c 0
 706 2 704 2 702 2 c 1
 674 -133 l 1
 513 -133 l 1
 541 0 l 1
 132 0 l 1
 448 1489 l 1
 857 1489 l 1
 880 1595 l 1
 1041 1595 l 1
 1018 1489 l 1
 1315 1485 1384 1352 1384 1229 c 0xe8
 1384 1035 1283 870 1140 836 c 1
 1138 827 l 1
 1249 794 1310 705 1310 571 c 0xf0
736 916 m 1
 815 1291 l 1
 642 1291 l 1
 563 916 l 1
 736 916 l 1
897 916 m 1
 1048 916 1130 1026 1130 1177 c 0
 1130 1268 1062 1287 976 1291 c 1
 897 916 l 1
581 190 m 1
 687 689 l 1
 514 689 l 1
 408 190 l 1
 581 190 l 1
743 194 m 1
 968 207 1057 380 1057 523 c 0xf0
 1057 654 963 687 848 687 c 1
 743 194 l 1
EndSplineSet
EndChar
StartChar: uni0E40
Encoding: 181 3648 183
Width: 700
Flags: HMW
HStem: -10 120<385 499.7> 280 111<450 545.5> 1126 20G<388 608>
VStem: 190.639 201.52<130.018 232.304> 517.201 130.237<157.847 263>
Fore
647.438 256.149 m 0
 647.438 137.087 549 -10 385 -10 c 0
 238 -10 190.639 56.2821 190.639 164.046 c 0
 190.639 204.863 197 252 208 303 c 2
 388 1146 l 1
 608 1146 l 1
 441 364 l 1
 462 383 487 391 518 391 c 0
 573 391 647.438 354.946 647.438 256.149 c 0
436 110 m 0
 485 110 517.201 172.334 517.201 220.625 c 0
 517.201 252.05 504 280 473 280 c 0
 427 280 392.158 218.65 392.158 173.137 c 0
 392.158 140.216 408 110 436 110 c 0
EndSplineSet
EndChar
StartChar: uni0E41
Encoding: 182 3649 184
Width: 1320
Flags: HMW
HStem: -10 120<431.6 531.7 1024.6 1124.7> 280 111<482 577.5> 1126 20G<420 640 1013 1233>
VStem: 222.639 201.52<130.018 232.304> 549.201 130.237<157.847 263> 815.639 201.52<130.018 232.304> 1142.2 130.237<157.847 263>
Fore
1272.44 256.149 m 0
 1272.44 137.087 1174 -10 1010 -10 c 0
 863 -10 815.639 56.2821 815.639 164.046 c 0
 815.639 204.863 822 252 833 303 c 2
 1013 1146 l 1
 1233 1146 l 1
 1066 364 l 1
 1087 383 1112 391 1143 391 c 0
 1198 391 1272.44 354.946 1272.44 256.149 c 0
1061 110 m 0
 1110 110 1142.2 172.334 1142.2 220.625 c 0
 1142.2 252.05 1129 280 1098 280 c 0
 1052 280 1017.16 218.65 1017.16 173.137 c 0
 1017.16 140.216 1033 110 1061 110 c 0
679.438 256.149 m 0
 679.438 137.087 581 -10 417 -10 c 0
 270 -10 222.639 56.2821 222.639 164.046 c 0
 222.639 204.863 229 252 240 303 c 2
 420 1146 l 1
 640 1146 l 1
 473 364 l 1
 494 383 519 391 550 391 c 0
 605 391 679.438 354.946 679.438 256.149 c 0
468 110 m 0
 517 110 549.201 172.334 549.201 220.625 c 0
 549.201 252.05 536 280 505 280 c 0
 459 280 424.158 218.65 424.158 173.137 c 0
 424.158 140.216 440 110 468 110 c 0
EndSplineSet
EndChar
StartChar: uni0E42
Encoding: 183 3650 185
Width: 1100
Flags: HMW
HStem: -10 120<782 896.7> 280 111<847 942.5> 1252 211<997.1 1183> 1347 217<662.1 883.1>
VStem: 587.639 201.52<130.018 232.304> 736.227 227.702<907.668 1111.6> 914.201 130.237<157.847 263>
Fore
1044.44 256.149 m 0x92
 1044.44 137.087 946 -10 782 -10 c 0
 635 -10 587.639 56.2821 587.639 164.046 c 0x9a
 587.639 204.863 594 252 605 303 c 2
 722 850 l 2
 730 890 736.227 925.547 736.227 956.245 c 0
 736.227 1075.75 646 1129 271 1175 c 1
 380 1400 564 1564 755 1564 c 0x94
 896 1564 1040 1467 1183 1463 c 0
 1261 1463 1326 1483 1380 1524 c 1
 1280 1297 l 1
 1217 1267 1152 1252 1084 1252 c 0xa4
 944 1252 848 1347 731 1347 c 0
 678 1347 652 1318 633 1295 c 1
 877 1246 963.929 1142.7 963.929 999.11 c 0x94
 963.929 968.505 960 936 953 902 c 2
 838 364 l 1
 859 383 884 391 915 391 c 0
 970 391 1044.44 354.946 1044.44 256.149 c 0x92
833 110 m 0
 882 110 914.201 172.334 914.201 220.625 c 0
 914.201 252.05 901 280 870 280 c 0
 824 280 789.158 218.65 789.158 173.137 c 0
 789.158 140.216 805 110 833 110 c 0
EndSplineSet
EndChar
StartChar: uni0E43
Encoding: 184 3651 186
Width: 1000
Flags: HMW
HStem: -10 120<735 849.7> 280 111<800 895.5> 942 161<518.9 660.6> 1350 211<833 976.2>
VStem: 317.216 192.149<1124.78 1228.26> 541.072 201.086<130.018 232.304> 686.819 184.519<1143.75 1247.22> 867.201 130.237<157.847 263> 975.66 213.075<1084.67 1307.16>
Fore
317.216 1148.76 m 0xba80
 317.216 1395.3 549 1561 833 1561 c 0
 1068 1561 1188.74 1462.52 1188.74 1278.68 c 0xba80
 1188.74 937.685 916 952 860 685 c 2
 791 364 l 1
 812 383 837 391 868 391 c 0
 923 391 997.438 354.946 997.438 256.149 c 0
 997.438 137.087 899 -10 735 -10 c 0
 588 -10 541.072 56.4124 541.072 164.364 c 0xbd
 541.072 205.105 548 252 558 303 c 2
 629 633 l 2
 667 820 729 881 824 962 c 0
 915 1047 975.66 1115.34 975.66 1217.57 c 0
 975.66 1286.49 939 1345 815 1350 c 1
 853 1345 871.338 1289.79 871.338 1231.46 c 0
 871.338 1058.05 725 942 536 942 c 0
 385 942 317.216 1034.11 317.216 1148.76 c 0xba80
786 110 m 0
 835 110 867.201 172.334 867.201 220.625 c 0
 867.201 252.05 854 280 823 280 c 0
 777 280 742.158 218.65 742.158 173.137 c 0xbd
 742.158 140.216 758 110 786 110 c 0
580 1103 m 0
 642 1103 686.819 1157.26 686.819 1202.29 c 0xba
 686.819 1236.85 663 1269 616 1269 c 0
 554 1269 509.365 1214.75 509.365 1169.71 c 0
 509.365 1135.15 533 1103 580 1103 c 0
EndSplineSet
EndChar
StartChar: uni0E44
Encoding: 185 3652 187
Width: 1140
Flags: HMW
HStem: -10 120<870 984.7> 280 111<935 1030.5> 1047 235<496.5 619.5> 1256 316<853.5 1032>
VStem: 354 192.182<1285.3 1504.12> 675.639 201.52<130.018 232.304> 886.313 253.994<1218.74 1439.32> 1002.2 130.237<157.847 263>
Fore
921 110 m 0
 970 110 1002.2 172.334 1002.2 220.625 c 0
 1002.2 252.05 989 280 958 280 c 0
 912 280 877.158 218.65 877.158 173.137 c 0
 877.158 140.216 893 110 921 110 c 0
1132.44 256.149 m 0
 1132.44 137.087 1034 -10 870 -10 c 0
 723 -10 675.639 56.2821 675.639 164.046 c 0
 675.639 204.863 682 252 693 303 c 2
 883 1194 l 2
 885 1205 886.313 1214.67 886.313 1222.81 c 0
 886.313 1244.81 878 1256 861 1256 c 0
 846 1256 828 1242 809 1215 c 2
 760 1148 l 2
 706 1081 636 1048 549 1047 c 0
 444 1047 374 1135 354 1366 c 2
 346 1521 l 1
 543 1521 l 1
 552 1405 564 1282 608 1282 c 0
 631 1282 658 1302 687 1343 c 2
 764 1454 l 2
 831 1542 890 1572 958 1572 c 0
 1106 1572 1140.31 1478.37 1140.31 1400.26 c 0
 1140.31 1378.52 1138 1358 1134 1341 c 2
 926 364 l 1
 947 383 972 391 1003 391 c 0
 1058 391 1132.44 354.946 1132.44 256.149 c 0
EndSplineSet
EndChar
StartChar: uni0E45
Encoding: 186 3653 188
Width: 1000
Flags: HW
HStem: 929 220<490.3 802.3>
VStem: 825.461 230.146<760.81 903.619>
Fore
694 1149 m 0
 927 1149 1055.61 1038.41 1055.61 853.27 c 0
 1055.61 827.884 1053 801 1048 773 c 2
 803 -380 l 1
 583 -380 l 1
 819 729 l 2
 823 749 825.461 768.542 825.461 786.198 c 0
 825.461 876.522 769 929 658 929 c 0
 529 929 434 810 408 764 c 1
 228 846 l 1
 321 999 512 1149 694 1149 c 0
EndSplineSet
EndChar
StartChar: uni0E46
Encoding: 187 3654 189
Width: 1100
Flags: HMW
HStem: 457 129<415.139 520.601> 821 220<725.509 772.271> 929 220<589.465 636.228>
VStem: 248.451 168.115<602.367 706.256> 543.832 134.711<629.941 734.775> 929.745 209.959<762.481 868.136>
Fore
460.559 586 m 0
 506.745 586 543.832 644.431 543.832 692.731 c 0
 543.832 725.028 528.726 754 496.268 754 c 0
 448.447 754 416.566 691.83 416.566 643.741 c 0
 416.566 612.892 429.287 586 460.559 586 c 0
678.543 723.771 m 0
 678.543 595.727 569.821 457 415.139 457 c 0
 282.933 457 248.451 552.556 248.451 636.433 c 0
 248.451 789.59 377.545 1050.55 636.228 1149 c 1
 772.271 1041 l 1
 939.228 1149 l 1
 1058.76 1113.81 1139.7 973.313 1139.7 837.469 c 0
 1139.7 815.02 1137.49 792.698 1132.88 771 c 2
 888.229 -380 l 1
 682.229 -380 l 1
 926.881 771 l 2
 928.852 780.273 929.745 790.537 929.745 801.283 c 0
 929.745 849.637 911.67 907.727 892.465 929 c 1
 725.509 821 l 1
 589.465 929 l 1
 559.663 897 540.712 869 539.224 862 c 1
 650.458 862 678.543 788.365 678.543 723.771 c 0
EndSplineSet
EndChar
StartChar: uni0E47
Encoding: 188 3655 190
Width: 0
Flags: HW
HStem: 1284 143<-323.4 -196> 1372 167<-488.9 -364.2>
VStem: -720.488 181.436<1458.34 1623.39> -255.207 86.3704<1497.75 1542.75>
AnchorPoint: "AboveBase" -49.1934 1227 mark 0
AnchorPoint: "AboveMark" -402.193 1227 mark 0
Fore
-136 1486 m 0x30
 -107 1486 -87.2909 1511.94 -87.2909 1531.27 c 0
 -87.2909 1547.56 -99 1562 -120 1562 c 0
 -149 1562 -168.836 1536.06 -168.836 1516.73 c 0
 -168.836 1500.44 -157 1486 -136 1486 c 0x30
-196 1284 m 0xb0
 -380 1284 -387 1372 -463 1372 c 0x70
 -508 1372 -509 1288 -523 1284 c 1xb0
 -680 1284 -720.488 1377.67 -720.488 1458.34 c 0
 -720.488 1585.3 -614 1718 -478 1751 c 0
 -289 1796 -88 1741 -5 1894 c 1
 177 1894 l 1
 144 1792 4 1682 -91 1660 c 0
 -245 1625 -539.052 1650.3 -539.052 1508.59 c 0
 -539.052 1499.83 -537 1494 -534 1486 c 1
 -509 1521 -479 1539 -446 1539 c 0x70
 -364 1539 -306 1427 -248 1427 c 0
 -230 1427 -223 1434 -222 1434 c 1
 -244 1450 -255.207 1470.7 -255.207 1497.75 c 0
 -255.207 1564.6 -187 1636 -101 1636 c 0
 5 1636 26.458 1575.7 26.458 1525.34 c 0
 26.458 1417.78 -58 1284 -196 1284 c 0xb0
EndSplineSet
EndChar
StartChar: uni0E48
Encoding: 189 3656 191
Width: 0
Flags: W
VStem: 10 291<1826 2106>
AnchorPoint: "AboveMark" 107.849 1740 mark 0
Fore
70 2106 m 1
 301 2106 l 1
 241 1826 l 1
 10 1826 l 1
 70 2106 l 1
EndSplineSet
Substitution: 0 65534 'loww' uni0E48.low
MultipleSubs: 0 65534 'amtn' uni0E4D uni0E48
EndChar
StartChar: uni0E49
Encoding: 190 3657 192
Width: 0
Flags: HW
HStem: 1878 89<-146.1 -94.2068> 2073 97<-136.1 -52.9>
VStem: -252.606 97.5159<1992.45 2055.41>
AnchorPoint: "AboveMark" 83.8486 1740 mark 0
Fore
-252.606 1992.45 m 0
 -252.606 2096.98 -157 2170 -79 2170 c 0
 18 2170 79.7773 2106.27 79.7773 2034.98 c 0
 79.7773 1998.89 59 1941 43 1915 c 1
 104 1927 246 1982 342 2156 c 1
 524 2156 l 1
 420 1930 169 1761 -120 1716 c 0
 -148 1712 -184 1708 -230 1703 c 1
 -207 1810 l 1
 -185 1815 -121 1832 -99 1885 c 1
 -113 1880 -129 1878 -144 1878 c 0
 -212 1878 -252.606 1926.64 -252.606 1992.45 c 0
-88 2073 m 0
 -125 2073 -155.09 2044.22 -155.09 2006.9 c 0
 -155.09 1982.39 -138 1967 -111 1967 c 0
 -74 1967 -44.1819 1995.78 -44.1819 2033.1 c 0
 -44.1819 2057.61 -61 2073 -88 2073 c 0
EndSplineSet
Substitution: 0 65534 'loww' uni0E49.low
MultipleSubs: 0 65534 'amtn' uni0E4D uni0E49
EndChar
StartChar: uni0E4A
Encoding: 191 3658 193
Width: 0
Flags: HMW
HStem: 1668 89<-322 -214> 1837 77<-281.856 -220.4> 1858 178<-112 -74> 1976 178<-227 -189>
VStem: -216 76<1776.53 1829.81>
AnchorPoint: "AboveMark" -88.1514 1740 mark 0
Fore
-249 1837 m 0
 -288 1837 -298 1801 -298 1786 c 0
 -298 1768 -287 1757 -266 1757 c 0
 -226 1757 -216 1792 -216 1804 c 0
 -216 1821 -227 1837 -249 1837 c 0
-140 1828 m 0
 -140 1733 -216 1668 -322 1668 c 0
 -445 1668 -478 1750 -478 1824 c 0
 -478 2022 -277 2125 -189 2154 c 1
 -74 2036 l 1
 93 2154 l 1
 185 2116 262 2046 262 1961 c 0
 262 1935 256 1922 255 1918 c 1
 406 2169 l 1
 586 2169 l 1
 585 2169 518 2057 385 1832 c 0
 296 1683 89 1672 30 1672 c 1
 91 1743 102 1815 102 1857 c 0
 102 1923 74 1962 55 1976 c 1
 -112 1858 l 1
 -227 1976 l 1
 -258 1965 -299 1932 -312 1886 c 1
 -286 1905 -259 1914 -226 1914 c 0
 -171 1914 -140 1882 -140 1828 c 0
EndSplineSet
Substitution: 0 65534 'loww' uni0E4A.low
MultipleSubs: 0 65534 'amtn' uni0E4D uni0E4A
EndChar
StartChar: uni0E4B
Encoding: 192 3659 194
Width: 0
Flags: W
HStem: 1793 174<-172 -78 131 217>
VStem: -209 463<1793 1967>
AnchorPoint: "AboveMark" -24.4072 1640 mark 0
Fore
217 1793 m 1
 94 1793 l 1
 68 1670 l 1
 -104 1670 l 1
 -78 1793 l 1
 -209 1793 l 1
 -172 1967 l 1
 -41 1967 l 1
 -13 2096 l 1
 159 2096 l 1
 131 1967 l 1
 254 1967 l 1
 217 1793 l 1
EndSplineSet
Substitution: 0 65534 'loww' uni0E4B.low
MultipleSubs: 0 65534 'amtn' uni0E4D uni0E4B
EndChar
StartChar: uni0E4C
Encoding: 193 3660 195
Width: 0
Flags: HW
HStem: 1621 112<-89.5 6.7>
VStem: -238.267 136.469<1745.21 1815.08> 40.8755 133.276<1748.5 1844.79>
AnchorPoint: "AboveMark" -45.1514 1740 mark 0
Fore
174.152 1824.62 m 0
 174.152 1724.82 73 1621 -45 1621 c 0
 -164 1621 -238.267 1681.14 -238.267 1768.97 c 0
 -238.267 1780.53 -237 1793 -234 1805 c 0
 -168 2118 186 1977 333 2169 c 1
 513 2169 l 1
 428 2022 216 1921 128 1918 c 1
 155 1902 174.152 1868.44 174.152 1824.62 c 0
-44 1733 m 0
 -5 1733 40.8755 1762.07 40.8755 1807.32 c 0
 40.8755 1836.14 18 1857 -17 1857 c 0
 -56 1857 -101.797 1827.93 -101.797 1782.68 c 0
 -101.797 1753.86 -79 1733 -44 1733 c 0
EndSplineSet
Substitution: 0 65534 'loww' uni0E4C.low
MultipleSubs: 0 65534 'amtn' uni0E4D uni0E4C
EndChar
StartChar: uni0E4D
Encoding: 194 3661 196
Width: 0
Flags: HW
HStem: 1212 153<-54.8 46.6> 1515 153<-30.6 70.8>
VStem: -227.408 152.192<1382.74 1489.36> 91.379 152.192<1390.64 1497.26>
AnchorPoint: "AboveBase" 155.807 1227 mark 0
AnchorPoint: "AboveMark" 108.849 1740 basemark 0
Fore
-227.408 1389.6 m 0
 -227.408 1531.13 -100 1668 57 1668 c 0
 169 1668 243.571 1594.52 243.571 1490.4 c 0
 243.571 1348.87 116 1212 -40 1212 c 0
 -153 1212 -227.408 1285.48 -227.408 1389.6 c 0
24 1515 m 0
 -18 1515 -75.2166 1475.15 -75.2166 1427.79 c 0
 -75.2166 1393.14 -44 1365 -8 1365 c 0
 34 1365 91.379 1404.85 91.379 1452.21 c 0
 91.379 1486.86 60 1515 24 1515 c 0
EndSplineSet
Substitution: 0 65534 'high' uni0E4D.high
EndChar
StartChar: uni0E4E
Encoding: 195 3662 197
Width: 0
Flags: HW
HStem: 1444 122<30.9876 172> 1675 129<70.9 188> 1909 127<66.2659 237.685>
VStem: -123 170<1810.8 1918.7>
AnchorPoint: "AboveBase" 125.807 1227 mark 0
Fore
-123 1837 m 0
 -123 1996 46 2036 154 2036 c 0
 209 2036 266 2028 326 2013 c 1
 299 1885 l 1
 243 1900 190 1909 136 1909 c 0
 94 1909 47 1904 47 1855 c 0
 47 1821 88 1804 145 1804 c 2
 215 1804 l 1
 188 1675 l 1
 123 1675 l 2
 9 1675 -18 1637 -18 1612 c 0
 -18 1568 113 1566 120 1566 c 2
 198 1566 l 1
 172 1444 l 1
 77 1444 l 2
 -69 1444 -202 1500 -202 1594 c 0
 -202 1654 -149 1715 -79 1744 c 1
 -108 1768 -123 1796 -123 1837 c 0
EndSplineSet
EndChar
StartChar: uni0E4F
Encoding: 196 3663 198
Width: 1250
Flags: HW
HStem: -21 184<442.7 917.2> 258 148<640.6 783.6> 609 154<657.6 809.7> 852 188<532.8 1007.3>
VStem: 192.453 187.765<237.482 717.756> 465.098 160.366<426.35 562.876> 826.377 158.694<444.626 588.98> 1070.28 187.56<295.755 776.696>
Fore
652 163 m 0
 856 163 1070.28 360.677 1070.28 577.083 c 0
 1070.28 730.631 959 852 798 852 c 0
 594 852 380.218 652.883 380.218 436.642 c 0
 380.218 283.442 491 163 652 163 c 0
746 609 m 0
 678 609 625.464 544.859 625.464 484.802 c 0
 625.464 439.839 655 406 703 406 c 0
 765 406 826.377 464.359 826.377 530.138 c 0
 826.377 575.401 795 609 746 609 c 0
1257.84 625.695 m 0
 1257.84 297.337 958 -21 612 -21 c 0
 357 -21 192.453 154.014 192.453 391.57 c 0
 192.453 718.421 489 1040 837 1040 c 0
 1092 1040 1257.84 863.854 1257.84 625.695 c 0
985.07 569.795 m 0
 985.07 402.262 841 258 671 258 c 0
 545 258 465.098 336.288 465.098 451.608 c 0
 465.098 602.552 592 763 778 763 c 0
 905 763 985.07 685.206 985.07 569.795 c 0
EndSplineSet
EndChar
StartChar: uni0E50
Encoding: 197 3664 199
Width: 1250
Flags: HW
HStem: -10 240<530 864.1> 686 238<573.7 905.2>
VStem: 235.805 258.685<271.26 591.102> 955.899 263.413<318.282 650.301>
Fore
770 686 m 4
 619 686 494.49 548.019 494.49 404.409 c 0
 494.49 301.987 563 230 673 230 c 4
 820 230 955.899 362.216 955.899 508.665 c 0
 955.899 617.616 874 686 770 686 c 4
1219.31 555.524 m 0
 1219.31 255.087 926 -10 620 -10 c 4
 383 -10 235.805 140.826 235.805 352.178 c 0
 235.805 666.141 523 924 818 924 c 4
 1080 924 1219.31 761.046 1219.31 555.524 c 0
EndSplineSet
EndChar
StartChar: uni0E51
Encoding: 198 3665 200
Width: 1300
Flags: HMW
HStem: -9 187<455 916.5> 203 211<596 622.5 596 720> 603 84<724.3 815.3> 722 203<562.4 999.2>
VStem: 321.767 232.543<449.415 603.512> 601.134 98.0469<508.517 583.598> 826.081 132.894<536.902 562.154 448.12 571.058> 990.329 225.798<320.647 644.37>
Fore
1216.13 584.078 m 0
 1216.13 381.439 1087 -9 572 -9 c 0
 338 -9 245 79 209 115 c 1
 344 292 l 1
 428 215 494 178 624 178 c 0
 849 178 990.329 363.333 990.329 528.437 c 0
 990.329 617.616 950 722 786 722 c 0
 614 722 554.311 582.222 554.311 511.254 c 0
 554.311 463.685 574 414 618 414 c 0
 627 414 638 417 648 422 c 1
 619 439 601.134 466.146 601.134 508.517 c 0
 601.134 601.941 669 687 799 687 c 0
 930 687 958.975 598.588 958.975 525.721 c 0
 958.975 370.52 825 203 615 203 c 0
 430 203 321.767 317.218 321.767 473.477 c 0
 321.767 684.343 514 925 824 925 c 0
 982 925 1216.13 853.679 1216.13 584.078 c 0
750 485 m 0
 789 485 826.081 516.59 826.081 557.215 c 0
 826.081 584.9 806 603 775 603 c 0
 736 603 699.181 571.41 699.181 530.785 c 0
 699.181 503.1 720 485 750 485 c 0
EndSplineSet
EndChar
StartChar: uni0E52
Encoding: 199 3666 201
Width: 1350
Flags: HMW
HStem: 0 216<580.499 1050> 343 118<718.2 800.1> 632 199<966 1009> 702 222<1085 1132>
VStem: 295 233<192 322> 316 234<840.391 1134> 348 223<609.333 994.303> 568 140<489 516.5 489 573.5> 818 120<482.7 546> 1120 214<517.691 666.049>
Fore
752 461 m 0xc060
 789 461 818 492 818 523 c 0
 818 547 800 563 774 563 c 0
 737 563 708 532 708 501 c 0
 708 477 726 461 752 461 c 0xc060
938 546 m 0
 938 461 859 343 732 343 c 0
 614 343 568 392 568 486 c 0
 568 661 666 829 914 924 c 1
 914 923 946 892 1009 831 c 1
 1132 924 l 1
 1255 872 1334 772 1334 619 c 0
 1334 584 1330 546 1322 506 c 2
 1214 0 l 1
 545 0 l 2
 344 0 295 165 295 259 c 0xc460
 295 278 296 294 297 307 c 2
 338 611 l 2
 345 680 348 746 348 811 c 0xc0e0
 348 925 337 1033 316 1134 c 1
 550 1134 l 1xc260
 565 1047 571 957 571 871 c 0xc0e0
 571 626 528 415 528 322 c 0xc460
 528 222 602 216 673 216 c 2
 1050 217 l 1
 1112 506 l 2
 1117 532 1120 561 1120 589 c 0
 1120 639 1110 685 1085 702 c 1
 1085 701 1045 678 966 632 c 1
 867 702 l 1
 860 696 853 687 846 674 c 1
 885 665 938 620 938 546 c 0
EndSplineSet
EndChar
StartChar: uni0E53
Encoding: 200 3667 202
Width: 1400
Flags: HMW
HStem: -10 114<339 435> 198 135<401 493.5> 628 296<1105.5 1114.5> 636 288<413.7 690.6>
VStem: 184.708 235.475<302.698 556.778> 461.146 128.382<114.947 198.734> 1157.75 265.003<392.173 656.771>
Fore
396 104 m 0
 426 104 461.146 125.485 461.146 160.612 c 0
 461.146 183.26 443 198 416 198 c 0
 386 198 351.045 176.515 351.045 141.389 c 0
 351.045 118.741 370 104 396 104 c 0
571 636 m 0
 450 636 420.183 525.176 420.183 419.834 c 0
 420.183 394.987 422 365 426 328 c 1
 439 331 452 333 463 333 c 0
 524 333 589.528 281.225 589.528 198.734 c 0
 589.528 128.556 548 -10 339 -10 c 0
 284 -10 234 33 216 96 c 0
 214 103 184.708 211.41 184.708 358.005 c 0
 184.708 600.764 268 924 599 924 c 0
 787 924 843 849 873 792 c 1
 935 877 1048 924 1163 924 c 0
 1336 924 1422.76 834.764 1422.76 656.771 c 0
 1422.76 430.793 1276 101 1229 0 c 1
 1000 0 l 1
 1100 229 1157.75 423.97 1157.75 529.963 c 0
 1157.75 595.321 1136 628 1093 628 c 0
 955 628 909 501 872 326 c 2
 850 216 l 1
 646 216 l 1
 666 310 690.75 411.421 690.75 491.283 c 0
 690.75 575.913 663 636 571 636 c 0
EndSplineSet
EndChar
StartChar: uni0E54
Encoding: 201 3668 203
Width: 1550
Flags: HW
HStem: -6 237<518.3 710.257> 557 135<1090 1205.7> 704 220<746.313 1237>
VStem: 215 251<293 616.7> 908 164<437 523.8> 1211 140<440 544>
Fore
1351 544 m 0
 1351 441 1268 314 1155 313 c 1
 1231 277 1318 308 1447 173 c 1
 1253 -2 l 1
 1192 68 1124 76 1046 76 c 0
 922 76 751 -6 579 -6 c 0
 363 -6 215 144 215 360 c 0
 215 770 609 941 868 924 c 2
 1114 924 l 2
 1326 924 1470 1037 1546 1262 c 1
 1778 1262 l 1
 1735 1083 1582 901 1486 830 c 0
 1375 746 1237 704 1074 704 c 2
 814 704 l 2
 574 699 466 572 466 423 c 0
 466 323 545 231 634 231 c 0
 683 231 789 252 950 295 c 2
 973 301 l 1
 923 349 908 401 908 437 c 0
 908 505 982 692 1183 692 c 0
 1319 692 1351 610 1351 544 c 0
1155 557 m 0
 1105 557 1072 513 1072 477 c 0
 1072 447 1094 423 1127 423 c 0
 1162 423 1211 455 1211 505 c 0
 1211 532 1194 557 1155 557 c 0
EndSplineSet
EndChar
StartChar: uni0E55
Encoding: 202 3669 204
Width: 1550
Flags: HW
HStem: -6 237<518.3 710.257> 557 135<1090 1205.7> 704 233<954.3 1074> 1057 129<968.6 1051.8>
VStem: 215 251<293 571.9> 810 130<948.9 1034.7> 908 164<437 523.8> 1067 132<975.215 1048> 1211 140<440 544>
Fore
1155 557 m 0xfa80
 1105 557 1072 513 1072 477 c 0
 1072 447 1094 423 1127 423 c 0
 1162 423 1211 455 1211 505 c 0
 1211 532 1194 557 1155 557 c 0xfa80
215 360 m 0
 215 523 308 889 814 922 c 1
 811 934 810 947 810 959 c 0
 810 1069 918 1186 1045 1186 c 0
 1137 1186 1199 1121 1199 1036 c 0xfd80
 1199 992 1183 954 1166 926 c 1
 1351 945 1478 1057 1546 1262 c 1
 1778 1262 l 1
 1735 1083 1582 901 1486 830 c 0
 1375 746 1237 704 1074 704 c 2
 814 704 l 2
 573 700 466 576 466 423 c 0
 466 323 545 231 634 231 c 0
 683 231 789 252 950 295 c 2
 973 301 l 1
 923 349 908 401 908 437 c 0
 908 505 982 692 1183 692 c 0
 1319 692 1351 610 1351 544 c 0
 1351 441 1268 314 1155 313 c 1
 1231 277 1318 308 1447 173 c 1
 1253 -2 l 1
 1192 68 1124 76 1046 76 c 0
 922 76 751 -6 579 -6 c 0
 363 -6 215 144 215 360 c 0
1018 1057 m 0
 980 1057 940 1023 940 984 c 0
 940 957 963 937 992 937 c 0
 1024 937 1067 966 1067 1009 c 0
 1067 1039 1044 1057 1018 1057 c 0
EndSplineSet
EndChar
StartChar: uni0E56
Encoding: 203 3670 205
Width: 1300
Flags: HW
HStem: -16 222<716 1013.9> 465 129<609.1 688.4> 708 220<750.094 1020.1>
VStem: 392.744 181.034<271.605 444.234> 703.968 127.458<363.766 444.374> 1074.8 226.345<286.101 687.467>
Fore
831.426 444.374 m 0
 831.426 367.549 781 286 703 244 c 1
 706 209 760 206 776 206 c 0
 959 206 1074.8 336.506 1074.8 504.525 c 0
 1074.8 645.25 970 708 803 708 c 0
 690 708 584 689 486 650 c 1
 416 1001 340 1186 280 1262 c 1
 583 1262 l 1
 637 1135 666 1015 668 900 c 1
 777 927 815 928 850 928 c 0
 1127 928 1301.15 782.042 1301.15 548.86 c 0
 1301.15 259.995 1065 -16 716 -16 c 0
 514 -16 392.744 115.073 392.744 271.605 c 0
 392.744 424.773 510 594 677 594 c 0
 770 594 831.426 528.679 831.426 444.374 c 0
652 465 m 0
 619 465 573.778 432.567 573.778 393.675 c 0
 573.778 366.021 597 343 626 343 c 0
 659 343 703.968 375.433 703.968 414.325 c 0
 703.968 441.979 680 465 652 465 c 0
EndSplineSet
EndChar
StartChar: uni0E57
Encoding: 204 3671 206
Width: 1540
Flags: HMW
HStem: -16 125<379.6 477.1> 234 132<421.5 518> 657 267<415.8 607.1 859.8 981.9>
VStem: 492 133<145.4 231.2> 989 226<524.324 645.7>
Fore
625 212 m 0
 625 100 519 -16 390 -16 c 0
 305 -16 196 32 196 242 c 0
 196 296 203 360 220 436 c 0
 304 832 465 923 629 923 c 0
 715 923 758 888 777 825 c 1
 816 894 891 924 995 924 c 0
 1092 924 1215 873 1215 642 c 0
 1215 577 1196 369 1123 216 c 1
 1138 216 l 2
 1196 216 1241 263 1257 338 c 2
 1425 1130 l 1
 1657 1130 l 1
 1488 334 l 2
 1441 111 1297 0 1057 0 c 2
 771 0 l 1
 820 80 989 341 989 569 c 0
 989 628 972 657 939 657 c 0
 863 657 834 599 807 467 c 1
 591 467 l 1
 598 530 606 574 606 604 c 0
 606 642 593 657 546 657 c 0
 440 657 422 376 422 376 c 0
 422 370 423 364 423 358 c 1
 441 365 457 366 478 366 c 0
 558 366 625 302 625 212 c 0
443 234 m 0
 400 234 367 196 367 157 c 0
 367 127 388 109 416 109 c 0
 463 109 492 155 492 187 c 0
 492 221 461 234 443 234 c 0
EndSplineSet
EndChar
StartChar: uni0E58
Encoding: 205 3672 207
Width: 1580
Flags: HW
HStem: -12 227<1147.1 1262.8> 283 233<765.3 888.8> 575 113<1258.4 1374.1> 699 218<808 1136>
VStem: 214.128 264.158<341.68 535.247> 1115.9 116.446<438.436 540.04> 1387.78 161.229<457.961 559.564>
Fore
1549.01 470.713 m 0
 1549.01 303.068 1426 -12 1152 -12 c 0
 933 -12 869 283 803 283 c 0
 774 283 750 236 730 141 c 2
 700 0 l 1
 575 0 l 2
 357 0 214.128 141.221 214.128 354.813 c 0
 214.128 526.926 303 881 808 917 c 0
 1171 935 1468 894 1546 1262 c 1
 1786 1263 l 1
 1770 1195 l 2
 1707 984 1591 853 1524 804 c 0
 1451 750 1301 711 1136 699 c 0
 951 686 777 712 597 636 c 0
 529 609 478.286 512.931 478.286 438.541 c 0
 478.286 364.033 528 316 581 306 c 1
 619 483 757 516 827 516 c 0
 933 516 991 435 1042 354 c 2
 1099 267 l 2
 1125 232 1160 215 1203 215 c 0
 1249 215 1273.64 266.127 1273.64 290.105 c 0
 1273.64 297.658 1272 304 1268 309 c 1
 1173 309 1115.9 376.026 1115.9 459.305 c 0
 1115.9 580.075 1233 688 1350 688 c 0
 1476 688 1549.01 602.821 1549.01 470.713 c 0
1326 575 m 0
 1274 575 1232.35 526.9 1232.35 483.099 c 0
 1232.35 448.743 1257 423 1294 423 c 0
 1346 423 1387.78 471.101 1387.78 514.902 c 0
 1387.78 549.258 1363 575 1326 575 c 0
EndSplineSet
EndChar
StartChar: uni0E59
Encoding: 206 3673 208
Width: 1500
Flags: HW
HStem: -16 123<377.3 467> 236 127<416.608 484.9> 468 270<1155.8 1346.4> 615 309<458.5 689.9 979.7 1138.3>
VStem: 196 170<119 242> 492 133<136.6 219.8>
Fore
196 242 m 0xdc
 196 425 290 924 663 924 c 0
 767 924 835 875 867 776 c 1
 931 875 998 924 1070 924 c 0xdc
 1200 924 1181 738 1265 738 c 0
 1340 738 1387 939 1442 1130 c 1
 1654 1130 l 1
 1607 906 1527 727 1476 633 c 0
 1408 517 1323 468 1245 468 c 0xec
 1026 468 1108 618 1007 618 c 0
 986 618 964 610 929 552 c 1
 1029 0 l 1
 802 0 l 1
 699 477 l 2
 682 565 668 615 595 615 c 0
 490 615 421 479 421 367 c 0
 421 363 422 359 422 356 c 1
 432 362 440 363 448 363 c 0
 560 363 625 312 625 213 c 0
 625 100 519 -16 390 -16 c 0
 305 -16 196 32 196 242 c 0xdc
442 236 m 256
 400 236 366 197 366 158 c 0
 366 128 386 107 415 107 c 0
 455 107 492 148 492 186 c 0
 492 212 475 236 442 236 c 256
EndSplineSet
EndChar
StartChar: uni0E5A
Encoding: 207 3674 209
Width: 1400
Flags: HMW
HStem: 0 21G<805 1025 1065 1284> 665 192<628 752.8> 1023 124<486.5 590.5>
VStem: 315.663 145.743<872.34 999.746> 601.002 157.632<986.659 987.706>
Fore
758.635 1008.45 m 0
 758.635 964.867 736 892 697 860 c 1
 731 857 l 2
 886 857 1011 995 1049 1149 c 1
 1269 1149 l 1
 1025 0 l 1
 805 0 l 1
 970 776 l 1
 880 687 724 665 628 665 c 0
 375 665 315.663 778.56 315.663 872.34 c 0
 315.663 994.209 414 1147 587 1147 c 0
 670 1147 758.635 1103.19 758.635 1008.45 c 0
517 889 m 0
 563 889 601.002 926.103 601.002 972.266 c 0
 601.002 1003.15 580 1023 545 1023 c 0
 500 1023 461.406 985.897 461.406 939.734 c 0
 461.406 908.854 483 889 517 889 c 0
1284 0 m 1
 1065 0 l 1
 1309 1149 l 1
 1528 1149 l 1
 1284 0 l 1
EndSplineSet
EndChar
StartChar: uni0E5B
Encoding: 208 3675 210
Width: 2370
Flags: HW
HStem: -11 233<402.2 1160.6> 198 166<1871.4 2400> 272 170<653.9 891.8> 300 84<1700 1840> 304 311<1159 1237 1458.5 1589.8> 786 200<613.8 870.7>
VStem: 224 199<323.9 473.719> 482 181<448 630.4> 749 96<576.9 627> 909 194<540.6 756.4>
Fore
715 442 m 0xa7c0
 851 442 909 564 909 642 c 0
 909 730 838 786 729 786 c 0
 506 786 423 509 423 424 c 0
 423 347 461 222 657 222 c 0
 1045 222 1103 615 1282 615 c 0
 1354 615 1365 560 1365 507 c 0
 1365 486 1363 465 1363 447 c 0
 1363 425 1366 410 1379 410 c 0
 1457 410 1439 615 1588 615 c 0x8fc0
 1701 615 1627 384 1700 384 c 0x17c0
 1756 384 1768 507 1868 507 c 0
 1956 507 1914 364 2056 364 c 2
 2435 364 l 1
 2400 198 l 1
 2015 198 l 2x47c0
 1886 198 1860 300 1840 300 c 0x17c0
 1790 300 1729 94 1620 94 c 0
 1527 94 1573 304 1517 304 c 0x0fc0
 1472 304 1417 88 1311 88 c 0
 1167 88 1228 300 1198 300 c 0x17c0
 1168 300 1040 -11 638 -11 c 0
 349 -11 224 173 224 375 c 0
 224 411 228 447 236 483 c 0
 321 885 654 986 788 986 c 0
 1040 986 1103 839 1103 709 c 0
 1103 430 858 272 667 272 c 0
 538 272 482 352 482 448 c 0
 482 592 609 736 726 736 c 0
 779 736 845 703 845 627 c 0
 845 529 752 463 679 463 c 0
 665 463 652 465 640 471 c 1
 640 471 640 470 640 469 c 0
 640 459 668 442 715 442 c 0xa7c0
715 643 m 0
 692 643 663 622 663 594 c 0
 663 577 676 561 699 561 c 0
 725 561 749 585 749 612 c 0
 749 633 734 643 715 643 c 0
EndSplineSet
EndChar
StartChar: afii301
Encoding: 211 8205 212
Width: 0
Flags: W
VStem: -94 603<-275 1364>
Fore
-22 -275 m 1
 -94 -275 l 1
 201 1114 l 1
 38 978 l 1
 -1 1027 l 1
 206 1196 l 1
 71 1364 l 1
 130 1413 l 1
 264 1242 l 1
 470 1413 l 1
 509 1364 l 1
 302 1196 l 1
 437 1027 l 1
 378 978 l 1
 273 1114 l 1
 -22 -275 l 1
EndSplineSet
EndChar
StartChar: afii299
Encoding: 212 8206 213
Width: 0
Flags: W
HStem: 1163 71<282 548>
VStem: -94 779<-275 1198>
Fore
685 1198 m 1
 422 984 l 1
 384 1033 l 1
 548 1163 l 1
 282 1163 l 1
 -23 -275 l 1
 -94 -275 l 1
 226 1234 l 1
 563 1234 l 1
 454 1364 l 1
 513 1413 l 1
 685 1198 l 1
EndSplineSet
EndChar
StartChar: afii300
Encoding: 213 8207 214
Width: 0
Flags: W
HStem: 1163 71<-40 211>
VStem: -176 473<1198 1234>
Fore
-23 -275 m 1
 -94 -275 l 1
 211 1163 l 1
 -55 1163 l 1
 55 1033 l 1
 -5 984 l 1
 -176 1198 l 1
 86 1413 l 1
 125 1364 l 1
 -40 1234 l 1
 297 1234 l 1
 -23 -275 l 1
EndSplineSet
EndChar
StartChar: uni2010
Encoding: 214 8208 215
Width: 973
Flags: MW
HStem: 543 225<353 930>
Fore
353 768 m 1
 978 768 l 1
 930 543 l 1
 305 543 l 1
 353 768 l 1
EndSplineSet
EndChar
StartChar: endash
Encoding: 215 8211 216
Width: 1125
Flags: W
HStem: 525 234<161 1238>
Fore
1238 525 m 1
 112 525 l 1
 161 759 l 1
 1287 759 l 1
 1238 525 l 1
EndSplineSet
EndChar
StartChar: emdash
Encoding: 216 8212 217
Width: 1886
Flags: W
HStem: 525 245<164 1982>
Fore
1982 525 m 1
 112 525 l 1
 164 770 l 1
 2034 770 l 1
 1982 525 l 1
EndSplineSet
EndChar
StartChar: afii00208
Encoding: 217 8213 218
Width: 1862
Flags: W
HStem: 572 160<266 1874>
Fore
1874 572 m 1
 232 572 l 1
 266 732 l 1
 1908 732 l 1
 1874 572 l 1
EndSplineSet
EndChar
StartChar: underscoredbl
Encoding: 218 8215 219
Width: 1118
Flags: W
HStem: -423 130<-78 1044> -212 130<-33 1089>
Fore
1089 -212 m 1
 -61 -212 l 1
 -33 -82 l 1
 1117 -82 l 1
 1089 -212 l 1
1044 -423 m 1
 -106 -423 l 1
 -78 -293 l 1
 1072 -293 l 1
 1044 -423 l 1
EndSplineSet
EndChar
StartChar: quoteleft
Encoding: 219 8216 220
Width: 450
Flags: W
VStem: 267 324<997 1556>
Fore
591 997 m 1
 409 997 l 1
 267 1556 l 1
 553 1556 l 1
 591 997 l 1
EndSplineSet
EndChar
StartChar: quoteright
Encoding: 220 8217 221
Width: 580
Flags: W
HStem: 997 559<447 827>
VStem: 264 563<997 1556>
Fore
827 1556 m 1
 447 997 l 1
 264 997 l 1
 540 1556 l 1
 827 1556 l 1
EndSplineSet
EndChar
StartChar: quotesinglbase
Encoding: 221 8218 222
Width: 432
Flags: W
HStem: -276 559<66 446>
VStem: -72 518<-276 283>
Fore
446 283 m 1
 66 -276 l 1
 -72 -276 l 1
 204 283 l 1
 446 283 l 1
EndSplineSet
EndChar
StartChar: quotereversed
Encoding: 222 8219 223
Width: 432
Flags: W
HStem: 997 559<390 666>
VStem: 148 518<997 1556>
Fore
666 1556 m 1
 390 997 l 1
 148 997 l 1
 528 1556 l 1
 666 1556 l 1
EndSplineSet
EndChar
StartChar: quotedblleft
Encoding: 223 8220 224
Width: 850
Flags: W
VStem: 267 670<997 1556>
Fore
937 997 m 1
 758 997 l 1
 616 1556 l 1
 899 1556 l 1
 937 997 l 1
588 997 m 1
 409 997 l 1
 267 1556 l 1
 550 1556 l 1
 588 997 l 1
EndSplineSet
EndChar
StartChar: quotedblright
Encoding: 224 8221 225
Width: 1000
Flags: W
HStem: 997 559<847 1227>
VStem: 319 908<997 1556>
Fore
1227 1556 m 1
 847 997 l 1
 668 997 l 1
 944 1556 l 1
 1227 1556 l 1
878 1556 m 1
 498 997 l 1
 319 997 l 1
 595 1556 l 1
 878 1556 l 1
EndSplineSet
EndChar
StartChar: quotedblbase
Encoding: 225 8222 226
Width: 814
Flags: W
HStem: -276 559<461 841>
VStem: -67 908<-276 283>
Fore
841 283 m 1
 461 -276 l 1
 327 -276 l 1
 603 283 l 1
 841 283 l 1
447 283 m 1
 67 -276 l 1
 -67 -276 l 1
 209 283 l 1
 447 283 l 1
EndSplineSet
EndChar
StartChar: dagger
Encoding: 226 8224 227
Width: 1118
Flags: W
HStem: 1034 129<382 719 866 1203>
VStem: 355 875<1034 1163>
Fore
1203 1034 m 1
 841 1039 l 1
 654 135 l 1
 522 135 l 1
 719 1039 l 1
 355 1034 l 1
 382 1163 l 1
 744 1158 l 1
 824 1556 l 1
 956 1556 l 1
 866 1158 l 1
 1230 1163 l 1
 1203 1034 l 1
EndSplineSet
EndChar
StartChar: daggerdbl
Encoding: 227 8225 228
Width: 1118
Flags: W
HStem: 507 129<270 607 754 1091> 1049 119<384 721 868 1205>
VStem: 243 989<507 1173>
Fore
1091 507 m 1
 729 512 l 1
 651 124 l 1
 519 124 l 1
 607 512 l 1
 243 507 l 1
 270 636 l 1
 632 631 l 1
 721 1049 l 1
 357 1044 l 1
 384 1173 l 1
 746 1168 l 1
 824 1556 l 1
 956 1556 l 1
 868 1168 l 1
 1232 1173 l 1
 1205 1044 l 1
 843 1049 l 1
 754 631 l 1
 1118 636 l 1
 1091 507 l 1
EndSplineSet
EndChar
StartChar: bullet
Encoding: 228 8226 229
Width: 950
Flags: HW
Fore
246.593 587.043 m 0
 246.593 801.137 448 1013 680 1013 c 0
 856 1013 965.687 891.405 965.687 736.002 c 0
 965.687 522.543 764 311 531 311 c 0
 363 311 246.593 427.295 246.593 587.043 c 0
EndSplineSet
EndChar
StartChar: ellipsis
Encoding: 229 8230 230
Width: 1650
Flags: W
HStem: 0 223<224 381 782 939 1340 1497>
Fore
1497 0 m 1
 1293 0 l 1
 1340 223 l 1
 1544 223 l 1
 1497 0 l 1
939 0 m 1
 735 0 l 1
 782 223 l 1
 986 223 l 1
 939 0 l 1
381 0 m 1
 177 0 l 1
 224 223 l 1
 428 223 l 1
 381 0 l 1
EndSplineSet
EndChar
StartChar: perthousand
Encoding: 230 8240 231
Width: 2848
Flags: HW
HStem: -29 133<1466.9 1702.2 2310.9 2546.2> 634 133<516.6 753.2> 721 133<1561.5 1798.1 2405.5 2642.1> 1384 133<612.5 849.1>
VStem: 311 176<757.6 1011.62> 878 177<1131.79 1391.7> 1260 176<94.6 348.617> 1827 177<468.786 728.7> 2104 176<94.6 348.617> 2671 177<468.786 728.7>
Fore
777 1517 m 0xdfc0
 947 1517 1055 1439 1055 1241 c 0
 1055 1193 1049 1138 1036 1076 c 0
 967 755 801 634 590 634 c 0
 419 634 311 715 311 912 c 0
 311 959 317 1014 330 1075 c 0
 398 1394 565 1517 777 1517 c 0xdfc0
1789 1489 m 1
 693 0 l 1
 528 0 l 1
 1624 1489 l 1
 1789 1489 l 1
1727 854 m 0xbfc0
 1896 854 2004 776 2004 578 c 0
 2004 530 1998 475 1985 413 c 0
 1917 94 1750 -29 1539 -29 c 0
 1368 -29 1260 51 1260 248 c 0
 1260 296 1266 350 1280 412 c 0
 1347 731 1515 854 1727 854 c 0xbfc0
618 767 m 0xdfc0
 722 767 803 820 858 1076 c 0
 872 1143 878 1196 878 1237 c 0
 878 1356 826 1384 749 1384 c 0
 644 1384 562 1328 508 1075 c 0
 494 1007 487 953 487 911 c 0
 487 793 540 767 618 767 c 0xdfc0
1567 104 m 0
 1671 104 1752 157 1807 413 c 0
 1821 480 1827 533 1827 574 c 0
 1827 693 1775 721 1698 721 c 0xbfc0
 1593 721 1511 665 1458 412 c 0
 1443 344 1436 290 1436 248 c 0
 1436 130 1490 104 1567 104 c 0
2571 854 m 0
 2740 854 2848 776 2848 578 c 0
 2848 530 2842 475 2829 413 c 0
 2761 94 2594 -29 2383 -29 c 0
 2212 -29 2104 51 2104 248 c 0
 2104 296 2110 350 2124 412 c 0
 2191 731 2359 854 2571 854 c 0
2411 104 m 0
 2515 104 2596 157 2651 413 c 0
 2665 480 2671 533 2671 574 c 0
 2671 693 2619 721 2542 721 c 0
 2437 721 2355 665 2302 412 c 0
 2287 344 2280 290 2280 248 c 0
 2280 130 2334 104 2411 104 c 0
EndSplineSet
EndChar
StartChar: minute
Encoding: 231 8242 232
Width: 602
Flags: W
HStem: 870 619<458 887>
VStem: 322 565<870 1489>
Fore
887 1489 m 1
 458 870 l 1
 322 870 l 1
 647 1489 l 1
 887 1489 l 1
EndSplineSet
EndChar
StartChar: second
Encoding: 232 8243 233
Width: 972
Flags: W
HStem: 870 619<454 883>
VStem: 322 955<870 1489>
Fore
883 1489 m 1
 454 870 l 1
 322 870 l 1
 647 1489 l 1
 883 1489 l 1
1277 1489 m 1
 848 870 l 1
 716 870 l 1
 1041 1489 l 1
 1277 1489 l 1
EndSplineSet
EndChar
StartChar: guilsinglleft
Encoding: 233 8249 234
Width: 784
Flags: W
HStem: 172 960<670 874>
VStem: 252 622<608 1132>
Fore
670 172 m 1
 252 608 l 1
 271 697 l 1
 874 1132 l 1
 831 933 l 1
 441 652 l 1
 712 371 l 1
 670 172 l 1
EndSplineSet
EndChar
StartChar: guilsinglright
Encoding: 234 8250 235
Width: 784
Flags: W
HStem: 172 960<188 392>
VStem: 188 621<172 697>
Fore
790 608 m 1
 188 172 l 1
 230 371 l 1
 621 652 l 1
 349 933 l 1
 392 1132 l 1
 809 697 l 1
 790 608 l 1
EndSplineSet
EndChar
StartChar: uni203E
Encoding: 236 8254 237
Width: 1118
Flags: W
HStem: 1658 131<332 1470>
Fore
1470 1658 m 1
 304 1658 l 1
 332 1789 l 1
 1498 1789 l 1
 1470 1658 l 1
EndSplineSet
EndChar
StartChar: fraction
Encoding: 237 8260 238
Width: 886
Flags: W
HStem: 0 21G<-29 136>
Fore
1232 1489 m 1
 136 0 l 1
 -29 0 l 1
 1067 1489 l 1
 1232 1489 l 1
EndSplineSet
EndChar
StartChar: uni207F
Encoding: 238 8319 239
Width: 1010
Flags: HW
HStem: 1368 151<819.979 1053>
VStem: 245 892<566 1163>
Fore
591 1388 m 1
 758 1509 845 1519 909 1519 c 0
 1109 1519 1186 1392 1137 1163 c 2
 1010 566 l 1
 838 566 l 1
 949 1088 l 2
 987 1266 1002 1368 832 1368 c 0
 778 1368 710 1355 563 1254 c 1
 416 566 l 1
 245 566 l 1
 441 1488 l 1
 612 1488 l 1
 591 1388 l 1
EndSplineSet
EndChar
StartChar: dottedcircle
Encoding: 239 9676 240
Width: 1247
Flags: HW
HStem: 7 121<583.4 666.6> 68 121<887.8 968.4> 98 121<335.8 419> 234 121<1090.1 1170.4> 249 121<226.1 309.3> 438 121<1207.8 1291> 445 121<147.4 227.7> 679 121<211.1 295.6 1246.1 1328> 868 121<357.1 436.4> 891 121<1184.1 1268.6> 1011 121<577.1 659> 1034 121<1025.8 1106.4> 1079 121<817.1 899>
VStem: 338.757 124.053<888.72 961.672> 558.152 124.098<32.2246 100.673 1057.3 1085.52> 870.711 124.053<88.7212 161.673>
Fore
462.809 942.243 m 0x0187
 462.809 901.072 425 868 387 868 c 0
 357 868 338.757 887.256 338.757 914.296 c 0
 338.757 950.739 370 989 413 989 c 0
 445 989 462.809 969.241 462.809 942.243 c 0x0187
682.25 1085.52 m 0
 682.25 1043.66 647 1011 607 1011 c 0
 577 1011 558.152 1030.26 558.152 1057.3 c 0
 558.152 1093.74 590 1132 633 1132 c 0x0127
 662 1132 682.25 1114.16 682.25 1085.52 c 0
922.704 1153.52 m 0
 922.704 1111.66 887 1079 847 1079 c 0
 817 1079 798.606 1098.26 798.606 1125.3 c 0
 798.606 1161.74 830 1200 873 1200 c 0x010f
 902 1200 922.704 1182.16 922.704 1153.52 c 0
251.943 519.522 m 0
 251.943 477.661 216 445 177 445 c 0
 146 445 127.845 464.257 127.845 491.297 c 0
 127.845 527.74 160 566 202 566 c 0x0307
 232 566 251.943 548.157 251.943 519.522 c 0
331.071 321.903 m 0
 331.071 285.227 297 249 256 249 c 0
 226 249 207.184 268.257 207.184 295.297 c 0
 207.184 331.74 239 370 282 370 c 0x0907
 312 370 331.071 348.981 331.071 321.903 c 0
442.186 172.521 m 0
 442.186 130.66 407 98 367 98 c 0
 337 98 318.088 117.257 318.088 144.296 c 0
 318.088 180.74 349 219 393 219 c 0x2107
 422 219 442.186 201.156 442.186 172.521 c 0
687.632 79.9029 m 0
 687.632 43.2273 654 7 612 7 c 0
 582 7 563.745 26.2567 563.745 53.2969 c 0
 563.745 89.7402 596 128 638 128 c 0x8107
 669 128 687.632 106.981 687.632 79.9029 c 0
994.764 142.244 m 0
 994.764 101.073 957 68 919 68 c 0
 889 68 870.711 87.2567 870.711 114.297 c 0
 870.711 150.74 901 189 945 189 c 0x4107
 977 189 994.764 169.241 994.764 142.244 c 0
1196.05 308.244 m 0
 1196.05 267.073 1159 234 1121 234 c 0
 1091 234 1072 253.257 1072 280.297 c 0
 1072 316.74 1103 355 1146 355 c 0x1107
 1178 355 1196.05 335.241 1196.05 308.244 c 0
1314.46 512.521 m 0
 1314.46 470.66 1279 438 1239 438 c 0
 1209 438 1190.36 457.256 1190.36 484.296 c 0
 1190.36 520.739 1221 559 1265 559 c 0x0507
 1294 559 1314.46 541.156 1314.46 512.521 c 0
1351.68 753.521 m 0
 1351.68 711.66 1316 679 1276 679 c 0
 1246 679 1227.58 698.257 1227.58 725.297 c 0
 1227.58 761.74 1259 800 1302 800 c 0
 1331 800 1351.68 782.156 1351.68 753.521 c 0
1289.53 963.902 m 0
 1289.53 927.227 1256 891 1214 891 c 0
 1184 891 1165.65 910.256 1165.65 937.296 c 0
 1165.65 973.739 1197 1012 1240 1012 c 0x0147
 1270 1012 1289.53 990.981 1289.53 963.902 c 0
1132.09 1108.24 m 0
 1132.09 1067.07 1095 1034 1057 1034 c 0
 1027 1034 1008.04 1053.26 1008.04 1080.3 c 0
 1008.04 1116.74 1039 1155 1083 1155 c 0x0117
 1114 1155 1132.09 1135.24 1132.09 1108.24 c 0
316.47 751.903 m 0
 316.47 715.227 283 679 241 679 c 0
 211 679 192.583 698.257 192.583 725.297 c 0
 192.583 761.74 224 800 267 800 c 0
 297 800 316.47 778.981 316.47 751.903 c 0
EndSplineSet
EndChar
StartChar: uni0E10.descless
Encoding: 240 63232 241
Width: 1100
Flags: HMW
HStem: -10 220<655 691 655 717.5> -10 21G<547.5 717.5> 260 113<322 398> 541 123<316.5 474> 856 208<901.4 1139.51> 941 208<600.1 900.4>
VStem: 199 120<379.8 478.287> 801 232<545.5 698>
Fore
401 541 m 0x52
 336 541 319 457 319 424 c 0
 319 390 336 373 365 373 c 0
 431 373 447 457 447 490 c 0
 447 524 431 541 401 541 c 0x52
199 394 m 0
 199 521 301 664 474 664 c 0
 563 664 666 629 666 500 c 0
 666 480 663 458 658 433 c 2
 626 283 l 2
 624 273 623 264 623 256 c 0
 623 225 639 210 671 210 c 0
 711 210 736 233 745 279 c 2
 798 529 l 2
 800 536 801 542 801 549 c 0
 801 572 790 590 769 603 c 2
 697 636 l 2
 596 672 428 707 195 742 c 1
 292 976 457 1149 750 1149 c 0x56
 949 1149 953 1064 1125 1064 c 0
 1152 1064 1178 1067 1202 1072 c 1
 1118 862 l 1
 1097 857 1070 856 1042 856 c 0x5a
 904 856 853 941 695 941 c 0x56
 622 941 573 925 547 892 c 1
 846 832 1033 775 1033 621 c 0
 1033 606 1031 590 1028 573 c 2
 965 279 l 2
 924 86 811 -10 624 -10 c 0
 471 -10 395 56 395 186 c 0
 395 207 396 236 407 289 c 1
 383 267 346 260 322 260 c 0
 266 262 199 303 199 394 c 0
EndSplineSet
EndChar
StartChar: uni0E48.low
Encoding: 250 63242 251
Width: 0
Flags: HW
VStem: -72 291<1309 1589>
AnchorPoint: "AboveBase" 141.807 1227 mark 0
Fore
-12 1589 m 1
 219 1589 l 1
 159 1309 l 1
 -72 1309 l 1
 -12 1589 l 1
EndSplineSet
EndChar
StartChar: uni0E49.low
Encoding: 251 63243 252
Width: 0
Flags: HMW
HStem: 1420 88<-381.7 -327.957> 1615 97<-390.9 -284.3>
VStem: -486.081 97.3703<1533.45 1584.84> -277.277 123.628<1566.58 1589.29>
AnchorPoint: "AboveBase" 20.8066 1227 mark 0
Fore
-486.081 1533.45 m 0
 -486.081 1635.39 -402 1712 -312 1712 c 0
 -209 1712 -153.649 1644.22 -153.649 1576.53 c 0
 -153.649 1546.48 -172 1488 -190 1457 c 1
 -124 1470 17 1530 109 1698 c 1
 291 1698 l 1
 188 1473 -64 1303 -354 1258 c 0
 -386 1253 -422 1249 -463 1245 c 1
 -441 1352 l 1
 -381 1366 -345 1394 -333 1427 c 1
 -348 1422 -362 1420 -377 1420 c 0
 -447 1420 -486.081 1468.14 -486.081 1533.45 c 0
-322 1615 m 0
 -375 1615 -388.71 1570.72 -388.71 1546.79 c 0
 -388.71 1522.12 -373 1508 -344 1508 c 0
 -291 1508 -277.277 1556.14 -277.277 1577.03 c 0
 -277.277 1601.55 -293 1615 -322 1615 c 0
EndSplineSet
EndChar
StartChar: uni0E4A.low
Encoding: 252 63244 253
Width: 0
Flags: HMW
HStem: 1247 89<-358 -250.3> 1416 77<-318.101 -255.4> 1437 178<-148 -110> 1555 178<-262 -225>
VStem: -251.748 76.3354<1355.8 1409.35>
AnchorPoint: "AboveBase" 260.807 1227 mark 0
Fore
-284 1416 m 0
 -324 1416 -333.774 1380.38 -333.774 1364.92 c 0
 -333.774 1346.63 -322 1336 -301 1336 c 0
 -262 1336 -251.748 1371.49 -251.748 1383.44 c 0
 -251.748 1399.53 -262 1416 -284 1416 c 0
-175.412 1407.15 m 0
 -175.412 1312.2 -252 1247 -358 1247 c 0
 -481 1247 -513.603 1328.66 -513.603 1403.42 c 0
 -513.603 1600.92 -312 1704 -225 1733 c 1
 -110 1615 l 1
 57 1733 l 1
 150 1695 226.022 1625.02 226.022 1539.71 c 0
 226.022 1514.08 220 1501 219 1497 c 1
 371 1748 l 1
 551 1748 l 1
 550 1748 483 1636 350 1411 c 0
 260 1262 54 1251 -5 1251 c 1
 56 1322 66.6014 1394.25 66.6014 1435.92 c 0
 66.6014 1501.74 38 1541 20 1555 c 1
 -148 1437 l 1
 -262 1555 l 1
 -294 1544 -335 1511 -348 1465 c 1
 -323 1484 -295 1493 -264 1493 c 2
 -261.56 1493.02 l 2
 -206.864 1493.02 -175.412 1460.68 -175.412 1407.15 c 0
EndSplineSet
EndChar
StartChar: uni0E4B.low
Encoding: 253 63245 254
Width: 0
Flags: W
HStem: 1348 174<-146 -52 157 243>
VStem: -183 463<1348 1522>
AnchorPoint: "AboveBase" 200.807 1227 mark 0
Fore
243 1348 m 1
 120 1348 l 1
 93 1225 l 1
 -79 1225 l 1
 -52 1348 l 1
 -183 1348 l 1
 -146 1522 l 1
 -15 1522 l 1
 12 1651 l 1
 184 1651 l 1
 157 1522 l 1
 280 1522 l 1
 243 1348 l 1
EndSplineSet
EndChar
StartChar: uni0E4C.low
Encoding: 254 63246 255
Width: 0
Flags: HW
HStem: 1250 112<-258.8 -162.6>
VStem: -407 136<1374.3 1444.07> -128 133<1377.5 1473.7>
AnchorPoint: "AboveBase" -39.1934 1227 mark 0
Fore
5 1454 m 0
 5 1354 -95 1250 -214 1250 c 0
 -333 1250 -407 1310 -407 1398 c 0
 -407 1410 -406 1422 -403 1434 c 0
 -337 1747 17 1606 164 1798 c 1
 344 1798 l 1
 259 1651 47 1550 -41 1547 c 1
 -14 1531 5 1497 5 1454 c 0
-212 1362 m 0
 -174 1362 -128 1391 -128 1436 c 0
 -128 1465 -151 1486 -186 1486 c 0
 -225 1486 -271 1457 -271 1412 c 0
 -271 1383 -248 1362 -212 1362 c 0
EndSplineSet
EndChar
StartChar: uni0E0D.descless
Encoding: 255 63247 256
Width: 1745
Flags: HMW
HStem: -10 120<482 596.7> 0 210<1180 1405> 280 111<547 645> 929 220<736.2 1040.4>
VStem: 288 201<129.889 232.8> 614 130<157.3 262.978> 1066 228<701.96 905.1>
Fore
744 255 m 0x5e
 744 138 650 -10 482 -10 c 0x9e
 335 -10 288 56 288 164 c 0
 288 205 294 252 305 303 c 2
 319 366 l 2
 352 523 382 560 512 671 c 1
 477 726 419 767 339 792 c 1
 389 912 605 1149 921 1149 c 0
 1159 1149 1294 1028 1294 811 c 0
 1294 769 1289 722 1278 673 c 2
 1180 210 l 1
 1405 210 l 1
 1602 1139 l 1
 1822 1139 l 1
 1580 0 l 1
 915 0 l 1
 1055 657 l 2
 1062 692 1066 724 1066 753 c 0
 1066 870 1002 929 874 929 c 0
 768 929 683 896 620 831 c 1
 686 795 727 739 740 663 c 1
 597 538 574 532 538 363 c 1
 560 383 585 391 619 391 c 0
 671 391 744 353 744 255 c 0x5e
533 110 m 0
 582 110 614 172 614 221 c 0
 614 252 601 280 570 280 c 0
 524 280 489 219 489 173 c 0
 489 140 505 110 533 110 c 0
EndSplineSet
EndChar
StartChar: uniF71B
Encoding: 267 63259 268
Width: 1000
Flags: W
HStem: 1065 20G<446 1061>
VStem: 228 833<61 1085>
Fore
1061 1085 m 1
 843 61 l 1
 228 61 l 1
 446 1085 l 1
 1061 1085 l 1
EndSplineSet
EndChar
StartChar: uniF71C
Encoding: 268 63260 269
Width: 700
Flags: W
HStem: -423 269<7 201>
VStem: 7 491<-423 -154>
Fore
7 -423 m 1
 201 -154 l 1
 498 -154 l 1
 200 -423 l 1
 7 -423 l 1
EndSplineSet
EndChar
StartChar: uniF71D
Encoding: 269 63261 270
Width: 800
Flags: W
HStem: -236 211<177 244 476 566> -150 125<262 476>
VStem: 132 479<-236 -25>
Fore
566 -236 m 1xa0
 458 -236 l 1xa0
 476 -150 l 1
 262 -150 l 1x60
 244 -236 l 1
 132 -236 l 1
 177 -25 l 1xa0
 611 -25 l 1x60
 566 -236 l 1xa0
EndSplineSet
EndChar
StartChar: afii61664
Encoding: 210 8204 271
Width: 0
Flags: W
VStem: -94 404<-275 1289>
Fore
310 1289 m 1
 -22 -275 l 1
 -94 -275 l 1
 238 1289 l 1
 310 1289 l 1
EndSplineSet
EndChar
